SplineFontDB: 3.2
FontName: Untitled2
FullName: Untitled2
FamilyName: Untitled2
Weight: Regular
Copyright: Copyright (c) 2024, Darren Embry
UComments: "2024-10-17: Created with FontForge (http://fontforge.org)"
Version: 001.000
ItalicAngle: 0
UnderlinePosition: -1008
UnderlineWidth: 384
Ascent: 1344
Descent: 336
InvalidEm: 0
LayerCount: 2
Layer: 0 0 "Back" 1
Layer: 1 0 "Fore" 0
XUID: [1021 323 -1642646731 12193472]
OS2Version: 0
OS2_WeightWidthSlopeOnly: 0
OS2_UseTypoMetrics: 1
CreationTime: 1729142792
ModificationTime: 1729228814
OS2TypoAscent: 0
OS2TypoAOffset: 1
OS2TypoDescent: 0
OS2TypoDOffset: 1
OS2TypoLinegap: 0
OS2WinAscent: 0
OS2WinAOffset: 1
OS2WinDescent: 0
OS2WinDOffset: 1
HheadAscent: 0
HheadAOffset: 1
HheadDescent: 0
HheadDOffset: 1
OS2Vendor: 'PfEd'
MarkAttachClasses: 1
DEI: 91125
Encoding: UnicodeBmp
UnicodeInterp: none
NameList: AGL For New Fonts
DisplaySize: -24
AntiAlias: 1
FitToEm: 0
WinInfo: 0 57 18
BeginPrivate: 0
EndPrivate
BeginChars: 65536 33

StartChar: uni0000
Encoding: 0 0 0
Width: 1008
VWidth: 4000
Flags: HW
LayerCount: 2
Fore
SplineSet
29031.6064453 365.232421875 m 0
 29031.6064453 52.6455078125 29236.4580078 -194.890625 29478.78125 -194.890625 c 0
 29709.1035156 -194.890625 29800.0488281 -53.4033203125 29817.9697266 -6.98046875 c 0
 29830.0263672 24.2529296875 29806.9140625 58.28125 29773.171875 58.28125 c 0
 29752.7636719 58.28125 29735.3125 45.5166015625 29728.3740234 27.54296875 c 1
 29728.7089844 28.4052734375 29713.4248047 -9.1259765625 29668.7158203 -43.115234375 c 0
 29631.4257812 -71.462890625 29572.7255859 -98.890625 29478.78125 -98.890625 c 0
 29288.7382812 -98.890625 29127.6064453 110.3515625 29127.6064453 365.232421875 c 0
 29127.6064453 676.895507812 29297.5117188 910.328125 29501.234375 910.328125 c 0
 29619.5117188 910.328125 29704.9404297 865.185546875 29757.7646484 774.977539062 c 0
 29797.5292969 707.07421875 29817.484375 614.333984375 29817.484375 509.25 c 0
 29817.484375 502.513671875 29816.7373047 382.139648438 29763.9472656 275.890625 c 0
 29754.1738281 256.21875 29722.1787109 198 29685.84375 198 c 0
 29678.4892578 198 29655.09375 198 29646.2734375 210.869140625 c 0
 29641.5791016 217.71875 29632.4042969 239.416992188 29643.046875 297.407226562 c 2
 29732.6318359 688.103515625 l 2
 29739.5097656 718.099609375 29716.6845703 746.859375 29685.84375 746.859375 c 0
 29663.0488281 746.859375 29643.9443359 730.935546875 29639.0556641 709.615234375 c 0
 29549.0224609 316.963867188 29549.0224609 316.963867188 29548.8408203 315.991210938 c 0
 29534.4101562 238.416992188 29544.1386719 190.09375 29567.03125 156.69140625 c 0
 29584.5996094 131.057617188 29619.2089844 102 29685.84375 102 c 0
 29840.6982422 102 29913.484375 359.767578125 29913.484375 509.25 c 0
 29913.484375 625.916015625 29892.2919922 735.228515625 29840.6669922 823.385742188 c 0
 29795.640625 900.276367188 29699.7421875 1006.328125 29501.234375 1006.328125 c 0
 29246.4521484 1006.328125 29031.6064453 738.76953125 29031.6064453 365.232421875 c 0
28112.015625 128 m 0
 28112.015625 147.541992188 28137.4121094 180 28184.015625 180 c 0
 28222.9316406 180 28255.0683594 174.548828125 28283.1074219 165.638671875 c 0
 28283.1074219 162.444335938 28280.6132812 159.328125 28279.3037109 156.293945312 c 0
 28246.8037109 81.044921875 28199.5166016 75.478515625 28173.7617188 75.990234375 c 0
 28114.5517578 77.16015625 28112.015625 108.637695312 28112.015625 128 c 0
28403.6875 321.40625 m 0
 28403.6875 465.692382812 28329.765625 551.989257812 28329.765625 757.4375 c 0
 28329.765625 884.3046875 28377.5273438 927.266601562 28401.375 944.401367188 c 0
 28422.6171875 959.665039062 28464.2119141 980.665039062 28541.4082031 980.001953125 c 0
 28598.2763672 979.509765625 28643.28125 964.631835938 28674.7695312 941.930664062 c 0
 28713.5527344 913.969726562 28736.0166016 872.774414062 28736.0166016 817.748046875 c 0
 28736.0166016 791.357421875 28757.5976562 769.96875 28784.015625 769.96875 c 0
 28810.5078125 769.96875 28832.015625 791.4765625 28832.0146484 818.189453125 c 0
 28831.3730469 960.428710938 28723.9746094 1076.01757812 28537.7949219 1076.01757812 c 0
 28486.6943359 1076.01757812 28233.765625 1075.24414062 28233.765625 757.4375 c 0
 28233.765625 541.931640625 28307.6875 441.751953125 28307.6875 321.40625 c 0
 28307.6875 299.9453125 28306.5683594 279.173828125 28304.4013672 259.450195312 c 1
 28268.9892578 269.819335938 28229.1259766 276 28184.015625 276 c 0
 28086.2685547 276 28016.015625 202.805664062 28016.015625 128 c 0
 28016.015625 46.2626953125 28070.0488281 -20.0341796875 28176.2509766 -20.0341796875 c 0
 28255.0488281 -20.0341796875 28327.7519531 22.908203125 28369.2167969 122.39453125 c 1
 28389.6845703 108.349609375 28409.1005859 92.6494140625 28429.0439453 76.390625 c 0
 28482.7695312 32.59375 28545.0947266 -20 28640.015625 -20 c 0
 28804.7353516 -20 28885.765625 141.79296875 28885.765625 308.609375 c 0
 28885.765625 335.1015625 28864.2578125 356.609375 28837.765625 356.609375 c 0
 28811.2734375 356.609375 28789.765625 335.1015625 28789.765625 308.609375 c 0
 28789.765625 232.399414062 28762.7919922 76 28640.015625 76 c 0
 28583.625 76 28545.7529297 105.086914062 28489.6386719 150.83203125 c 0
 28462.7822266 172.724609375 28432.6435547 197.52734375 28395.9736328 219.266601562 c 0
 28401.2529297 251.883789062 28403.6875 286.188476562 28403.6875 321.40625 c 0
44598.015625 78 m 2
 44600.40625 83.5595703125 44604.3730469 76 44600.015625 76 c 0
 44598.8886719 76 44598.015625 78 44598.015625 78 c 2
44502.015625 78 m 0
 44502.015625 23.908203125 44545.9238281 -20 44600.015625 -20 c 0
 44654.1074219 -20 44698.015625 23.908203125 44698.015625 78 c 0
 44698.015625 132.110351562 44654.0947266 176 44600.015625 176 c 0
 44545.9365234 176 44502.015625 132.110351562 44502.015625 78 c 0
44550.015625 78.005859375 m 0
 44550.015625 105.620117188 44572.4013672 128.005859375 44600.015625 128.005859375 c 0
 44627.6298828 128.005859375 44650.015625 105.620117188 44650.015625 78.005859375 c 0
 44650.015625 50.3916015625 44627.6298828 28.005859375 44600.015625 28.005859375 c 0
 44572.4013672 28.005859375 44550.015625 50.3916015625 44550.015625 78.005859375 c 0
929.934570312 801.934570312 m 2
 899.794921875 832.073242188 848 810.49609375 848 768 c 0
 848 754.75390625 853.376953125 742.75390625 862.065429688 734.065429688 c 2
 1582.06542969 14.0654296875 l 2
 1612.20507812 -16.0732421875 1664 5.50390625 1664 48 c 0
 1664 61.24609375 1658.62304688 73.24609375 1649.93457031 81.9345703125 c 2
 929.934570312 801.934570312 l 2
96 797.859375 m 0
 96 887.438476562 168.569335938 960 258.15625 960 c 0
 347.725585938 960 420.296875 887.440429688 420.296875 797.859375 c 0
 420.296875 708.275390625 347.720703125 635.703125 258.15625 635.703125 c 0
 168.573242188 635.703125 96 708.276367188 96 797.859375 c 0
0 797.859375 m 0
 0 655.317382812 115.614257812 539.703125 258.15625 539.703125 c 0
 400.685546875 539.703125 516.296875 655.318359375 516.296875 797.859375 c 0
 516.296875 940.403320312 400.680664062 1056 258.15625 1056 c 0
 115.618164062 1056 0 940.405273438 0 797.859375 c 0
78469.9951172 -248.794921875 m 2
 78452.4023438 -280.559570312 78475.4804688 -320 78512.015625 -320 c 0
 78530.0927734 -320 78545.8496094 -309.985351562 78554.0361328 -295.205078125 c 2
 79274.0361328 1004.79492188 l 2
 79291.6289062 1036.55957031 79268.5507812 1076 79232.015625 1076 c 0
 79213.9384766 1076 79198.1816406 1065.98535156 79189.9951172 1051.20507812 c 2
 78469.9951172 -248.794921875 l 2
39848.015625 568 m 1
 39830.015625 550 l 1
 39812.015625 568 l 1
 39830.015625 586 l 1
 39848.015625 568 l 1
39752.015625 568 m 0
 39752.015625 524.953125 39786.96875 490 39830.015625 490 c 0
 39873.0419922 490 39908.015625 524.931640625 39908.015625 568 c 0
 39908.015625 611.048828125 39873.0644531 646 39830.015625 646 c 0
 39786.9472656 646 39752.015625 611.026367188 39752.015625 568 c 0
39800.0078125 567.997070312 m 0
 39800.0078125 584.56640625 39813.4394531 597.997070312 39830.0078125 597.997070312 c 0
 39846.5761719 597.997070312 39860.0078125 584.56640625 39860.0078125 567.997070312 c 0
 39860.0078125 551.428710938 39846.5761719 537.997070312 39830.0078125 537.997070312 c 0
 39813.4394531 537.997070312 39800.0078125 551.428710938 39800.0078125 567.997070312 c 0
59392.015625 68 m 2
 59392.015625 41.5078125 59413.5234375 20 59440.015625 20 c 0
 59466.5078125 20 59488.015625 41.5078125 59488.015625 68 c 2
 59488.015625 988 l 2
 59488.015625 1014.4921875 59466.5078125 1036 59440.015625 1036 c 0
 59413.5234375 1036 59392.015625 1014.4921875 59392.015625 988 c 2
 59392.015625 68 l 2
59360.015625 96 m 2
 59333.5234375 96 59312.015625 74.4921875 59312.015625 48 c 0
 59312.015625 21.5078125 59333.5234375 0 59360.015625 0 c 2
 60080.015625 0 l 2
 60106.5078125 0 60128.015625 21.5078125 60128.015625 48 c 2
 60128.015625 288 l 2
 60128.015625 314.4921875 60106.5078125 336 60080.015625 336 c 0
 60053.5234375 336 60032.015625 314.4921875 60032.015625 288 c 2
 60032.015625 96 l 1
 59360.015625 96 l 2
60012.015625 960 m 1
 60012.015625 776 l 2
 60012.015625 749.5078125 60033.5234375 728 60060.015625 728 c 0
 60086.5078125 728 60108.015625 749.5078125 60108.015625 776 c 2
 60108.015625 1008 l 2
 60108.015625 1034.4921875 60086.5078125 1056 60060.015625 1056 c 2
 59360.015625 1056 l 2
 59333.5234375 1056 59312.015625 1034.4921875 59312.015625 1008 c 0
 59312.015625 981.5078125 59333.5234375 960 59360.015625 960 c 2
 60012.015625 960 l 1
59460.015625 596 m 2
 59433.5234375 596 59412.015625 574.4921875 59412.015625 548 c 0
 59412.015625 521.5078125 59433.5234375 500 59460.015625 500 c 2
 59780.015625 500 l 2
 59806.5078125 500 59828.015625 521.5078125 59828.015625 548 c 0
 59828.015625 574.4921875 59806.5078125 596 59780.015625 596 c 2
 59460.015625 596 l 2
59828.015625 668 m 2
 59828.015625 694.4921875 59806.5078125 716 59780.015625 716 c 0
 59753.5234375 716 59732.015625 694.4921875 59732.015625 668 c 2
 59732.015625 408 l 2
 59732.015625 381.5078125 59753.5234375 360 59780.015625 360 c 0
 59806.5078125 360 59828.015625 381.5078125 59828.015625 408 c 2
 59828.015625 668 l 2
72116.015625 960 m 1
 72116.015625 788 l 2
 72116.015625 761.5078125 72137.5234375 740 72164.015625 740 c 0
 72190.5078125 740 72212.015625 761.5078125 72212.015625 788 c 2
 72212.015625 1008 l 2
 72212.015625 1034.4921875 72190.5078125 1056 72164.015625 1056 c 2
 71456.015625 1056 l 2
 71429.5234375 1056 71408.015625 1034.4921875 71408.015625 1008 c 0
 71408.015625 981.5078125 71429.5234375 960 71456.015625 960 c 2
 72116.015625 960 l 1
71604.015625 1008 m 2
 71604.015625 1034.4921875 71582.5078125 1056 71556.015625 1056 c 0
 71529.5234375 1056 71508.015625 1034.4921875 71508.015625 1008 c 2
 71508.015625 48 l 2
 71508.015625 21.5078125 71529.5234375 0 71556.015625 0 c 0
 71582.5078125 0 71604.015625 21.5078125 71604.015625 48 c 2
 71604.015625 1008 l 2
71456.015625 96 m 2
 71429.5234375 96 71408.015625 74.4921875 71408.015625 48 c 0
 71408.015625 21.5078125 71429.5234375 0 71456.015625 0 c 2
 71656.015625 0 l 2
 71682.5078125 0 71704.015625 21.5078125 71704.015625 48 c 0
 71704.015625 74.4921875 71682.5078125 96 71656.015625 96 c 2
 71456.015625 96 l 2
71576.015625 596 m 2
 71549.5234375 596 71528.015625 574.4921875 71528.015625 548 c 0
 71528.015625 521.5078125 71549.5234375 500 71576.015625 500 c 2
 71876.015625 500 l 2
 71902.5078125 500 71924.015625 521.5078125 71924.015625 548 c 0
 71924.015625 574.4921875 71902.5078125 596 71876.015625 596 c 2
 71576.015625 596 l 2
71936.015625 668 m 2
 71936.015625 694.4921875 71914.5078125 716 71888.015625 716 c 0
 71861.5234375 716 71840.015625 694.4921875 71840.015625 668 c 2
 71840.015625 408 l 2
 71840.015625 381.5078125 71861.5234375 360 71888.015625 360 c 0
 71914.5078125 360 71936.015625 381.5078125 71936.015625 408 c 2
 71936.015625 668 l 2
37136.015625 48 m 2
 37136.015625 21.5078125 37157.5234375 0 37184.015625 0 c 0
 37210.5078125 0 37232.015625 21.5078125 37232.015625 48 c 2
 37232.015625 288 l 2
 37232.015625 314.4921875 37210.5078125 336 37184.015625 336 c 0
 37157.5234375 336 37136.015625 314.4921875 37136.015625 288 c 2
 37136.015625 48 l 2
37816.015625 828 m 2
 37816.015625 801.5078125 37837.5234375 780 37864.015625 780 c 0
 37890.5078125 780 37912.015625 801.5078125 37912.015625 828 c 2
 37912.015625 1008 l 2
 37912.015625 1034.4921875 37890.5078125 1056 37864.015625 1056 c 0
 37837.5234375 1056 37816.015625 1034.4921875 37816.015625 1008 c 2
 37816.015625 828 l 2
37828.609375 285.703125 m 0
 37828.609375 146.22265625 37710.1240234 76 37568.609375 76 c 0
 37411.890625 76 37332.5878906 176.788085938 37221.7578125 317.645507812 c 0
 37193.6699219 353.34375 37136.015625 333.221679688 37136.015625 288 c 0
 37136.015625 271.408203125 37141.9404297 263.870117188 37153.7109375 248.895507812 c 0
 37254.2685547 120.9609375 37362.7001953 -20 37568.609375 -20 c 0
 37786.9814453 -20 37924.609375 111.813476562 37924.609375 285.703125 c 0
 37924.609375 344.819335938 37916.4208984 421.751953125 37842.6376953 490.918945312 c 0
 37788.6884766 541.493164062 37706.15625 583.474609375 37578.1689453 620.963867188 c 0
 37354.8066406 686.377929688 37316.7714844 739.759765625 37303.1044922 776.794921875 c 0
 37296.1044922 795.766601562 37293.9228516 817.76171875 37294.4736328 843.828125 c 0
 37295.3408203 884.897460938 37314.6542969 933.521484375 37389.578125 961.504882812 c 0
 37488.6142578 998.495117188 37708.3378906 996.30859375 37822.7050781 803.55859375 c 0
 37831.0703125 789.458984375 37846.4472656 780 37864.015625 780 c 0
 37901.1611328 780 37924.1826172 820.663085938 37905.3261719 852.44140625 c 0
 37768.9052734 1082.36230469 37502.5537109 1106.19726562 37356.0292969 1051.47070312 c 0
 37316.7412109 1036.796875 37281.6708984 1015.16601562 37254.3330078 985.754882812 c 0
 37219.9765625 948.791992188 37199.6474609 900.446289062 37198.4951172 845.890625 c 0
 37196.9970703 774.96484375 37210.9550781 702.93359375 37292.5634766 641.129882812 c 0
 37348.4755859 598.787109375 37429.4707031 564.459960938 37551.1748047 528.817382812 c 0
 37762.2265625 466.997070312 37802.2851562 400.521484375 37816.4257812 364.9296875 c 0
 37825.6953125 341.59765625 37828.609375 315.896484375 37828.609375 285.703125 c 0
53544.015625 248 m 2
 53544.015625 74.4287109375 53652.4707031 -20 53792.015625 -20 c 0
 53835.1132812 -20 53918.4775391 -4.70703125 53975.8261719 101.926757812 c 0
 53991.1611328 130.439453125 53998.1757812 152.567382812 53998.1757812 154.8046875 c 0
 53998.1757812 158.998046875 54000.015625 163.424804688 54000.015625 168 c 0
 54000.015625 194.4921875 53978.5078125 216 53952.015625 216 c 0
 53930.0996094 216 53911.59375 201.279296875 53905.8554688 181.1953125 c 2
 53905.8554688 181.1953125 53891.3876953 132.053710938 53855.2460938 100.428710938 c 0
 53838.3544922 85.6494140625 53818.84375 76 53792.015625 76 c 0
 53737.3837891 76 53698.9902344 95.1435546875 53674.0712891 127.750976562 c 0
 53653.7412109 154.35546875 53640.015625 193.868164062 53640.015625 248 c 2
 53640.015625 1008 l 2
 53640.015625 1034.4921875 53618.5078125 1056 53592.015625 1056 c 0
 53565.5234375 1056 53544.015625 1034.4921875 53544.015625 1008 c 2
 53544.015625 248 l 2
53392.015625 756 m 2
 53365.5234375 756 53344.015625 734.4921875 53344.015625 708 c 0
 53344.015625 681.5078125 53365.5234375 660 53392.015625 660 c 2
 53792.015625 660 l 2
 53818.5078125 660 53840.015625 681.5078125 53840.015625 708 c 0
 53840.015625 734.4921875 53818.5078125 756 53792.015625 756 c 2
 53392.015625 756 l 2
51404.015625 378 m 0
 51404.015625 549.828125 51526.2314453 680 51666.015625 680 c 0
 51805.7841797 680 51928.015625 549.825195312 51928.015625 378 c 0
 51928.015625 206.189453125 51805.7822266 76 51666.015625 76 c 0
 51526.2333984 76 51404.015625 206.1875 51404.015625 378 c 0
51308.015625 378 m 0
 51308.015625 163.21875 51463.3603516 -20 51666.015625 -20 c 0
 51868.6552734 -20 52024.015625 163.216796875 52024.015625 378 c 0
 52024.015625 592.799804688 51868.6533203 776 51666.015625 776 c 0
 51463.3623047 776 51308.015625 592.796875 51308.015625 378 c 0
51816.015625 1056 m 2
 51789.5234375 1056 51768.015625 1034.4921875 51768.015625 1008 c 0
 51768.015625 981.5078125 51789.5234375 960 51816.015625 960 c 2
 51928.015625 960 l 1
 51928.015625 48 l 2
 51928.015625 21.5078125 51949.5234375 0 51976.015625 0 c 2
 52076.015625 0 l 2
 52102.5078125 0 52124.015625 21.5078125 52124.015625 48 c 0
 52124.015625 74.4921875 52102.5078125 96 52076.015625 96 c 2
 52024.015625 96 l 1
 52024.015625 1008 l 2
 52024.015625 1034.4921875 52002.5078125 1056 51976.015625 1056 c 2
 51816.015625 1056 l 2
24268.015625 378 m 0
 24268.015625 549.8125 24390.2333984 680 24530.015625 680 c 0
 24669.7822266 680 24792.015625 549.810546875 24792.015625 378 c 0
 24792.015625 206.189453125 24669.7822266 76 24530.015625 76 c 0
 24390.2333984 76 24268.015625 206.1875 24268.015625 378 c 0
24172.015625 378 m 0
 24172.015625 163.21875 24327.3603516 -20 24530.015625 -20 c 0
 24732.6552734 -20 24888.015625 163.216796875 24888.015625 378 c 0
 24888.015625 592.783203125 24732.6552734 776 24530.015625 776 c 0
 24327.3603516 776 24172.015625 592.78125 24172.015625 378 c 0
24172.015625 48 m 2
 24172.015625 21.5078125 24193.5234375 0 24220.015625 0 c 0
 24246.5078125 0 24268.015625 21.5078125 24268.015625 48 c 2
 24268.015625 1008 l 2
 24268.015625 1034.4921875 24246.5078125 1056 24220.015625 1056 c 2
 24100.015625 1056 l 2
 24073.5234375 1056 24052.015625 1034.4921875 24052.015625 1008 c 0
 24052.015625 981.5078125 24073.5234375 960 24100.015625 960 c 2
 24172.015625 960 l 1
 24172.015625 48 l 2
36156.015625 1056 m 2
 36129.5234375 1056 36108.015625 1034.4921875 36108.015625 1008 c 0
 36108.015625 981.5078125 36129.5234375 960 36156.015625 960 c 2
 36356.015625 960 l 2
 36382.5078125 960 36404.015625 981.5078125 36404.015625 1008 c 0
 36404.015625 1034.4921875 36382.5078125 1056 36356.015625 1056 c 2
 36156.015625 1056 l 2
36156.015625 96 m 2
 36129.5234375 96 36108.015625 74.4921875 36108.015625 48 c 0
 36108.015625 21.5078125 36129.5234375 0 36156.015625 0 c 2
 36356.015625 0 l 2
 36382.5078125 0 36404.015625 21.5078125 36404.015625 48 c 0
 36404.015625 74.4921875 36382.5078125 96 36356.015625 96 c 2
 36156.015625 96 l 2
36208.015625 68 m 2
 36208.015625 41.5078125 36229.5234375 20 36256.015625 20 c 0
 36282.5078125 20 36304.015625 41.5078125 36304.015625 68 c 2
 36304.015625 1008 l 2
 36304.015625 1034.4921875 36282.5078125 1056 36256.015625 1056 c 0
 36229.5234375 1056 36208.015625 1034.4921875 36208.015625 1008 c 2
 36208.015625 68 l 2
36696.015625 1056 m 2
 36669.5234375 1056 36648.015625 1034.4921875 36648.015625 1008 c 0
 36648.015625 981.5078125 36669.5234375 960 36696.015625 960 c 2
 36896.015625 960 l 2
 36922.5078125 960 36944.015625 981.5078125 36944.015625 1008 c 0
 36944.015625 1034.4921875 36922.5078125 1056 36896.015625 1056 c 2
 36696.015625 1056 l 2
36240.9609375 420.776367188 m 2
 36212.3740234 390.217773438 36234.2607422 340 36276.015625 340 c 0
 36289.8408203 340 36302.3085938 345.857421875 36311.0703125 355.223632812 c 2
 36891.0703125 975.223632812 l 2
 36919.6572266 1005.78222656 36897.7705078 1056 36856.015625 1056 c 0
 36842.1904297 1056 36829.7226562 1050.14257812 36820.9609375 1040.77636719 c 2
 36240.9609375 420.776367188 l 2
36716.015625 96 m 2
 36689.5234375 96 36668.015625 74.4921875 36668.015625 48 c 0
 36668.015625 21.5078125 36689.5234375 0 36716.015625 0 c 2
 36916.015625 0 l 2
 36942.5078125 0 36964.015625 21.5078125 36964.015625 48 c 0
 36964.015625 74.4921875 36942.5078125 96 36916.015625 96 c 2
 36716.015625 96 l 2
36836.015625 20 m 0
 36873.1503906 20 36896.1728516 60.6396484375 36877.3398438 92.4189453125 c 2
 36557.3398438 632.418945312 l 2
 36548.9775391 646.530273438 36533.59375 656 36516.015625 656 c 0
 36478.8808594 656 36455.8583984 615.360351562 36474.6914062 583.581054688 c 2
 36794.6914062 43.5810546875 l 2
 36803.0537109 29.4697265625 36818.4375 20 36836.015625 20 c 0
27852.015625 192 m 2
 27852.015625 218.4921875 27830.5078125 240 27804.015625 240 c 0
 27777.5234375 240 27756.015625 218.4921875 27756.015625 192 c 2
 27756.015625 96 l 1
 27222.375 96 l 1
 27817.4355469 673.55859375 l 2
 27848.2724609 703.48828125 27826.8476562 756 27784.015625 756 c 2
 27144.015625 756 l 2
 27117.5234375 756 27096.015625 734.4921875 27096.015625 708 c 2
 27096.015625 608 l 2
 27096.015625 581.5078125 27117.5234375 560 27144.015625 560 c 0
 27170.5078125 560 27192.015625 581.5078125 27192.015625 608 c 2
 27192.015625 660 l 1
 27665.65625 660 l 1
 27070.5957031 82.44140625 l 2
 27039.7587891 52.51171875 27061.1835938 0 27104.015625 0 c 2
 27804.015625 0 l 2
 27830.5078125 0 27852.015625 21.5078125 27852.015625 48 c 2
 27852.015625 192 l 2
77484.015625 756 m 2
 77457.5234375 756 77436.015625 734.4921875 77436.015625 708 c 0
 77436.015625 681.5078125 77457.5234375 660 77484.015625 660 c 2
 77744.015625 660 l 2
 77770.5078125 660 77792.015625 681.5078125 77792.015625 708 c 0
 77792.015625 734.4921875 77770.5078125 756 77744.015625 756 c 2
 77484.015625 756 l 2
77984.015625 756 m 2
 77957.5234375 756 77936.015625 734.4921875 77936.015625 708 c 0
 77936.015625 681.5078125 77957.5234375 660 77984.015625 660 c 2
 78244.015625 660 l 2
 78270.5078125 660 78292.015625 681.5078125 78292.015625 708 c 0
 78292.015625 734.4921875 78270.5078125 756 78244.015625 756 c 2
 77984.015625 756 l 2
77604.015625 756 m 0
 77570.1347656 756 77547.015625 721.7109375 77559.3369141 690.43359375 c 2
 77819.3369141 30.43359375 l 2
 77835.0136719 -9.3603515625 77891.5058594 -10.1240234375 77908.2255859 29.287109375 c 2
 78188.2255859 689.287109375 l 2
 78201.5576172 720.711914062 78178.421875 756 78144.015625 756 c 0
 78124.1611328 756 78107.1054688 743.918945312 78099.8056641 726.712890625 c 2
 77865.6621094 174.802734375 l 1
 77648.6943359 725.56640625 l 2
 77641.6767578 743.379882812 77624.3085938 756 77604.015625 756 c 0
73452.015625 1056 m 2
 73425.5234375 1056 73404.015625 1034.4921875 73404.015625 1008 c 0
 73404.015625 981.5078125 73425.5234375 960 73452.015625 960 c 2
 73672.015625 960 l 2
 73698.5078125 960 73720.015625 981.5078125 73720.015625 1008 c 0
 73720.015625 1034.4921875 73698.5078125 1056 73672.015625 1056 c 2
 73452.015625 1056 l 2
73992.015625 1056 m 2
 73965.5234375 1056 73944.015625 1034.4921875 73944.015625 1008 c 0
 73944.015625 981.5078125 73965.5234375 960 73992.015625 960 c 2
 74212.015625 960 l 2
 74238.5078125 960 74260.015625 981.5078125 74260.015625 1008 c 0
 74260.015625 1034.4921875 74238.5078125 1056 74212.015625 1056 c 2
 73992.015625 1056 l 2
73532.015625 1056 m 0
 73499.9882812 1056 73477.0087891 1025.13183594 73485.9277344 994.553710938 c 2
 73765.9277344 34.5537109375 l 2
 73771.7480469 14.59765625 73790.1904297 0 73812.015625 0 c 2
 73852.015625 0 l 2
 73874.1621094 0 73892.8251953 15.0302734375 73898.3525391 35.4384765625 c 2
 74158.3525391 995.438476562 l 2
 74166.5849609 1025.8359375 74143.6494141 1056 74112.015625 1056 c 0
 74089.8691406 1056 74071.2060547 1040.96972656 74065.6787109 1020.56152344 c 2
 73831.0449219 154.219726562 l 1
 73578.1035156 1021.44628906 l 2
 73572.2832031 1041.40234375 73553.8408203 1056 73532.015625 1056 c 0
61736.328125 -19.8125 m 0
 61922.3955078 -19.8125 62074.015625 130.901367188 62074.015625 318 c 0
 62074.015625 344.4921875 62052.5078125 366 62026.015625 366 c 0
 61999.5234375 366 61978.015625 344.4921875 61978.015625 318 c 0
 61978.015625 183.65234375 61869.2138672 76.1875 61736.328125 76.1875 c 0
 61602.3232422 76.1875 61494.015625 183.942382812 61494.015625 318 c 0
 61494.015625 344.4921875 61472.5078125 366 61446.015625 366 c 0
 61419.5234375 366 61398.015625 344.4921875 61398.015625 318 c 0
 61398.015625 131.548828125 61548.7519531 -19.8125 61736.328125 -19.8125 c 0
61978.015625 318 m 2
 61978.015625 291.5078125 61999.5234375 270 62026.015625 270 c 0
 62052.5078125 270 62074.015625 291.5078125 62074.015625 318 c 2
 62074.015625 1008 l 2
 62074.015625 1034.4921875 62052.5078125 1056 62026.015625 1056 c 0
 61999.5234375 1056 61978.015625 1034.4921875 61978.015625 1008 c 2
 61978.015625 318 l 2
61398.015625 318 m 2
 61398.015625 291.5078125 61419.5234375 270 61446.015625 270 c 0
 61472.5078125 270 61494.015625 291.5078125 61494.015625 318 c 2
 61494.015625 1008 l 2
 61494.015625 1034.4921875 61472.5078125 1056 61446.015625 1056 c 0
 61419.5234375 1056 61398.015625 1034.4921875 61398.015625 1008 c 2
 61398.015625 318 l 2
61336.015625 1056 m 2
 61309.5234375 1056 61288.015625 1034.4921875 61288.015625 1008 c 0
 61288.015625 981.5078125 61309.5234375 960 61336.015625 960 c 2
 61556.015625 960 l 2
 61582.5078125 960 61604.015625 981.5078125 61604.015625 1008 c 0
 61604.015625 1034.4921875 61582.5078125 1056 61556.015625 1056 c 2
 61336.015625 1056 l 2
61916.015625 1056 m 2
 61889.5234375 1056 61868.015625 1034.4921875 61868.015625 1008 c 0
 61868.015625 981.5078125 61889.5234375 960 61916.015625 960 c 2
 62136.015625 960 l 2
 62162.5078125 960 62184.015625 981.5078125 62184.015625 1008 c 0
 62184.015625 1034.4921875 62162.5078125 1056 62136.015625 1056 c 2
 61916.015625 1056 l 2
61000.015625 68 m 2
 61000.015625 41.5078125 61021.5234375 20 61048.015625 20 c 0
 61074.5078125 20 61096.015625 41.5078125 61096.015625 68 c 2
 61096.015625 988 l 2
 61096.015625 1014.4921875 61074.5078125 1036 61048.015625 1036 c 0
 61021.5234375 1036 61000.015625 1014.4921875 61000.015625 988 c 2
 61000.015625 68 l 2
60360.015625 68 m 2
 60360.015625 41.5078125 60381.5234375 20 60408.015625 20 c 0
 60434.5078125 20 60456.015625 41.5078125 60456.015625 68 c 2
 60456.015625 988 l 2
 60456.015625 1014.4921875 60434.5078125 1036 60408.015625 1036 c 0
 60381.5234375 1036 60360.015625 1014.4921875 60360.015625 988 c 2
 60360.015625 68 l 2
60328.015625 96 m 2
 60301.5234375 96 60280.015625 74.4921875 60280.015625 48 c 0
 60280.015625 21.5078125 60301.5234375 0 60328.015625 0 c 2
 60488.015625 0 l 2
 60514.5078125 0 60536.015625 21.5078125 60536.015625 48 c 0
 60536.015625 74.4921875 60514.5078125 96 60488.015625 96 c 2
 60328.015625 96 l 2
60968.015625 96 m 2
 60941.5234375 96 60920.015625 74.4921875 60920.015625 48 c 0
 60920.015625 21.5078125 60941.5234375 0 60968.015625 0 c 2
 61128.015625 0 l 2
 61154.5078125 0 61176.015625 21.5078125 61176.015625 48 c 0
 61176.015625 74.4921875 61154.5078125 96 61128.015625 96 c 2
 60968.015625 96 l 2
60328.015625 1056 m 2
 60301.5234375 1056 60280.015625 1034.4921875 60280.015625 1008 c 0
 60280.015625 981.5078125 60301.5234375 960 60328.015625 960 c 2
 60469.7626953 960 l 1
 60681.2265625 37.25 l 2
 60686.1132812 15.9267578125 60705.21875 0 60728.015625 0 c 0
 60750.8125 0 60769.9179688 15.9267578125 60774.8046875 37.25 c 2
 60986.2685547 960 l 1
 61128.015625 960 l 2
 61154.5078125 960 61176.015625 981.5078125 61176.015625 1008 c 0
 61176.015625 1034.4921875 61154.5078125 1056 61128.015625 1056 c 2
 60948.015625 1056 l 2
 60925.21875 1056 60906.1132812 1040.07324219 60901.2265625 1018.75 c 2
 60728.015625 262.921875 l 1
 60554.8046875 1018.75 l 2
 60549.9179688 1040.07324219 60530.8125 1056 60508.015625 1056 c 2
 60328.015625 1056 l 2
73152.015625 1008 m 2
 73152.015625 1034.4921875 73130.5078125 1056 73104.015625 1056 c 0
 73077.5234375 1056 73056.015625 1034.4921875 73056.015625 1008 c 2
 73056.015625 225.548828125 l 1
 72585.5078125 1032.13476562 l 2
 72577.1845703 1046.40332031 72561.7119141 1056 72544.015625 1056 c 2
 72444.015625 1056 l 2
 72417.5234375 1056 72396.015625 1034.4921875 72396.015625 1008 c 0
 72396.015625 981.5078125 72417.5234375 960 72444.015625 960 c 2
 72516.4453125 960 l 1
 73062.5234375 23.865234375 l 2
 73070.8466797 9.5966796875 73086.3193359 0 73104.015625 0 c 0
 73130.5078125 0 73152.015625 21.5078125 73152.015625 48 c 2
 73152.015625 1008 l 2
72444.015625 96 m 2
 72417.5234375 96 72396.015625 74.4921875 72396.015625 48 c 0
 72396.015625 21.5078125 72417.5234375 0 72444.015625 0 c 2
 72644.015625 0 l 2
 72670.5078125 0 72692.015625 21.5078125 72692.015625 48 c 0
 72692.015625 74.4921875 72670.5078125 96 72644.015625 96 c 2
 72444.015625 96 l 2
73004.015625 1056 m 2
 72977.5234375 1056 72956.015625 1034.4921875 72956.015625 1008 c 0
 72956.015625 981.5078125 72977.5234375 960 73004.015625 960 c 2
 73204.015625 960 l 2
 73230.5078125 960 73252.015625 981.5078125 73252.015625 1008 c 0
 73252.015625 1034.4921875 73230.5078125 1056 73204.015625 1056 c 2
 73004.015625 1056 l 2
72496.015625 68 m 2
 72496.015625 41.5078125 72517.5234375 20 72544.015625 20 c 0
 72570.5078125 20 72592.015625 41.5078125 72592.015625 68 c 2
 72592.015625 1008 l 2
 72592.015625 1034.4921875 72570.5078125 1056 72544.015625 1056 c 0
 72517.5234375 1056 72496.015625 1034.4921875 72496.015625 1008 c 2
 72496.015625 68 l 2
85848.015625 1056 m 2
 85821.5234375 1056 85800.015625 1034.4921875 85800.015625 1008 c 0
 85800.015625 981.5078125 85821.5234375 960 85848.015625 960 c 2
 86008.015625 960 l 2
 86034.5078125 960 86056.015625 981.5078125 86056.015625 1008 c 0
 86056.015625 1034.4921875 86034.5078125 1056 86008.015625 1056 c 2
 85848.015625 1056 l 2
86316.015625 960 m 2
 86342.5078125 960 86364.015625 981.5078125 86364.015625 1008 c 0
 86364.015625 1034.4921875 86342.5078125 1056 86316.015625 1056 c 2
 86192.015625 1056 l 2
 86165.5234375 1056 86144.015625 1034.4921875 86144.015625 1008 c 0
 86144.015625 981.5078125 86165.5234375 960 86192.015625 960 c 2
 86316.015625 960 l 2
85664.015625 960 m 2
 85690.5078125 960 85712.015625 981.5078125 85712.015625 1008 c 0
 85712.015625 1034.4921875 85690.5078125 1056 85664.015625 1056 c 2
 85540.015625 1056 l 2
 85513.5234375 1056 85492.015625 1034.4921875 85492.015625 1008 c 0
 85492.015625 981.5078125 85513.5234375 960 85540.015625 960 c 2
 85664.015625 960 l 2
64696.015625 96 m 2
 64669.5234375 96 64648.015625 74.4921875 64648.015625 48 c 0
 64648.015625 21.5078125 64669.5234375 0 64696.015625 0 c 2
 64824.015625 0 l 2
 64850.5078125 0 64872.015625 21.5078125 64872.015625 48 c 0
 64872.015625 74.4921875 64850.5078125 96 64824.015625 96 c 2
 64696.015625 96 l 2
85568.015625 1056 m 0
 85538.3974609 1056 85515.7890625 1029.34570312 85520.6699219 1000.06347656 c 2
 85680.6699219 40.0634765625 l 2
 85684.4570312 17.3427734375 85704.2265625 0 85728.015625 0 c 2
 85748.015625 0 l 2
 85771.7480469 0 85791.4804688 17.259765625 85795.3339844 39.9013671875 c 2
 85955.3339844 979.901367188 l 2
 85960.3251953 1009.22753906 85937.7041016 1036 85908.015625 1036 c 0
 85884.2832031 1036 85864.5507812 1018.74023438 85860.6972656 996.098632812 c 2
 85738.4082031 277.653320312 l 1
 85615.3613281 1015.93652344 l 2
 85611.5742188 1038.65722656 85591.8046875 1056 85568.015625 1056 c 0
85948.015625 1036 m 0
 85918.3271484 1036 85895.7060547 1009.2265625 85900.6972656 979.901367188 c 2
 86060.6972656 39.9013671875 l 2
 86064.5507812 17.259765625 86084.2832031 0 86108.015625 0 c 2
 86128.015625 0 l 2
 86151.8046875 0 86171.5742188 17.3427734375 86175.3613281 40.0634765625 c 2
 86335.3613281 1000.06347656 l 2
 86340.2412109 1029.34472656 86317.6347656 1056 86288.015625 1056 c 0
 86264.2265625 1056 86244.4570312 1038.65722656 86240.6699219 1015.93652344 c 2
 86117.6230469 277.653320312 l 1
 85995.3339844 996.098632812 l 2
 85991.4804688 1018.74023438 85971.7480469 1036 85948.015625 1036 c 0
30608.015625 -124 m 0
 30600.9150391 -124 30573.15625 -128.65234375 30531.8662109 -128.65234375 c 0
 30358.0126953 -128.65234375 30276.1298828 -42.7412109375 30231.8798828 35.890625 c 0
 30182.5986328 123.461914062 30156.015625 249.125976562 30156.015625 408 c 0
 30156.015625 644.006835938 30199.0761719 866.252929688 30343.9023438 946.327148438 c 0
 30383.3613281 968.143554688 30430.5976562 980 30488.015625 980 c 0
 30624.3691406 980 30698.046875 912.145507812 30740.828125 829.45703125 c 0
 30780.5537109 752.674804688 30800.015625 647.87890625 30800.015625 530.015625 c 0
 30800.015625 413.069335938 30790.2890625 337.153320312 30776.6123047 293.0703125 c 0
 30765.515625 257.302734375 30753.421875 245.844726562 30747.2636719 242.076171875 c 0
 30718.9589844 224.755859375 30676.015625 267.440429688 30676.015625 303.8125 c 0
 30676.015625 330.3046875 30654.5078125 351.8125 30628.015625 351.8125 c 0
 30601.5234375 351.8125 30580.015625 330.3046875 30580.015625 303.8125 c 0
 30580.015625 254.004882812 30604.3076172 211.317382812 30635.7587891 182.404296875 c 0
 30660.8759766 159.3125 30693.1953125 142.0625 30730.265625 142.0625 c 0
 30783.4931641 142.0625 30838.7158203 169.197265625 30868.3212891 264.625 c 0
 30886.9023438 324.516601562 30896.015625 407.998046875 30896.015625 530.015625 c 0
 30896.015625 608.674804688 30892.8466797 915.196289062 30674.9189453 1032.30761719 c 0
 30621.6787109 1060.91894531 30559.0556641 1076 30488.015625 1076 c 0
 30364.546875 1076 30222.5517578 1030.16601562 30137.5253906 851.762695312 c 0
 30083.6630859 738.748046875 30060.015625 589.911132812 30060.015625 408 c 0
 30060.015625 272.381835938 30074.1005859 -60.6416015625 30325.4570312 -181.419921875 c 0
 30398.5126953 -216.522460938 30492.6474609 -233.908203125 30613.6738281 -219.668945312 c 0
 30637.5029297 -216.866210938 30656.015625 -196.578125 30656.015625 -172 c 0
 30656.015625 -145.5078125 30634.5078125 -124 30608.015625 -124 c 0
30627.3125 266.5 m 0
 30653.8046875 266.5 30675.3125 288.0078125 30675.3125 314.5 c 2
 30674.625 643.883789062 l 2
 30674.5693359 670.328125 30653.0830078 691.78125 30626.625 691.78125 c 0
 30600.1328125 691.78125 30578.625 670.2734375 30578.625 643.78125 c 2
 30579.3125 314.397460938 l 2
 30579.3125 287.953125 30600.8544922 266.5 30627.3125 266.5 c 0
30487.3125 826.671875 m 0
 30371.9189453 826.671875 30299.3125 758.146484375 30299.3125 658.671875 c 0
 30299.3125 632.1796875 30320.8203125 610.671875 30347.3125 610.671875 c 0
 30373.8046875 610.671875 30395.3125 632.1796875 30395.3125 658.671875 c 0
 30395.3125 694.275390625 30412.2285156 708.219726562 30422.2480469 714.77734375 c 0
 30436.4072266 724.045898438 30458.7714844 730.671875 30487.3125 730.671875 c 0
 30521.296875 730.671875 30578.625 719.423828125 30578.625 643.53125 c 0
 30578.625 592.0234375 30534.7675781 559.614257812 30450.0439453 534.20703125 c 0
 30400.4423828 519.340820312 30279.3125 477.013671875 30279.3125 338.671875 c 0
 30279.3125 222.888671875 30346.9462891 138.984375 30447.3125 138.984375 c 0
 30553.5751953 138.984375 30675.3125 231.62890625 30675.3125 358.671875 c 0
 30675.3125 385.1640625 30653.8046875 406.671875 30627.3125 406.671875 c 0
 30600.8203125 406.671875 30579.3125 385.1640625 30579.3125 358.671875 c 0
 30579.3125 286.36328125 30501.578125 234.984375 30447.3125 234.984375 c 0
 30378.7011719 234.984375 30375.3125 321.567382812 30375.3125 338.671875 c 0
 30375.3125 376.094726562 30387.7275391 415.291992188 30477.6123047 442.23046875 c 0
 30563.8886719 468.104492188 30674.625 520.0078125 30674.625 643.53125 c 0
 30674.625 750.6640625 30600.7109375 826.671875 30487.3125 826.671875 c 0
76524.015625 96 m 2
 76497.5234375 96 76476.015625 74.4921875 76476.015625 48 c 0
 76476.015625 21.5078125 76497.5234375 0 76524.015625 0 c 2
 76728.015625 0 l 2
 76754.5078125 0 76776.015625 21.5078125 76776.015625 48 c 0
 76776.015625 74.4921875 76754.5078125 96 76728.015625 96 c 2
 76524.015625 96 l 2
76984.015625 96 m 2
 76957.5234375 96 76936.015625 74.4921875 76936.015625 48 c 0
 76936.015625 21.5078125 76957.5234375 0 76984.015625 0 c 2
 77208.015625 0 l 2
 77234.5078125 0 77256.015625 21.5078125 77256.015625 48 c 0
 77256.015625 74.4921875 77234.5078125 96 77208.015625 96 c 2
 76984.015625 96 l 2
76583.015625 51.1875 m 2
 76583.015625 24.6953125 76604.5234375 3.1875 76631.015625 3.1875 c 0
 76657.5078125 3.1875 76679.015625 24.6953125 76679.015625 51.1875 c 2
 76679.015625 708 l 2
 76679.015625 734.4921875 76657.5078125 756 76631.015625 756 c 2
 76531.015625 756 l 2
 76504.5234375 756 76483.015625 734.4921875 76483.015625 708 c 0
 76483.015625 681.5078125 76504.5234375 660 76531.015625 660 c 2
 76583.015625 660 l 1
 76583.015625 51.1875 l 2
76907.109375 680 m 0
 77000.3398438 680 77048.015625 598.573242188 77048.015625 523.78125 c 2
 77048.015625 48 l 2
 77048.015625 21.5078125 77069.5234375 0 77096.015625 0 c 0
 77122.5078125 0 77144.015625 21.5078125 77144.015625 48 c 2
 77144.015625 523.78125 l 2
 77144.015625 660.2421875 77045.7490234 776 76907.109375 776 c 0
 76848.3730469 776 76798.7490234 762.047851562 76754.5429688 734.330078125 c 0
 76699.7441406 699.969726562 76655.234375 649.301757812 76595.3134766 582.6484375 c 0
 76567.6445312 551.87109375 76589.6972656 502.578125 76631.015625 502.578125 c 0
 76645.1845703 502.578125 76657.9287109 508.73046875 76666.7177734 518.5078125 c 0
 76780.3974609 644.9609375 76817.8632812 680 76907.109375 680 c 0
64808.015625 592.5625 m 2
 64808.015625 701.41796875 64744.7841797 776 64650 776 c 0
 64545.7041016 776 64476.8173828 698.5703125 64411.7431641 601.625976562 c 0
 64390.4658203 569.928710938 64413.3242188 526.921875 64451.625 526.921875 c 0
 64468.2363281 526.921875 64482.8886719 535.37890625 64491.5068359 548.217773438 c 0
 64555.7763672 643.9609375 64600.8583984 680 64650 680 c 0
 64665.703125 680 64690.0595703 677.049804688 64703.7636719 641.688476562 c 0
 64708.9785156 628.232421875 64712.015625 610.970703125 64712.015625 592.5625 c 2
 64712.015625 48 l 2
 64712.015625 21.5078125 64733.5234375 0 64760.015625 0 c 0
 64786.5078125 0 64808.015625 21.5078125 64808.015625 48 c 2
 64808.015625 592.5625 l 2
64403.625 48 m 0
 64403.625 21.5078125 64425.1328125 0 64451.625 0 c 0
 64478.1171875 0 64499.625 21.5078125 64499.625 48 c 0
 64499.625 74.4921875 64478.1171875 96 64451.625 96 c 0
 64425.1328125 96 64403.625 74.4921875 64403.625 48 c 0
64403.625 48 m 2
 64403.625 21.5078125 64425.1328125 0 64451.625 0 c 0
 64478.1171875 0 64499.625 21.5078125 64499.625 48 c 2
 64499.625 708 l 2
 64499.625 734.4921875 64478.1171875 756 64451.625 756 c 2
 64388.015625 756 l 2
 64361.5234375 756 64340.015625 734.4921875 64340.015625 708 c 0
 64340.015625 681.5078125 64361.5234375 660 64388.015625 660 c 2
 64403.625 660 l 1
 64403.625 48 l 2
65440.015625 268 m 2
 65440.015625 113.525390625 65540.3330078 -20 65684.546875 -20 c 0
 65825.4648438 -20 65900.890625 90.396484375 65998.3242188 233.005859375 c 0
 66012.3808594 253.580078125 66016.015625 258.899414062 66016.015625 273.71875 c 0
 66016.015625 320.529296875 65954.9150391 339.57421875 65928.3710938 300.774414062 c 0
 65826.1494141 151.352539062 65774.5996094 76 65684.546875 76 c 0
 65590.4980469 76 65536.015625 174.103515625 65536.015625 268 c 2
 65536.015625 708 l 2
 65536.015625 734.4921875 65514.5078125 756 65488.015625 756 c 2
 65380.015625 756 l 2
 65353.5234375 756 65332.015625 734.4921875 65332.015625 708 c 0
 65332.015625 681.5078125 65353.5234375 660 65380.015625 660 c 2
 65440.015625 660 l 1
 65440.015625 268 l 2
66084.015625 0 m 2
 66110.5078125 0 66132.015625 21.5078125 66132.015625 48 c 0
 66132.015625 74.4921875 66110.5078125 96 66084.015625 96 c 2
 66016.015625 96 l 1
 66016.015625 708 l 2
 66016.015625 734.4921875 65994.5078125 756 65968.015625 756 c 2
 65860.015625 756 l 2
 65833.5234375 756 65812.015625 734.4921875 65812.015625 708 c 0
 65812.015625 681.5078125 65833.5234375 660 65860.015625 660 c 2
 65920.015625 660 l 1
 65920.015625 48 l 2
 65920.015625 21.5078125 65941.5234375 0 65968.015625 0 c 2
 66084.015625 0 l 2
49232.015625 748 m 2
 49232.015625 721.5078125 49253.5234375 700 49280.015625 700 c 0
 49306.5078125 700 49328.015625 721.5078125 49328.015625 748 c 2
 49328.015625 960 l 1
 49952.015625 960 l 1
 49952.015625 748 l 2
 49952.015625 721.5078125 49973.5234375 700 50000.015625 700 c 0
 50026.5078125 700 50048.015625 721.5078125 50048.015625 748 c 2
 50048.015625 1008 l 2
 50048.015625 1034.4921875 50026.5078125 1056 50000.015625 1056 c 2
 49280.015625 1056 l 2
 49253.5234375 1056 49232.015625 1034.4921875 49232.015625 1008 c 2
 49232.015625 748 l 2
49592.015625 68 m 0
 49592.015625 41.5078125 49613.5234375 20 49640.015625 20 c 0
 49666.5078125 20 49688.015625 41.5078125 49688.015625 68 c 0
 49688.015625 94.4921875 49666.5078125 116 49640.015625 116 c 0
 49613.5234375 116 49592.015625 94.4921875 49592.015625 68 c 0
49592.015625 68 m 2
 49592.015625 41.5078125 49613.5234375 20 49640.015625 20 c 0
 49666.5078125 20 49688.015625 41.5078125 49688.015625 68 c 2
 49688.015625 988 l 2
 49688.015625 1014.4921875 49666.5078125 1036 49640.015625 1036 c 0
 49613.5234375 1036 49592.015625 1014.4921875 49592.015625 988 c 2
 49592.015625 68 l 2
49460.015625 96 m 2
 49433.5234375 96 49412.015625 74.4921875 49412.015625 48 c 0
 49412.015625 21.5078125 49433.5234375 0 49460.015625 0 c 2
 49820.015625 0 l 2
 49846.5078125 0 49868.015625 21.5078125 49868.015625 48 c 0
 49868.015625 74.4921875 49846.5078125 96 49820.015625 96 c 2
 49460.015625 96 l 2
49040.015625 268 m 2
 49040.015625 294.4921875 49018.5078125 316 48992.015625 316 c 0
 48965.5234375 316 48944.015625 294.4921875 48944.015625 268 c 2
 48944.015625 96 l 1
 48252.015625 96 l 2
 48225.5234375 96 48204.015625 74.4921875 48204.015625 48 c 0
 48204.015625 21.5078125 48225.5234375 0 48252.015625 0 c 2
 48992.015625 0 l 2
 49018.5078125 0 49040.015625 21.5078125 49040.015625 48 c 2
 49040.015625 268 l 2
48252.015625 1056 m 2
 48225.5234375 1056 48204.015625 1034.4921875 48204.015625 1008 c 0
 48204.015625 981.5078125 48225.5234375 960 48252.015625 960 c 2
 48512.015625 960 l 2
 48538.5078125 960 48560.015625 981.5078125 48560.015625 1008 c 0
 48560.015625 1034.4921875 48538.5078125 1056 48512.015625 1056 c 2
 48252.015625 1056 l 2
48420.015625 988 m 2
 48420.015625 1014.4921875 48398.5078125 1036 48372.015625 1036 c 0
 48345.5234375 1036 48324.015625 1014.4921875 48324.015625 988 c 2
 48324.015625 68 l 2
 48324.015625 41.5078125 48345.5234375 20 48372.015625 20 c 0
 48398.5078125 20 48420.015625 41.5078125 48420.015625 68 c 2
 48420.015625 988 l 2
47549.703125 0 m 0
 47869.8964844 0 48032.015625 210.677734375 48032.015625 528 c 0
 48032.015625 652.073242188 48007.4492188 769.206054688 47946.7353516 863.2421875 c 0
 47885.9638672 957.368164062 47769.7724609 1056 47549.703125 1056 c 0
 47523.2109375 1056 47501.703125 1034.4921875 47501.703125 1008 c 0
 47501.703125 981.5078125 47523.2109375 960 47549.703125 960 c 0
 47709.2783203 960 47808.0751953 901.026367188 47866.0253906 811.270507812 c 0
 47913.1748047 738.244140625 47936.015625 639.565429688 47936.015625 528 c 0
 47936.015625 345.954101562 47876.5107422 96 47549.703125 96 c 0
 47523.2109375 96 47501.703125 74.4921875 47501.703125 48 c 0
 47501.703125 21.5078125 47523.2109375 0 47549.703125 0 c 0
47392.015625 988 m 2
 47392.015625 1014.4921875 47370.5078125 1036 47344.015625 1036 c 0
 47317.5234375 1036 47296.015625 1014.4921875 47296.015625 988 c 2
 47296.015625 68 l 2
 47296.015625 41.5078125 47317.5234375 20 47344.015625 20 c 0
 47370.5078125 20 47392.015625 41.5078125 47392.015625 68 c 2
 47392.015625 988 l 2
47549.703125 0 m 2
 47576.1953125 0 47597.703125 21.5078125 47597.703125 48 c 0
 47597.703125 74.4921875 47576.1953125 96 47549.703125 96 c 2
 47244.015625 96 l 2
 47217.5234375 96 47196.015625 74.4921875 47196.015625 48 c 0
 47196.015625 21.5078125 47217.5234375 0 47244.015625 0 c 2
 47549.703125 0 l 2
47244.015625 1056 m 2
 47217.5234375 1056 47196.015625 1034.4921875 47196.015625 1008 c 0
 47196.015625 981.5078125 47217.5234375 960 47244.015625 960 c 2
 47549.703125 960 l 2
 47576.1953125 960 47597.703125 981.5078125 47597.703125 1008 c 0
 47597.703125 1034.4921875 47576.1953125 1056 47549.703125 1056 c 2
 47244.015625 1056 l 2
82236.9042969 985.30078125 m 0
 82262.8447266 1016.42871094 82240.5175781 1064 82200.015625 1064 c 0
 82185.1953125 1064 82171.9345703 1057.26855469 82163.1269531 1046.69921875 c 0
 81962.6298828 806.102539062 81728.015625 505.823242188 81728.015625 48 c 0
 81728.015625 21.5078125 81749.5234375 0 81776.015625 0 c 0
 81802.5078125 0 81824.015625 21.5078125 81824.015625 48 c 0
 81824.015625 470.176757812 82037.4013672 745.897460938 82236.9042969 985.30078125 c 0
81736.015625 1076 m 0
 81556.1982422 1076 81381.734375 944.076171875 81381.734375 748 c 0
 81381.734375 721.5078125 81403.2421875 700 81429.734375 700 c 0
 81456.2265625 700 81477.734375 721.5078125 81477.734375 748 c 0
 81477.734375 895.487304688 81616.8701172 980 81736.015625 980 c 0
 81878.9960938 980 81940.0644531 921.296875 82052.171875 921.296875 c 0
 82168.0878906 921.296875 82227.7158203 975.974609375 82233.5351562 981.655273438 c 0
 82264.2382812 1011.62597656 82242.7832031 1064 82200.015625 1064 c 0
 82186.9931641 1064 82175.1748047 1058.80273438 82166.5234375 1050.37109375 c 1
 82167.2597656 1051.30761719 82130.8046875 1017.296875 82052.171875 1017.296875 c 0
 81965.1582031 1017.296875 81891.0400391 1076 81736.015625 1076 c 0
81477.734375 1008 m 2
 81477.734375 1034.4921875 81456.2265625 1056 81429.734375 1056 c 0
 81403.2421875 1056 81381.734375 1034.4921875 81381.734375 1008 c 2
 81381.734375 748 l 2
 81381.734375 721.5078125 81403.2421875 700 81429.734375 700 c 0
 81456.2265625 700 81477.734375 721.5078125 81477.734375 748 c 2
 81477.734375 1008 l 2
75668.015625 96 m 2
 75641.5234375 96 75620.015625 74.4921875 75620.015625 48 c 0
 75620.015625 21.5078125 75641.5234375 0 75668.015625 0 c 2
 76028.015625 0 l 2
 76054.5078125 0 76076.015625 21.5078125 76076.015625 48 c 0
 76076.015625 74.4921875 76054.5078125 96 76028.015625 96 c 2
 75668.015625 96 l 2
76048.015625 1076 m 0
 75905.4736328 1076 75800.015625 958.577148438 75800.015625 808 c 2
 75800.015625 68 l 2
 75800.015625 41.5078125 75821.5234375 20 75848.015625 20 c 0
 75874.5078125 20 75896.015625 41.5078125 75896.015625 68 c 2
 75896.015625 808 l 2
 75896.015625 895.831054688 75949.7988281 980 76048.015625 980 c 0
 76098.0732422 980 76172.6005859 969.936523438 76198.9941406 913.805664062 c 0
 76205.6943359 899.55859375 76210.015625 881.384765625 76210.015625 857.765625 c 0
 76210.015625 831.2734375 76231.5234375 809.765625 76258.015625 809.765625 c 0
 76284.5078125 809.765625 76306.015625 831.2734375 76306.015625 857.765625 c 0
 76306.015625 985.465820312 76218.8408203 1076 76048.015625 1076 c 0
54728.015625 1008 m 2
 54728.015625 1034.4921875 54706.5078125 1056 54680.015625 1056 c 0
 54653.5234375 1056 54632.015625 1034.4921875 54632.015625 1008 c 2
 54632.015625 -232 l 2
 54632.015625 -258.4921875 54653.5234375 -280 54680.015625 -280 c 0
 54706.5078125 -280 54728.015625 -258.4921875 54728.015625 -232 c 2
 54728.015625 1008 l 2
52404.015625 96 m 2
 52377.5234375 96 52356.015625 74.4921875 52356.015625 48 c 0
 52356.015625 21.5078125 52377.5234375 0 52404.015625 0 c 2
 52924.015625 0 l 2
 52950.5078125 0 52972.015625 21.5078125 52972.015625 48 c 0
 52972.015625 74.4921875 52950.5078125 96 52924.015625 96 c 2
 52404.015625 96 l 2
52616.015625 68 m 2
 52616.015625 41.5078125 52637.5234375 20 52664.015625 20 c 0
 52690.5078125 20 52712.015625 41.5078125 52712.015625 68 c 2
 52712.015625 1008 l 2
 52712.015625 1034.4921875 52690.5078125 1056 52664.015625 1056 c 0
 52637.5234375 1056 52616.015625 1034.4921875 52616.015625 1008 c 2
 52616.015625 68 l 2
52664.015625 960 m 2
 52690.5078125 960 52712.015625 981.5078125 52712.015625 1008 c 0
 52712.015625 1034.4921875 52690.5078125 1056 52664.015625 1056 c 2
 52428.015625 1056 l 2
 52401.5234375 1056 52380.015625 1034.4921875 52380.015625 1008 c 0
 52380.015625 981.5078125 52401.5234375 960 52428.015625 960 c 2
 52664.015625 960 l 2
40208.015625 96 m 2
 40181.5234375 96 40160.015625 74.4921875 40160.015625 48 c 0
 40160.015625 21.5078125 40181.5234375 0 40208.015625 0 c 2
 40408.015625 0 l 2
 40434.5078125 0 40456.015625 21.5078125 40456.015625 48 c 0
 40456.015625 74.4921875 40434.5078125 96 40408.015625 96 c 2
 40208.015625 96 l 2
40260.015625 68 m 2
 40260.015625 41.5078125 40281.5234375 20 40308.015625 20 c 0
 40334.5078125 20 40356.015625 41.5078125 40356.015625 68 c 2
 40356.015625 1008 l 2
 40356.015625 1034.4921875 40334.5078125 1056 40308.015625 1056 c 2
 40208.015625 1056 l 2
 40181.5234375 1056 40160.015625 1034.4921875 40160.015625 1008 c 0
 40160.015625 981.5078125 40181.5234375 960 40208.015625 960 c 2
 40260.015625 960 l 1
 40260.015625 68 l 2
40741.765625 96 m 2
 40715.2734375 96 40693.765625 74.4921875 40693.765625 48 c 0
 40693.765625 21.5078125 40715.2734375 0 40741.765625 0 c 2
 40941.765625 0 l 2
 40968.2578125 0 40989.765625 21.5078125 40989.765625 48 c 0
 40989.765625 74.4921875 40968.2578125 96 40941.765625 96 c 2
 40741.765625 96 l 2
40648.015625 756 m 2
 40621.5234375 756 40600.015625 734.4921875 40600.015625 708 c 0
 40600.015625 681.5078125 40621.5234375 660 40648.015625 660 c 2
 40868.015625 660 l 2
 40894.5078125 660 40916.015625 681.5078125 40916.015625 708 c 0
 40916.015625 734.4921875 40894.5078125 756 40868.015625 756 c 2
 40648.015625 756 l 2
40294.8164062 282.654296875 m 2
 40263.6826172 252.818359375 40285.0400391 200 40328.015625 200 c 0
 40340.8916016 200 40352.5908203 205.081054688 40361.2148438 213.345703125 c 2
 40841.2148438 673.345703125 l 2
 40872.3486328 703.181640625 40850.9912109 756 40808.015625 756 c 0
 40795.1396484 756 40783.4404297 750.918945312 40774.8164062 742.654296875 c 2
 40294.8164062 282.654296875 l 2
40820.4375 39.7890625 m 2
 40847.6962891 2.3515625 40907.265625 21.8935546875 40907.265625 68 c 0
 40907.265625 78.5390625 40903.8613281 88.2900390625 40898.09375 96.2109375 c 2
 40606.84375 496.2109375 l 2
 40579.5849609 533.6484375 40520.015625 514.106445312 40520.015625 468 c 0
 40520.015625 457.4609375 40523.4199219 447.709960938 40529.1875 439.7890625 c 2
 40820.4375 39.7890625 l 2
55858.3183594 -173.47265625 m 0
 55776.8857422 -151.653320312 55734.2070312 -49.3798828125 55761.1904297 51.3251953125 c 0
 55788.1806641 152.051757812 55876.2753906 219.26171875 55957.7050781 197.443359375 c 0
 56039.1367188 175.623046875 56081.8203125 73.3671875 56054.8320312 -27.35546875 c 0
 56027.8476562 -128.064453125 55939.7480469 -195.291992188 55858.3183594 -173.47265625 c 0
55982.5517578 290.171875 m 0
 55851.1699219 325.375 55710.1455078 231.736328125 55668.4619141 76.171875 c 0
 55626.7851562 -79.3681640625 55702.0820312 -230.99609375 55833.4716797 -266.201171875 c 0
 55964.8603516 -301.407226562 56105.8837891 -207.743164062 56147.5615234 -52.2021484375 c 0
 56189.2421875 103.353515625 56113.9404297 254.965820312 55982.5517578 290.171875 c 0
55458.3232422 578.537109375 m 0
 55376.8916016 600.356445312 55334.2119141 702.629882812 55361.1953125 803.334960938 c 0
 55388.1806641 904.043945312 55476.2802734 971.271484375 55557.7099609 949.453125 c 0
 55639.1416016 927.6328125 55681.8212891 825.360351562 55654.8369141 724.654296875 c 0
 55627.8525391 623.9453125 55539.7529297 556.717773438 55458.3232422 578.537109375 c 0
55582.5566406 1042.18164062 m 0
 55451.1669922 1077.38671875 55310.1435547 983.723632812 55268.4667969 828.181640625 c 0
 55226.7900391 672.641601562 55302.0869141 521.013671875 55433.4765625 485.80859375 c 0
 55564.8652344 450.602539062 55705.8886719 544.266601562 55747.5664062 699.807617188 c 0
 55789.2431641 855.348632812 55713.9453125 1006.97558594 55582.5566406 1042.18164062 c 0
55325.3164062 -250.06640625 m 2
 55308.9804688 -281.77734375 55332.0957031 -320 55368.015625 -320 c 0
 55386.6074219 -320 55402.7441406 -309.407226562 55410.7148438 -293.93359375 c 2
 56090.7148438 1026.06640625 l 2
 56107.0507812 1057.77734375 56083.9355469 1096 56048.015625 1096 c 0
 56029.4238281 1096 56013.2871094 1085.40722656 56005.3164062 1069.93359375 c 2
 55325.3164062 -250.06640625 l 2
55690.5957031 1033.65820312 m 0
 55611.5263672 1033.65820312 55581.4023438 1043.828125 55570.125 1043.828125 c 0
 55543.6328125 1043.828125 55522.125 1022.3203125 55522.125 995.828125 c 0
 55522.125 972.671875 55538.5585938 953.322265625 55560.3896484 948.817382812 c 0
 55695.9931641 920.8359375 55943.8203125 947.708007812 56067.8955078 1004.30371094 c 0
 56084.4785156 1011.86816406 56096.015625 1028.59765625 56096.015625 1048 c 0
 56096.015625 1082.94921875 56059.6875 1106.08789062 56028.1357422 1091.69628906 c 0
 55954.8671875 1058.27539062 55812.8173828 1033.65820312 55690.5957031 1033.65820312 c 0
67813.3613281 218.766601562 m 1
 67762.6044922 96.4404296875 67697.7050781 76 67624.015625 76 c 0
 67566.9277344 76 67458.015625 110.756835938 67458.015625 236 c 0
 67458.015625 344.538085938 67493.5322266 383.084960938 67614.8232422 500.145507812 c 0
 67617.5146484 502.743164062 67620.2421875 508.044921875 67623.0068359 508.044921875 c 0
 67634.8662109 489.276367188 67744.6474609 317.750976562 67813.3613281 218.766601562 c 1
67642.3037109 661.314453125 m 1
 67608.375 720.356445312 67564.015625 804.569335938 67564.015625 865 c 0
 67564.015625 950.796875 67626.5683594 980 67676.015625 980 c 0
 67722.3378906 980 67784.015625 955.659179688 67784.015625 878 c 0
 67784.015625 817.35546875 67749.7304688 768.67578125 67642.3037109 661.314453125 c 1
67877.3583984 130.803710938 m 1
 67958.2041016 26.35546875 68017.7041016 -20 68084.015625 -20 c 0
 68135.8867188 -20 68190.2050781 2.6103515625 68227.9111328 77.4501953125 c 0
 68243.8759766 109.137695312 68220.7519531 147 68185.015625 147 c 0
 68166.2714844 147 68150.0214844 136.232421875 68142.1201172 120.549804688 c 0
 68121.0224609 78.6728515625 68100.8681641 76 68084.015625 76 c 0
 68039.9248047 76 67971.2568359 163.791015625 67921.4697266 232.5625 c 0
 67940.6894531 281.169921875 67977.6240234 360.356445312 68025.2890625 394.791992188 c 0
 68076.6044922 431.865234375 68096.015625 382.200195312 68096.015625 367 c 0
 68096.015625 340.5078125 68117.5234375 319 68144.015625 319 c 0
 68170.5078125 319 68192.015625 340.5078125 68192.015625 367 c 0
 68192.015625 432.172851562 68140.0097656 504.21875 68058.234375 504.21875 c 0
 67960.7236328 504.21875 67892.2832031 397.265625 67857.1708984 325.014648438 c 1
 67855.4912109 327.50390625 67758.7226562 472.122070312 67693.3554688 576.681640625 c 1
 67807.9306641 689.7421875 67880.015625 769.463867188 67880.015625 878 c 0
 67880.015625 994.766601562 67791.6347656 1076 67676.015625 1076 c 0
 67561.40625 1076 67468.015625 992.413085938 67468.015625 865 c 0
 67468.015625 795.750976562 67497.1533203 718.03515625 67571.5957031 591.853515625 c 0
 67563.5488281 584.051757812 67555.7460938 576.520507812 67548.1787109 569.217773438 c 0
 67483.1728516 506.478515625 67433.7285156 460.165039062 67400.8671875 401.34375 c 0
 67374.4277344 354.016601562 67362.015625 301.024414062 67362.015625 236 c 0
 67362.015625 65.8642578125 67501.3916016 -20 67624.015625 -20 c 0
 67709.0009766 -20 67806.1357422 3.0078125 67877.3583984 130.803710938 c 1
3169.56445312 -265.590820312 m 2
 3152.76269531 -297.326171875 3175.8671875 -336 3212.015625 -336 c 0
 3230.41601562 -336 3246.41210938 -325.624023438 3254.46679688 -310.409179688 c 0
 3257.86621094 -303.98828125 3440.015625 41.72265625 3440.015625 392 c 0
 3440.015625 550.669921875 3403.09960938 706.048828125 3362.60449219 830.34765625 c 0
 3311.98242188 985.729492188 3255.33007812 1092.77832031 3254.46679688 1094.40917969 c 0
 3246.41210938 1109.62402344 3230.41601562 1120 3212.015625 1120 c 0
 3175.8671875 1120 3152.76269531 1081.32617188 3169.56445312 1049.59082031 c 2
 3169.56445312 1049.59082031 3344.015625 718.211914062 3344.015625 392 c 0
 3344.015625 65.7880859375 3169.56445312 -265.590820312 3169.56445312 -265.590820312 c 2
88680 378.015625 m 0
 88680 548.516601562 88805.4248047 680.015625 88952.015625 680.015625 c 0
 89098.5888672 680.015625 89224.015625 548.517578125 89224.015625 378.015625 c 0
 89224.015625 207.498046875 89098.5908203 76.015625 88952.015625 76.015625 c 0
 88805.4228516 76.015625 88680 207.499023438 88680 378.015625 c 0
88584 378.015625 m 0
 88584 161.907226562 88745.1396484 -19.984375 88952.015625 -19.984375 c 0
 89158.8779297 -19.984375 89320.015625 161.908203125 89320.015625 378.015625 c 0
 89320.015625 594.107421875 89158.8798828 776.015625 88952.015625 776.015625 c 0
 88745.1376953 776.015625 88584 594.108398438 88584 378.015625 c 0
39588.859375 -20 m 0
 39740.7802734 -16.4248046875 39891.2021484 84.32421875 39905.0351562 268.421875 c 0
 39906.8105469 299.887695312 39882.1503906 320.0625 39857.171875 320.0625 c 0
 39831.9042969 320.0625 39811.1708984 300.497070312 39809.3085938 275.703125 c 0
 39798.7226562 134.831054688 39680.1025391 78.1474609375 39588.859375 76 c 0
 39439.8320312 76 39313.625 213.348632812 39313.625 385.84375 c 0
 39313.625 551.416992188 39424.2832031 679.513671875 39580.1669922 680 c 0
 39619.9365234 680.001953125 39665.3583984 672.5234375 39705.1689453 658.838867188 c 0
 39723.9414062 652.38671875 39812.015625 619.375 39812.015625 568 c 0
 39812.015625 541.5078125 39833.5234375 520 39860.015625 520 c 0
 39886.5078125 520 39908.015625 541.5078125 39908.015625 568 c 0
 39908.015625 701.840820312 39725.7148438 776.001953125 39581.1367188 776.001953125 c 0
 39373.4453125 775.356445312 39217.625 607.317382812 39217.625 385.84375 c 0
 39217.625 169.338867188 39377.7304688 -20 39588.859375 -20 c 0
43614.890625 -20 m 0
 43870.6005859 -20 44016.734375 109.2421875 44016.734375 271.34375 c 0
 44016.734375 447.594726562 43887.6142578 536.276367188 43619.3447266 598.330078125 c 0
 43374.4580078 654.98828125 43341.1396484 711.5703125 43329.3242188 743.70703125 c 0
 43323.5410156 759.434570312 43321.046875 778.209960938 43321.046875 801.890625 c 0
 43321.046875 836.928710938 43327.2402344 917.02734375 43448.6660156 957.65234375 c 0
 43491.9951172 972.1484375 43546.2011719 980 43607.859375 980 c 0
 43765.2851562 980 43855.6757812 910.708007812 43915.3134766 794.084960938 c 0
 43923.2617188 778.541015625 43939.4355469 767.890625 43958.078125 767.890625 c 0
 43993.9375 767.890625 44017.0556641 805.993164062 44000.8427734 837.696289062 c 0
 43902.4199219 1030.16894531 43747.3525391 1076 43607.859375 1076 c 0
 43543.7529297 1076 43384.7958984 1069.54199219 43291.1513672 972.248046875 c 0
 43248.6679688 928.109375 43225.046875 869.40625 43225.046875 801.890625 c 0
 43225.046875 738.859375 43237.9716797 667.364257812 43321.3408203 608.538085938 c 0
 43379.9140625 567.208007812 43465.8037109 535.30078125 43597.6552734 504.794921875 c 0
 43844.0117188 447.809570312 43892.2070312 380.96875 43909.2333984 338.9609375 c 0
 43917.1367188 319.462890625 43920.734375 297.485351562 43920.734375 271.34375 c 0
 43920.734375 148.568359375 43791.2519531 76 43614.890625 76 c 0
 43442.9677734 76 43301.015625 164.296875 43301.015625 324.703125 c 0
 43301.015625 351.1953125 43279.5078125 372.703125 43253.015625 372.703125 c 0
 43226.5234375 372.703125 43205.015625 351.1953125 43205.015625 324.703125 c 0
 43205.015625 120.556640625 43375.7617188 -20 43614.890625 -20 c 0
43452.015625 -152 m 2
 43452.015625 -178.4921875 43473.5234375 -200 43500.015625 -200 c 0
 43526.5078125 -200 43548.015625 -178.4921875 43548.015625 -152 c 2
 43548.015625 1130.265625 l 2
 43548.015625 1156.7578125 43526.5078125 1178.265625 43500.015625 1178.265625 c 0
 43473.5234375 1178.265625 43452.015625 1156.7578125 43452.015625 1130.265625 c 2
 43452.015625 -152 l 2
43676.015625 -152 m 2
 43676.015625 -178.4921875 43697.5234375 -200 43724.015625 -200 c 0
 43750.5078125 -200 43772.015625 -178.4921875 43772.015625 -152 c 2
 43772.015625 1130.265625 l 2
 43772.015625 1156.7578125 43750.5078125 1178.265625 43724.015625 1178.265625 c 0
 43697.5234375 1178.265625 43676.015625 1156.7578125 43676.015625 1130.265625 c 2
 43676.015625 -152 l 2
86496.015625 -204 m 2
 86469.5234375 -204 86448.015625 -225.5078125 86448.015625 -252 c 0
 86448.015625 -278.4921875 86469.5234375 -300 86496.015625 -300 c 2
 87376.015625 -300 l 2
 87402.5078125 -300 87424.015625 -278.4921875 87424.015625 -252 c 0
 87424.015625 -225.5078125 87402.5078125 -204 87376.015625 -204 c 2
 86496.015625 -204 l 2
31168.015625 48 m 0
 31168.015625 21.5078125 31189.5234375 0 31216.015625 0 c 0
 31239.140625 0 31258.46875 16.388671875 31263.0078125 38.17578125 c 2
 31463.0078125 998.17578125 l 2
 31469.2099609 1027.94824219 31446.4492188 1056 31416.015625 1056 c 0
 31392.890625 1056 31373.5625 1039.61132812 31369.0234375 1017.82421875 c 2
 31169.0234375 57.82421875 l 2
 31169.0234375 54.65234375 31168.015625 51.3662109375 31168.015625 48 c 0
31528.015625 48 m 0
 31528.015625 21.5078125 31549.5234375 0 31576.015625 0 c 0
 31599.140625 0 31618.46875 16.388671875 31623.0078125 38.17578125 c 2
 31823.0078125 998.17578125 l 2
 31829.2099609 1027.94824219 31806.4492188 1056 31776.015625 1056 c 0
 31752.890625 1056 31733.5625 1039.61132812 31729.0234375 1017.82421875 c 2
 31529.0234375 57.82421875 l 2
 31529.0234375 54.65234375 31528.015625 51.3662109375 31528.015625 48 c 0
31116.015625 736 m 2
 31089.5234375 736 31068.015625 714.4921875 31068.015625 688 c 0
 31068.015625 661.5078125 31089.5234375 640 31116.015625 640 c 2
 31876.015625 640 l 2
 31902.5078125 640 31924.015625 661.5078125 31924.015625 688 c 0
 31924.015625 714.4921875 31902.5078125 736 31876.015625 736 c 2
 31116.015625 736 l 2
31116.015625 416 m 2
 31089.5234375 416 31068.015625 394.4921875 31068.015625 368 c 0
 31068.015625 341.5078125 31089.5234375 320 31116.015625 320 c 2
 31876.015625 320 l 2
 31902.5078125 320 31924.015625 341.5078125 31924.015625 368 c 0
 31924.015625 394.4921875 31902.5078125 416 31876.015625 416 c 2
 31116.015625 416 l 2
33412.015625 -20 m 0
 33661.1953125 -20 33820.015625 143.87890625 33820.015625 328 c 0
 33820.015625 427.92578125 33784.1660156 527.454101562 33694.2617188 594.146484375 c 0
 33643.8710938 631.52734375 33579.1601562 657.013671875 33499.0234375 668.706054688 c 1
 33798.3115234 974.431640625 l 2
 33827.9550781 1004.71191406 33806.2744141 1056 33764.015625 1056 c 2
 33192.015625 1056 l 2
 33171.8105469 1056 33154.5048828 1043.48925781 33147.4287109 1025.79882812 c 2
 33107.4287109 925.798828125 l 2
 33094.9052734 894.490234375 33118.0283203 860 33152.015625 860 c 0
 33172.2207031 860 33189.5263672 872.510742188 33196.6025391 890.201171875 c 2
 33224.5214844 960 l 1
 33649.8681641 960 l 1
 33357.7197266 661.568359375 l 2
 33328.0761719 631.288085938 33349.7568359 580 33392.015625 580 c 0
 33485.7724609 580 33724.015625 565.04296875 33724.015625 328 c 0
 33724.015625 191.849609375 33602.2392578 76 33412.015625 76 c 0
 33264.3505859 76 33160.015625 151.520507812 33160.015625 258 c 0
 33160.015625 284.4921875 33138.5078125 306 33112.015625 306 c 0
 33085.5234375 306 33064.015625 284.4921875 33064.015625 258 c 0
 33064.015625 104.23046875 33201.0869141 -20 33412.015625 -20 c 0
45592.015625 96 m 2
 45565.5234375 96 45544.015625 74.4921875 45544.015625 48 c 0
 45544.015625 21.5078125 45565.5234375 0 45592.015625 0 c 2
 45928.015625 0 l 2
 45954.5078125 0 45976.015625 21.5078125 45976.015625 48 c 0
 45976.015625 74.4921875 45954.5078125 96 45928.015625 96 c 2
 45592.015625 96 l 2
45728.015625 368 m 1
 45281.1113281 368 l 1
 45728.015625 880.0234375 l 1
 45728.015625 368 l 1
45824.015625 272 m 1
 45948.015625 272 l 2
 45974.5078125 272 45996.015625 293.5078125 45996.015625 320 c 0
 45996.015625 346.4921875 45974.5078125 368 45948.015625 368 c 2
 45824.015625 368 l 1
 45824.015625 1008 l 2
 45824.015625 1052.03613281 45768.9199219 1072.85253906 45739.84375 1039.54003906 c 2
 45139.34375 351.540039062 l 2
 45112.3525391 320.615234375 45134.5175781 272 45175.515625 272 c 2
 45728.015625 272 l 1
 45728.015625 48 l 2
 45728.015625 21.5078125 45749.5234375 0 45776.015625 0 c 0
 45802.5078125 0 45824.015625 21.5078125 45824.015625 48 c 2
 45824.015625 272 l 1
56996.015625 400 m 2
 57022.5078125 400 57044.015625 421.5078125 57044.015625 448 c 0
 57044.015625 474.4921875 57022.5078125 496 56996.015625 496 c 2
 56396.015625 496 l 2
 56369.5234375 496 56348.015625 474.4921875 56348.015625 448 c 0
 56348.015625 421.5078125 56369.5234375 400 56396.015625 400 c 2
 56996.015625 400 l 2
46915.5107422 4.5947265625 m 2
 46947.1201172 -10.37890625 46984.015625 12.7587890625 46984.015625 48 c 0
 46984.015625 67.158203125 46972.7675781 83.7099609375 46956.5205078 91.4052734375 c 2
 46288.1552734 408 l 1
 46956.5205078 724.594726562 l 2
 46972.7675781 732.290039062 46984.015625 748.841796875 46984.015625 768 c 0
 46984.015625 803.2421875 46947.1201172 826.377929688 46915.5107422 811.405273438 c 2
 46155.5107422 451.405273438 l 2
 46119 434.111328125 46119 381.888671875 46155.5107422 364.594726562 c 2
 46915.5107422 4.5947265625 l 2
70468.5205078 831.405273438 m 2
 70436.9111328 846.37890625 70400.015625 823.241210938 70400.015625 788 c 0
 70400.015625 768.841796875 70411.2636719 752.290039062 70427.5107422 744.594726562 c 2
 71095.8759766 428 l 1
 70427.5107422 111.405273438 l 2
 70411.2636719 103.709960938 70400.015625 87.158203125 70400.015625 68 c 0
 70400.015625 32.7578125 70436.9111328 9.6220703125 70468.5205078 24.5947265625 c 2
 71228.5205078 384.594726562 l 2
 71265.03125 401.888671875 71265.03125 454.111328125 71228.5205078 471.405273438 c 2
 70468.5205078 831.405273438 l 2
80566.5234375 72.134765625 m 2
 80547.9863281 40.35546875 80571.0224609 0 80608.015625 0 c 0
 80625.7119141 0 80641.1845703 9.5966796875 80649.5078125 23.865234375 c 2
 81209.5078125 983.865234375 l 2
 81228.0449219 1015.64453125 81205.0087891 1056 81168.015625 1056 c 0
 81150.3193359 1056 81134.8466797 1046.40332031 81126.5234375 1032.13476562 c 2
 80566.5234375 72.134765625 l 2
38632.015625 960 m 2
 38658.5078125 960 38680.015625 981.5078125 38680.015625 1008 c 0
 38680.015625 1034.4921875 38658.5078125 1056 38632.015625 1056 c 2
 38432.015625 1056 l 2
 38405.5234375 1056 38384.015625 1034.4921875 38384.015625 1008 c 2
 38384.015625 -252 l 2
 38384.015625 -278.4921875 38405.5234375 -300 38432.015625 -300 c 2
 38632.015625 -300 l 2
 38658.5078125 -300 38680.015625 -278.4921875 38680.015625 -252 c 0
 38680.015625 -225.5078125 38658.5078125 -204 38632.015625 -204 c 2
 38480.015625 -204 l 1
 38480.015625 960 l 1
 38632.015625 960 l 2
62664.015625 1056 m 2
 62637.5234375 1056 62616.015625 1034.4921875 62616.015625 1008 c 0
 62616.015625 981.5078125 62637.5234375 960 62664.015625 960 c 2
 62816.015625 960 l 1
 62816.015625 -144 l 1
 62664.015625 -144 l 2
 62637.5234375 -144 62616.015625 -165.5078125 62616.015625 -192 c 0
 62616.015625 -218.4921875 62637.5234375 -240 62664.015625 -240 c 2
 62864.015625 -240 l 2
 62890.5078125 -240 62912.015625 -218.4921875 62912.015625 -192 c 2
 62912.015625 1008 l 2
 62912.015625 1034.4921875 62890.5078125 1056 62864.015625 1056 c 2
 62664.015625 1056 l 2
50368.015625 1056 m 0
 50331.0234375 1056 50307.9853516 1015.64453125 50326.5234375 983.865234375 c 2
 50886.5234375 23.865234375 l 2
 50894.8466797 9.5966796875 50910.3193359 0 50928.015625 0 c 0
 50965.0078125 0 50988.0458984 40.35546875 50969.5078125 72.134765625 c 2
 50409.5078125 1032.13476562 l 2
 50401.1845703 1046.40332031 50385.7119141 1056 50368.015625 1056 c 0
74598.0253906 671.259765625 m 2
 74580.3779297 639.494140625 74603.453125 600 74640.015625 600 c 0
 74658.0712891 600 74673.8115234 609.990234375 74682.0058594 624.740234375 c 2
 74840.015625 909.158203125 l 1
 74998.0253906 624.740234375 l 2
 75006.2197266 609.990234375 75021.9599609 600 75040.015625 600 c 0
 75076.5771484 600 75099.6533203 639.494140625 75082.0058594 671.259765625 c 2
 74882.0058594 1031.25976562 l 2
 74863.7333984 1064.1484375 74816.2978516 1064.1484375 74798.0253906 1031.25976562 c 2
 74598.0253906 671.259765625 l 2
32184.015625 456 m 2
 32157.5234375 456 32136.015625 434.4921875 32136.015625 408 c 0
 32136.015625 381.5078125 32157.5234375 360 32184.015625 360 c 2
 32824.015625 360 l 2
 32850.5078125 360 32872.015625 381.5078125 32872.015625 408 c 0
 32872.015625 434.4921875 32850.5078125 456 32824.015625 456 c 2
 32184.015625 456 l 2
32456.015625 88 m 2
 32456.015625 61.5078125 32477.5234375 40 32504.015625 40 c 0
 32530.5078125 40 32552.015625 61.5078125 32552.015625 88 c 2
 32552.015625 728 l 2
 32552.015625 754.4921875 32530.5078125 776 32504.015625 776 c 0
 32477.5234375 776 32456.015625 754.4921875 32456.015625 728 c 2
 32456.015625 88 l 2
15175.6689453 668.215820312 m 2
 15145.5292969 698.354492188 15093.734375 676.77734375 15093.734375 634.28125 c 0
 15093.734375 621.03515625 15099.1113281 609.03515625 15107.7998047 600.346679688 c 2
 15560.3623047 147.784179688 l 2
 15590.5019531 117.645507812 15642.296875 139.22265625 15642.296875 181.71875 c 0
 15642.296875 194.96484375 15636.9199219 206.96484375 15628.2314453 215.653320312 c 2
 15175.6689453 668.215820312 l 2
15107.7998047 215.653320312 m 2
 15077.6611328 185.513671875 15099.2382812 133.71875 15141.734375 133.71875 c 0
 15154.9804688 133.71875 15166.9804688 139.095703125 15175.6689453 147.784179688 c 2
 15628.2314453 600.346679688 l 2
 15658.3701172 630.486328125 15636.7929688 682.28125 15594.296875 682.28125 c 0
 15581.0507812 682.28125 15569.0507812 676.904296875 15560.3623047 668.215820312 c 2
 15107.7998047 215.653320312 l 2
35160.015625 528 m 0
 35160.015625 222.09375 35326.34375 -20 35548.015625 -20 c 0
 35726.6738281 -20 35818.9755859 130.602539062 35872.8408203 270.809570312 c 0
 35884.8359375 302.033203125 35861.7246094 336 35828.015625 336 c 0
 35807.5800781 336 35790.1103516 323.202148438 35783.1904297 305.190429688 c 0
 35731.1181641 169.647460938 35661.2011719 76 35548.015625 76 c 0
 35381.0732422 76 35256.015625 280.879882812 35256.015625 528 c 0
 35256.015625 625.420898438 35270.7675781 715.338867188 35297.3007812 788.180664062 c 0
 35324.4580078 862.735351562 35386.4892578 980 35508.015625 980 c 0
 35559.6015625 980 35654.7265625 967.875 35728.1845703 844.57421875 c 0
 35751.8691406 804.8203125 35769.5341797 759.48046875 35781.7363281 715.228515625 c 0
 35787.3339844 694.927734375 35805.9453125 680 35828.015625 680 c 0
 35859.7441406 680 35882.6894531 710.331054688 35874.2949219 740.771484375 c 0
 35845.4580078 845.346679688 35793.0820312 946.645507812 35708.8710938 1010.25976562 c 0
 35655.5029297 1050.57519531 35588.09375 1076 35508.015625 1076 c 0
 35296.7783203 1076 35160.015625 843.873046875 35160.015625 528 c 0
57624.015625 76 m 0
 57485.2949219 76 57352.015625 156.125976562 57352.015625 268 c 0
 57352.015625 294.4921875 57330.5078125 316 57304.015625 316 c 0
 57277.5234375 316 57256.015625 294.4921875 57256.015625 268 c 0
 57256.015625 101.092773438 57429.5332031 -20 57624.015625 -20 c 0
 57828.703125 -20 57992.0234375 168.564453125 57992.0234375 385.563476562 c 0
 57992.0234375 590.750976562 57829.3574219 748 57624.015625 748 c 0
 57537.390625 748 57380.7519531 731.868164062 57294.8242188 588.642578125 c 0
 57275.7597656 556.865234375 57298.7685547 516 57336.015625 516 c 0
 57353.5009766 516 57368.8144531 525.369140625 57377.2070312 539.357421875 c 0
 57402.2431641 581.088867188 57459.6464844 652 57624.015625 652 c 0
 57778.8017578 652 57895.0488281 537.234375 57896.0166016 387.68359375 c 0
 57896.0263672 223.38671875 57776.5126953 76 57624.015625 76 c 0
58392.015625 556 m 2
 58365.5234375 556 58344.015625 534.4921875 58344.015625 508 c 0
 58344.015625 481.5078125 58365.5234375 460 58392.015625 460 c 2
 59032.015625 460 l 2
 59058.5078125 460 59080.015625 481.5078125 59080.015625 508 c 0
 59080.015625 534.4921875 59058.5078125 556 59032.015625 556 c 2
 58392.015625 556 l 2
58392.015625 336 m 2
 58365.5234375 336 58344.015625 314.4921875 58344.015625 288 c 0
 58344.015625 261.5078125 58365.5234375 240 58392.015625 240 c 2
 59032.015625 240 l 2
 59058.5078125 240 59080.015625 261.5078125 59080.015625 288 c 0
 59080.015625 314.4921875 59058.5078125 336 59032.015625 336 c 2
 58392.015625 336 l 2
63778.015625 680 m 0
 63921.6523438 680 64015.359375 574.329101562 64035.7998047 458 c 1
 63533.6503906 458 l 1
 63559.5957031 599.822265625 63670.8623047 680 63778.015625 680 c 0
64036.2734375 226.067382812 m 0
 64034.8583984 223.59375 63943.3330078 76 63794.015625 76 c 0
 63647.8330078 76 63540.3662109 199.120117188 63529.0039062 362 c 1
 64088.015625 362 l 2
 64114.5078125 362 64136.015625 383.5078125 64136.015625 410 c 0
 64136.015625 586.744140625 64002.8310547 776 63778.015625 776 c 0
 63600.0869141 776 63432.0166016 625.200195312 63432.0166016 394.845703125 c 0
 63430.2509766 155.780273438 63591.0751953 -20 63794.015625 -20 c 0
 63888.0478516 -20 63963.0742188 20.404296875 64015.9951172 62.8505859375 c 0
 64082.3330078 116.056640625 64116.9472656 173.9375 64118.6328125 176.745117188 c 0
 64137.7167969 208.522460938 64114.7089844 249.40625 64077.453125 249.40625 c 0
 64059.9755859 249.40625 64044.6669922 240.044921875 64036.2734375 226.067382812 c 0
82757.6875 730.65625 m 1
 82739.6875 712.65625 l 1
 82721.6875 730.65625 l 1
 82739.6875 748.65625 l 1
 82757.6875 730.65625 l 1
82661.6875 730.65625 m 0
 82661.6875 687.607421875 82696.6386719 652.65625 82739.6875 652.65625 c 0
 82782.7363281 652.65625 82817.6875 687.607421875 82817.6875 730.65625 c 0
 82817.6875 773.705078125 82782.7363281 808.65625 82739.6875 808.65625 c 0
 82696.6386719 808.65625 82661.6875 773.705078125 82661.6875 730.65625 c 0
82709.6875 730.657226562 m 0
 82709.6875 747.225585938 82723.1191406 760.657226562 82739.6875 760.657226562 c 0
 82756.2558594 760.657226562 82769.6875 747.225585938 82769.6875 730.657226562 c 0
 82769.6875 714.088867188 82756.2558594 700.657226562 82739.6875 700.657226562 c 0
 82723.1191406 700.657226562 82709.6875 714.088867188 82709.6875 730.657226562 c 0
82946.015625 982 m 0
 83043.8242188 982 83137.0625 912.20703125 83137.0625 851.8125 c 0
 83137.0625 785.952148438 83114.5976562 740.229492188 83060.5732422 698.962890625 c 0
 82971.9677734 631.284179688 82846.015625 521.880859375 82846.015625 325 c 0
 82846.015625 298.5078125 82867.5234375 277 82894.015625 277 c 0
 82920.5078125 277 82942.015625 298.5078125 82942.015625 325 c 0
 82942.015625 464.317382812 83020.3613281 547.463867188 83118.7705078 622.630859375 c 0
 83217.0332031 697.688476562 83233.0625 785.975585938 83233.0625 851.8125 c 0
 83233.0625 973.642578125 83090.6982422 1078 82946.015625 1078 c 0
 82752.2626953 1078 82562.3369141 889.748046875 82671.4394531 692.891601562 c 0
 82679.6269531 678.119140625 82695.3808594 668.109375 82713.453125 668.109375 c 0
 82749.9941406 668.109375 82773.0712891 707.561523438 82755.4667969 739.327148438 c 0
 82741.0957031 765.256835938 82735.5947266 788.831054688 82735.5947266 810.284179688 c 0
 82735.5947266 905.334960938 82846.5449219 982 82946.015625 982 c 0
33160.015625 258 m 1
 33142.015625 240 l 1
 33124.015625 258 l 1
 33142.015625 276 l 1
 33160.015625 258 l 1
33064.015625 258 m 0
 33064.015625 214.931640625 33098.9892578 180 33142.015625 180 c 0
 33185.0419922 180 33220.015625 214.931640625 33220.015625 258 c 0
 33220.015625 301.048828125 33185.0644531 336 33142.015625 336 c 0
 33098.9667969 336 33064.015625 301.048828125 33064.015625 258 c 0
33112.015625 257.997070312 m 0
 33112.015625 274.565429688 33125.4472656 287.997070312 33142.015625 287.997070312 c 0
 33158.5839844 287.997070312 33172.015625 274.565429688 33172.015625 257.997070312 c 0
 33172.015625 241.428710938 33158.5839844 227.997070312 33142.015625 227.997070312 c 0
 33125.4472656 227.997070312 33112.015625 241.428710938 33112.015625 257.997070312 c 0
57352.015625 268 m 1
 57334.015625 250 l 1
 57316.015625 268 l 1
 57334.015625 286 l 1
 57352.015625 268 l 1
57256.015625 268 m 0
 57256.015625 224.951171875 57290.9667969 190 57334.015625 190 c 0
 57377.0644531 190 57412.015625 224.951171875 57412.015625 268 c 0
 57412.015625 311.068359375 57377.0419922 346 57334.015625 346 c 0
 57290.9892578 346 57256.015625 311.068359375 57256.015625 268 c 0
57304.015625 268.006835938 m 0
 57304.015625 284.575195312 57317.4472656 298.006835938 57334.015625 298.006835938 c 0
 57350.5839844 298.006835938 57364.015625 284.575195312 57364.015625 268.006835938 c 0
 57364.015625 251.438476562 57350.5839844 238.006835938 57334.015625 238.006835938 c 0
 57317.4472656 238.006835938 57304.015625 251.438476562 57304.015625 268.006835938 c 0
76246.015625 858 m 1
 76228.015625 840 l 1
 76210.015625 858 l 1
 76228.015625 876 l 1
 76246.015625 858 l 1
76150.015625 858 m 0
 76150.015625 814.973632812 76184.9472656 780 76228.015625 780 c 0
 76271.0644531 780 76306.015625 814.951171875 76306.015625 858 c 0
 76306.015625 901.068359375 76271.0419922 936 76228.015625 936 c 0
 76184.96875 936 76150.015625 901.046875 76150.015625 858 c 0
76198.0078125 858.0078125 m 0
 76198.0078125 874.576171875 76211.4394531 888.0078125 76228.0078125 888.0078125 c 0
 76244.5761719 888.0078125 76258.0078125 874.576171875 76258.0078125 858.0078125 c 0
 76258.0078125 841.439453125 76244.5761719 828.0078125 76228.0078125 828.0078125 c 0
 76211.4394531 828.0078125 76198.0078125 841.439453125 76198.0078125 858.0078125 c 0
25100.015625 -72 m 0
 25100.015625 -216.729492188 25199.953125 -320 25348.015625 -320 c 0
 25439.0175781 -320 25514.4169922 -282.39453125 25561.2441406 -217.834960938 c 0
 25598.2617188 -166.799804688 25616.015625 -102.313476562 25616.015625 -32 c 2
 25616.015625 708 l 2
 25616.015625 734.4921875 25594.5078125 756 25568.015625 756 c 2
 25348.015625 756 l 2
 25321.5234375 756 25300.015625 734.4921875 25300.015625 708 c 0
 25300.015625 681.5078125 25321.5234375 660 25348.015625 660 c 2
 25520.015625 660 l 1
 25520.015625 -32 l 2
 25520.015625 -86.130859375 25506.1640625 -130.287109375 25483.484375 -161.555664062 c 0
 25455.6884766 -199.876953125 25412.5693359 -224 25348.015625 -224 c 0
 25304.2597656 -224 25270.1611328 -211.224609375 25245.7646484 -191.078125 c 0
 25215.5878906 -166.157226562 25196.015625 -126.677734375 25196.015625 -72 c 0
 25196.015625 -45.5078125 25174.5078125 -24 25148.015625 -24 c 0
 25121.5234375 -24 25100.015625 -45.5078125 25100.015625 -72 c 0
25556.015625 988 m 1
 25538.015625 970 l 1
 25520.015625 988 l 1
 25538.015625 1006 l 1
 25556.015625 988 l 1
25460.015625 988 m 0
 25460.015625 944.953125 25494.96875 910 25538.015625 910 c 0
 25581.0419922 910 25616.015625 944.931640625 25616.015625 988 c 0
 25616.015625 1031.04882812 25581.0644531 1066 25538.015625 1066 c 0
 25494.9472656 1066 25460.015625 1031.02636719 25460.015625 988 c 0
25508.0078125 987.997070312 m 0
 25508.0078125 1004.56542969 25521.4394531 1017.99707031 25538.0078125 1017.99707031 c 0
 25554.5761719 1017.99707031 25568.0078125 1004.56542969 25568.0078125 987.997070312 c 0
 25568.0078125 971.427734375 25554.5761719 957.997070312 25538.0078125 957.997070312 c 0
 25521.4394531 957.997070312 25508.0078125 971.427734375 25508.0078125 987.997070312 c 0
26784.015625 628 m 1
 26766.015625 610 l 1
 26748.015625 628 l 1
 26766.015625 646 l 1
 26784.015625 628 l 1
26688.015625 628 m 0
 26688.015625 584.953125 26722.96875 550 26766.015625 550 c 0
 26809.0419922 550 26844.015625 584.931640625 26844.015625 628 c 0
 26844.015625 671.048828125 26809.0644531 706 26766.015625 706 c 0
 26722.9472656 706 26688.015625 671.026367188 26688.015625 628 c 0
26736.0078125 627.99609375 m 0
 26736.0078125 644.565429688 26749.4394531 657.99609375 26766.0078125 657.99609375 c 0
 26782.5761719 657.99609375 26796.0078125 644.565429688 26796.0078125 627.99609375 c 0
 26796.0078125 611.427734375 26782.5761719 597.99609375 26766.0078125 597.99609375 c 0
 26749.4394531 597.99609375 26736.0078125 611.427734375 26736.0078125 627.99609375 c 0
28772.015625 818 m 1
 28754.015625 800 l 1
 28736.015625 818 l 1
 28754.015625 836 l 1
 28772.015625 818 l 1
28676.015625 818 m 0
 28676.015625 774.951171875 28710.9667969 740 28754.015625 740 c 0
 28797.0644531 740 28832.015625 774.951171875 28832.015625 818 c 0
 28832.015625 861.048828125 28797.0644531 896 28754.015625 896 c 0
 28710.9667969 896 28676.015625 861.048828125 28676.015625 818 c 0
28724.015625 817.998046875 m 0
 28724.015625 834.56640625 28737.4472656 847.998046875 28754.015625 847.998046875 c 0
 28770.5839844 847.998046875 28784.015625 834.56640625 28784.015625 817.998046875 c 0
 28784.015625 801.4296875 28770.5839844 787.998046875 28754.015625 787.998046875 c 0
 28737.4472656 787.998046875 28724.015625 801.4296875 28724.015625 817.998046875 c 0
25196.015625 -72 m 1
 25178.015625 -90 l 1
 25160.015625 -72 l 1
 25178.015625 -54 l 1
 25196.015625 -72 l 1
25100.015625 -72 m 0
 25100.015625 -115.046875 25134.96875 -150 25178.015625 -150 c 0
 25221.0419922 -150 25256.015625 -115.068359375 25256.015625 -72 c 0
 25256.015625 -28.951171875 25221.0644531 6 25178.015625 6 c 0
 25134.9472656 6 25100.015625 -28.9736328125 25100.015625 -72 c 0
25148.0078125 -72.0029296875 m 0
 25148.0078125 -55.4345703125 25161.4394531 -42.0029296875 25178.0078125 -42.0029296875 c 0
 25194.5761719 -42.0029296875 25208.0078125 -55.4345703125 25208.0078125 -72.0029296875 c 0
 25208.0078125 -88.5712890625 25194.5761719 -102.002929688 25178.0078125 -102.002929688 c 0
 25161.4394531 -102.002929688 25148.0078125 -88.5712890625 25148.0078125 -72.0029296875 c 0
42924.015625 1026.671875 m 0
 42777.4755859 1026.671875 42676.015625 925.595703125 42676.015625 818.671875 c 2
 42676.015625 568 l 2
 42676.015625 561.052734375 42676.015625 552.670898438 42655.2480469 537.088867188 c 2
 42495.2558594 417.094726562 l 2
 42458.4775391 389.510742188 42478.2460938 330.671875 42524.015625 330.671875 c 0
 42534.7998047 330.671875 42544.7578125 334.235351562 42552.7753906 340.249023438 c 2
 42712.7832031 460.254882812 l 2
 42732.5976562 475.122070312 42772.015625 508.012695312 42772.015625 568 c 2
 42772.015625 818.671875 l 2
 42772.015625 871.313476562 42830.3583984 930.671875 42924.015625 930.671875 c 0
 42950.5078125 930.671875 42972.015625 952.1796875 42972.015625 978.671875 c 0
 42972.015625 1005.1640625 42950.5078125 1026.671875 42924.015625 1026.671875 c 0
57336.015625 516 m 0
 57362.2138672 516 57383.5380859 537.033203125 57384.0078125 563.120117188 c 2
 57391.1591797 960 l 1
 57912.015625 960 l 2
 57938.5078125 960 57960.015625 981.5078125 57960.015625 1008 c 0
 57960.015625 1034.4921875 57938.5078125 1056 57912.015625 1056 c 2
 57344.015625 1056 l 2
 57317.8173828 1056 57296.4931641 1034.96679688 57296.0234375 1008.87988281 c 2
 57288.0234375 564.879882812 l 2
 57288.0234375 537.5078125 57309.5234375 516 57336.015625 516 c 0
75708.015625 756 m 2
 75681.5234375 756 75660.015625 734.4921875 75660.015625 708 c 0
 75660.015625 681.5078125 75681.5234375 660 75708.015625 660 c 2
 75968.015625 660 l 2
 75994.5078125 660 76016.015625 681.5078125 76016.015625 708 c 0
 76016.015625 734.4921875 75994.5078125 756 75968.015625 756 c 2
 75708.015625 756 l 2
66616.015625 416 m 0
 66472.2802734 416 66408.015625 292.252929688 66408.015625 208 c 0
 66408.015625 181.5078125 66429.5234375 160 66456.015625 160 c 0
 66482.5078125 160 66504.015625 181.5078125 66504.015625 208 c 0
 66504.015625 224.841796875 66518.3837891 320 66616.015625 320 c 0
 66711.3574219 320 66795.5263672 160 66936.015625 160 c 0
 67079.8125 160 67144.015625 286.517578125 67144.015625 368 c 0
 67144.015625 394.4921875 67122.5078125 416 67096.015625 416 c 0
 67069.5234375 416 67048.015625 394.4921875 67048.015625 368 c 0
 67048.015625 366.974609375 67045.5947266 310.032226562 67001.7119141 276.4765625 c 0
 66986.0957031 264.53515625 66965.8935547 256 66936.015625 256 c 0
 66840.6738281 256 66756.5048828 416 66616.015625 416 c 0
73105.6083984 1276.78027344 m 0
 73104.6582031 1275.56738281 73057.1904297 1216 72964.015625 1216 c 0
 72915.4453125 1216 72885.6767578 1230.83984375 72845.4355469 1250.9609375 c 0
 72805.6767578 1270.83984375 72755.4453125 1296 72684.015625 1296 c 0
 72541.0498047 1296 72469.2099609 1201.58300781 72465.5927734 1196.75976562 c 0
 72441.9824219 1165.27929688 72464.6123047 1120 72504.015625 1120 c 0
 72519.7148438 1120 72533.6630859 1127.55273438 72542.4228516 1139.21972656 c 0
 72543.3730469 1140.43261719 72590.8408203 1200 72684.015625 1200 c 0
 72732.5859375 1200 72762.3544922 1185.16015625 72802.5957031 1165.0390625 c 0
 72842.3544922 1145.16015625 72892.5859375 1120 72964.015625 1120 c 0
 73106.9814453 1120 73178.8212891 1214.41699219 73182.4384766 1219.24023438 c 0
 73206.0488281 1250.72070312 73183.4189453 1296 73144.015625 1296 c 0
 73128.3164062 1296 73114.3681641 1288.44726562 73105.6083984 1276.78027344 c 0
69523.0625 317.203125 m 0
 69523.0625 444.935546875 69642.0771484 557.328125 69800.015625 557.328125 c 0
 69957.9541016 557.328125 70076.96875 444.935546875 70076.96875 317.203125 c 0
 70076.96875 189.470703125 69957.9541016 77.078125 69800.015625 77.078125 c 0
 69642.0771484 77.078125 69523.0625 189.470703125 69523.0625 317.203125 c 0
69427.0625 317.203125 m 0
 69427.0625 126.685546875 69599.0166016 -18.921875 69800.015625 -18.921875 c 0
 70001.0146484 -18.921875 70172.96875 126.685546875 70172.96875 317.203125 c 0
 70172.96875 507.720703125 70001.0146484 653.328125 69800.015625 653.328125 c 0
 69599.0166016 653.328125 69427.0625 507.720703125 69427.0625 317.203125 c 0
69838 980 m 0
 69988.9960938 980 70062.9208984 855.731445312 70064.1123047 853.4296875 c 0
 70072.3837891 838.961914062 70087.9677734 829.203125 70105.8125 829.203125 c 0
 70142.6269531 829.203125 70165.6806641 869.201171875 70147.5126953 900.9765625 c 0
 70145.3603516 904.7421875 70102.9960938 979.3203125 70011.640625 1030.76074219 c 0
 69965.8994141 1056.515625 69907.6699219 1076 69838 1076 c 0
 69629.2851562 1076 69386.8125 903.583007812 69386.8125 524.3125 c 0
 69386.8125 445.840820312 69388.8681641 333.466796875 69455.3994141 188.559570312 c 0
 69462.9873047 172.034179688 69479.6855469 160.546875 69499.046875 160.546875 c 0
 69534.0458984 160.546875 69557.1855469 196.971679688 69542.6943359 228.534179688 c 0
 69483.5380859 357.376953125 69482.8125 448.221679688 69482.8125 524.3125 c 0
 69482.8125 851.588867188 69683.4121094 980 69838 980 c 0
35876.015625 1008 m 2
 35876.015625 1034.4921875 35854.5078125 1056 35828.015625 1056 c 0
 35801.5234375 1056 35780.015625 1034.4921875 35780.015625 1008 c 2
 35780.015625 728 l 2
 35780.015625 701.5078125 35801.5234375 680 35828.015625 680 c 0
 35854.5078125 680 35876.015625 701.5078125 35876.015625 728 c 2
 35876.015625 1008 l 2
83892.015625 -20 m 0
 84055.9931641 -20 84195.1865234 110.374023438 84256.8388672 270.805664062 c 0
 84256.8388672 276.14453125 84260.015625 281.942382812 84260.015625 288 c 0
 84260.015625 314.4921875 84238.5078125 336 84212.015625 336 c 0
 84191.5820312 336 84174.1132812 323.204101562 84167.1923828 305.194335938 c 0
 84122.6005859 189.159179688 84018.7607422 76 83892.015625 76 c 0
 83724.4824219 76 83600.015625 277.811523438 83600.015625 528 c 0
 83600.015625 776.354492188 83711.1152344 980 83872.015625 980 c 0
 83963.3535156 980 84031.3447266 945.033203125 84081.3417969 892.604492188 c 0
 84121.5185547 850.47265625 84150.0927734 795.9609375 84165.7363281 739.228515625 c 0
 84171.3339844 718.927734375 84189.9453125 704 84212.015625 704 c 0
 84243.7441406 704 84266.6894531 734.331054688 84258.2949219 764.771484375 c 0
 84210.6376953 937.599609375 84073.8554688 1076 83872.015625 1076 c 0
 83658.0439453 1076 83504.015625 840.823242188 83504.015625 528 c 0
 83504.015625 217.588867188 83670.8779297 -20 83892.015625 -20 c 0
84260.015625 1008 m 2
 84260.015625 1034.4921875 84238.5078125 1056 84212.015625 1056 c 0
 84185.5234375 1056 84164.015625 1034.4921875 84164.015625 1008 c 2
 84164.015625 752 l 2
 84164.015625 725.5078125 84185.5234375 704 84212.015625 704 c 0
 84238.5078125 704 84260.015625 725.5078125 84260.015625 752 c 2
 84260.015625 1008 l 2
84164.015625 48 m 2
 84164.015625 21.5078125 84185.5234375 0 84212.015625 0 c 0
 84238.5078125 0 84260.015625 21.5078125 84260.015625 48 c 2
 84260.015625 388 l 2
 84260.015625 414.4921875 84238.5078125 436 84212.015625 436 c 0
 84185.5234375 436 84164.015625 414.4921875 84164.015625 388 c 2
 84164.015625 48 l 2
84292.015625 340 m 2
 84318.5078125 340 84340.015625 361.5078125 84340.015625 388 c 0
 84340.015625 414.4921875 84318.5078125 436 84292.015625 436 c 2
 84032.015625 436 l 2
 84005.5234375 436 83984.015625 414.4921875 83984.015625 388 c 0
 83984.015625 361.5078125 84005.5234375 340 84032.015625 340 c 2
 84292.015625 340 l 2
79880.015625 560 m 0
 79904.8789062 560 79925.3525391 578.9453125 79927.7753906 603.174804688 c 0
 79968.015625 1005.57421875 79968.015625 1005.57421875 79968.015625 1008 c 0
 79968.015625 1034.4921875 79946.5078125 1056 79920.015625 1056 c 0
 79840.015625 1056 79840.015625 1056 79840.015625 1056 c 2
 79815.5458984 1056 79789.7744141 1036.22753906 79792.2558594 1003.17480469 c 2
 79832.2558594 603.174804688 l 2
 79834.6787109 578.9453125 79855.1523438 560 79880.015625 560 c 0
79840.0107422 1008 m 1
 79920.0107422 1008 l 1
 79880.0107422 608 l 1
 79840.0107422 1008 l 1
88396.7392578 -217.032226562 m 0
 88443.9570312 -156.91015625 88443.9365234 -67.0576171875 88396.7402344 -6.9609375 c 0
 88328.0986328 80.4423828125 88178.1884766 96 88054.015625 96 c 0
 87930.1464844 96 87779.9960938 80.53515625 87711.2871094 -6.9619140625 c 0
 87664.0888672 -67.06640625 87664.0830078 -156.919921875 87711.2871094 -217.03125 c 0
 87779.9316406 -304.4453125 87929.8613281 -320 88054.015625 -320 c 0
 88177.7109375 -320 88327.9853516 -304.578125 88396.7392578 -217.032226562 c 0
88336.015625 -112 m 0
 88336.015625 -135.4609375 88329.4101562 -166.209960938 88275.6513672 -190.645507812 c 0
 88233.6484375 -209.737304688 88162.2451172 -224 88054.015625 -224 c 0
 88015.8671875 -224 87838.453125 -223.552734375 87786.8291016 -157.8125 c 0
 87776.4521484 -144.598632812 87772.015625 -130.408203125 87772.015625 -112 c 0
 87772.015625 -88.4951171875 87778.6474609 -57.7685546875 87832.3720703 -33.349609375 c 0
 87874.3730469 -14.2607421875 87945.7783203 0 88054.015625 0 c 0
 88092.1777344 0 88269.578125 -0.44921875 88321.2001953 -66.1826171875 c 0
 88331.5771484 -79.3955078125 88336.015625 -93.5869140625 88336.015625 -112 c 0
87772.015625 498.015625 m 0
 87772.015625 598.553710938 87853.4658203 680.015625 87954.015625 680.015625 c 0
 88054.5507812 680.015625 88136.015625 598.55078125 88136.015625 498.015625 c 0
 88136.015625 397.465820312 88054.5537109 316.015625 87954.015625 316.015625 c 0
 87853.4628906 316.015625 87772.015625 397.462890625 87772.015625 498.015625 c 0
87676.015625 498.015625 m 0
 87676.015625 344.505859375 87800.5058594 220.015625 87954.015625 220.015625 c 0
 88107.5087891 220.015625 88232.015625 344.502929688 88232.015625 498.015625 c 0
 88232.015625 651.51171875 88107.5117188 776.015625 87954.015625 776.015625 c 0
 87800.5029297 776.015625 87676.015625 651.508789062 87676.015625 498.015625 c 0
88136.015625 498 m 0
 88136.015625 471.5078125 88157.5234375 450 88184.015625 450 c 0
 88210.5078125 450 88232.015625 471.5078125 88232.015625 498 c 0
 88232.015625 630.275390625 88261.9375 644.747070312 88284.671875 652.518554688 c 0
 88298.0361328 657.086914062 88317.6601562 660 88344.015625 660 c 0
 88370.5078125 660 88392.015625 681.5078125 88392.015625 708 c 0
 88392.015625 734.4921875 88370.5078125 756 88344.015625 756 c 0
 88305.3925781 756 88215.7705078 754.013671875 88169.7988281 675.653320312 c 0
 88144.3935547 632.346679688 88136.015625 573.889648438 88136.015625 498 c 0
87954.015625 220 m 0
 87980.5078125 220 88002.015625 241.5078125 88002.015625 268 c 0
 88002.015625 294.4921875 87980.5078125 316 87954.015625 316 c 0
 87892.3945312 316 87768.5087891 310.954101562 87721.4316406 226.830078125 c 0
 87700.1044922 188.717773438 87695.9365234 131.729492188 87723.1894531 89.2705078125 c 0
 87766.5654297 21.693359375 87874.6972656 0 88054.015625 0 c 0
 88080.5078125 0 88102.015625 21.5078125 88102.015625 48 c 0
 88102.015625 74.4921875 88080.5078125 96 88054.015625 96 c 0
 87956.4912109 96 87890.125 103.627929688 87850.6064453 115.30859375 c 0
 87800.15625 130.220703125 87800.15625 147.262695312 87800.15625 157.125 c 0
 87800.15625 177.962890625 87808.2001953 190.489257812 87831.3134766 201.225585938 c 0
 87854.046875 211.787109375 87894.5644531 220 87954.015625 220 c 0
26216.015625 96 m 2
 26189.5234375 96 26168.015625 74.4921875 26168.015625 48 c 0
 26168.015625 21.5078125 26189.5234375 0 26216.015625 0 c 2
 26496.015625 0 l 2
 26522.5078125 0 26544.015625 21.5078125 26544.015625 48 c 0
 26544.015625 74.4921875 26522.5078125 96 26496.015625 96 c 2
 26216.015625 96 l 2
26288.015625 48 m 2
 26288.015625 21.5078125 26309.5234375 0 26336.015625 0 c 0
 26362.5078125 0 26384.015625 21.5078125 26384.015625 48 c 2
 26384.015625 708 l 2
 26384.015625 734.4921875 26362.5078125 756 26336.015625 756 c 2
 26216.015625 756 l 2
 26189.5234375 756 26168.015625 734.4921875 26168.015625 708 c 0
 26168.015625 681.5078125 26189.5234375 660 26216.015625 660 c 2
 26288.015625 660 l 1
 26288.015625 48 l 2
26844.015625 628 m 0
 26844.015625 703.268554688 26780.5029297 776 26636.015625 776 c 0
 26487.4335938 776 26411.2685547 699.21484375 26298.4824219 557.909179688 c 0
 26273.5068359 526.619140625 26295.96875 480 26336.015625 480 c 0
 26351.2021484 480 26364.7509766 487.067382812 26373.5488281 498.090820312 c 0
 26494.515625 649.64453125 26544.0244141 680 26636.015625 680 c 0
 26655.3125 680 26712.6181641 677.728515625 26738.1064453 651.788085938 c 0
 26745.2841797 644.482421875 26748.015625 637.814453125 26748.015625 628 c 0
 26748.015625 601.5078125 26769.5234375 580 26796.015625 580 c 0
 26822.5078125 580 26844.015625 601.5078125 26844.015625 628 c 0
89580.015625 756 m 2
 89553.5234375 756 89532.015625 734.4921875 89532.015625 708 c 0
 89532.015625 681.5078125 89553.5234375 660 89580.015625 660 c 2
 89712.015625 660 l 2
 89738.5078125 660 89760.015625 681.5078125 89760.015625 708 c 0
 89760.015625 734.4921875 89738.5078125 756 89712.015625 756 c 2
 89580.015625 756 l 2
90208.015625 756 m 2
 90181.5234375 756 90160.015625 734.4921875 90160.015625 708 c 0
 90160.015625 681.5078125 90181.5234375 660 90208.015625 660 c 2
 90340.015625 660 l 2
 90366.5078125 660 90388.015625 681.5078125 90388.015625 708 c 0
 90388.015625 734.4921875 90366.5078125 756 90340.015625 756 c 2
 90208.015625 756 l 2
89890.015625 756 m 2
 89863.5234375 756 89842.015625 734.4921875 89842.015625 708 c 0
 89842.015625 681.5078125 89863.5234375 660 89890.015625 660 c 2
 90030.015625 660 l 2
 90056.5078125 660 90078.015625 681.5078125 90078.015625 708 c 0
 90078.015625 734.4921875 90056.5078125 756 90030.015625 756 c 2
 89890.015625 756 l 2
90120.015625 0 m 0
 90142.1328125 0 90160.7753906 14.9912109375 90166.3300781 35.357421875 c 2
 90346.3300781 695.357421875 l 2
 90354.625 725.771484375 90331.6865234 756 90300.015625 756 c 0
 90277.8984375 756 90259.2558594 741.008789062 90253.7011719 720.642578125 c 2
 90122.0351562 237.868164062 l 1
 90006.5859375 699.663085938 l 2
 90001.3701172 720.526367188 89982.4853516 736 89960.015625 736 c 0
 89937.5458984 736 89918.6611328 720.526367188 89913.4453125 699.663085938 c 2
 89797.9960938 237.868164062 l 1
 89666.3300781 720.642578125 l 2
 89660.7753906 741.008789062 89642.1328125 756 89620.015625 756 c 0
 89588.3447266 756 89565.40625 725.771484375 89573.7011719 695.357421875 c 2
 89753.7011719 35.357421875 l 2
 89759.2558594 14.9912109375 89777.8984375 0 89800.015625 0 c 0
 89822.4853516 0 89841.3701172 15.4736328125 89846.5859375 36.3369140625 c 2
 89960.015625 490.053710938 l 1
 90073.4453125 36.3369140625 l 2
 90078.6611328 15.4736328125 90097.5458984 0 90120.015625 0 c 0
41828.015625 556 m 2
 41828.015625 529.5078125 41849.5234375 508 41876.015625 508 c 0
 41902.5078125 508 41924.015625 529.5078125 41924.015625 556 c 2
 41924.015625 708 l 2
 41924.015625 734.4921875 41902.5078125 756 41876.015625 756 c 0
 41849.5234375 756 41828.015625 734.4921875 41828.015625 708 c 2
 41828.015625 556 l 2
41188.015625 48 m 2
 41188.015625 21.5078125 41209.5234375 0 41236.015625 0 c 0
 41262.5078125 0 41284.015625 21.5078125 41284.015625 48 c 2
 41284.015625 220 l 2
 41284.015625 246.4921875 41262.5078125 268 41236.015625 268 c 0
 41209.5234375 268 41188.015625 246.4921875 41188.015625 220 c 2
 41188.015625 48 l 2
41837.5917969 527.241210938 m 0
 41865.1757812 490.461914062 41924.015625 510.23046875 41924.015625 556 c 0
 41924.015625 566.783203125 41920.4521484 576.741210938 41914.4394531 584.758789062 c 0
 41833.3613281 692.868164062 41730.9404297 776 41496.015625 776 c 0
 41449.7373047 776 41303.5673828 774.466796875 41248.3515625 662.755859375 c 0
 41234.5234375 634.779296875 41228.015625 602.845703125 41228.015625 568 c 0
 41228.015625 515.58203125 41251.5224609 447.205078125 41355.65625 401.490234375 c 0
 41412.7451172 376.427734375 41485.5546875 361.030273438 41575.1884766 352.127929688 c 0
 41643.8066406 345.30859375 41770.2685547 324.776367188 41824.8955078 264.321289062 c 0
 41841.4482422 246.001953125 41848.015625 228.211914062 41848.015625 208 c 0
 41848.015625 154.188476562 41822.3613281 125.286132812 41785.1523438 106.375 c 0
 41748.4609375 87.7265625 41691.4130859 76 41616.015625 76 c 0
 41412.8291016 76 41349.0585938 136.62109375 41276.0214844 246.51953125 c 0
 41267.4189453 259.461914062 41252.7070312 268 41236.015625 268 c 0
 41197.8105469 268 41174.9365234 225.189453125 41196.0097656 193.48046875 c 0
 41286.8496094 56.796875 41379.8056641 -20 41616.015625 -20 c 0
 41677.7607422 -20 41854.4609375 -16.1943359375 41920.4160156 107.55859375 c 0
 41936.4248047 137.596679688 41944.015625 171.688476562 41944.015625 208 c 0
 41944.015625 240.538085938 41940.0957031 412.342773438 41584.7802734 447.653320312 c 0
 41502.3505859 455.840820312 41367.0810547 477.928710938 41332.5136719 535.854492188 c 0
 41326.8339844 545.373046875 41324.015625 555.24609375 41324.015625 568 c 0
 41324.015625 624.176757812 41349.4013672 645.2421875 41372.1845703 657.26171875 c 0
 41399.1474609 671.486328125 41441.6660156 680 41496.015625 680 c 0
 41701.8222656 680 41775.4638672 610.083984375 41837.5917969 527.241210938 c 0
90608.015625 296 m 2
 90581.5234375 296 90560.015625 274.4921875 90560.015625 248 c 0
 90560.015625 221.5078125 90581.5234375 200 90608.015625 200 c 2
 91328.015625 200 l 2
 91354.5078125 200 91376.015625 221.5078125 91376.015625 248 c 0
 91376.015625 274.4921875 91354.5078125 296 91328.015625 296 c 2
 90608.015625 296 l 2
90608.0107422 248.001953125 m 1
 91328.0107422 248.001953125 l 1025
90608.015625 556 m 2
 90581.5234375 556 90560.015625 534.4921875 90560.015625 508 c 0
 90560.015625 481.5078125 90581.5234375 460 90608.015625 460 c 2
 91328.015625 460 l 2
 91354.5078125 460 91376.015625 481.5078125 91376.015625 508 c 0
 91376.015625 534.4921875 91354.5078125 556 91328.015625 556 c 2
 90608.015625 556 l 2
90608.0107422 508 m 1
 91328.0107422 508 l 1025
90560.015625 -272 m 0
 90560.015625 -298.4921875 90581.5234375 -320 90608.015625 -320 c 0
 90628.6708984 -320 90646.296875 -306.924804688 90653.0605469 -288.606445312 c 2
 91133.0605469 1011.39355469 l 2
 91144.5576172 1042.53027344 91121.4589844 1076 91088.015625 1076 c 0
 91067.3603516 1076 91049.734375 1062.92480469 91042.9707031 1044.60644531 c 2
 90562.9707031 -255.393554688 l 2
 90562.9707031 -260.569335938 90560.015625 -266.1640625 90560.015625 -272 c 0
90608.0107422 -272.000976562 m 1
 91088.0107422 1027.99902344 l 1025
90800.015625 -272 m 0
 90800.015625 -298.4921875 90821.5234375 -320 90848.015625 -320 c 0
 90868.6708984 -320 90886.296875 -306.924804688 90893.0605469 -288.606445312 c 2
 91373.0605469 1011.39355469 l 2
 91384.5576172 1042.53027344 91361.4589844 1076 91328.015625 1076 c 0
 91307.3603516 1076 91289.734375 1062.92480469 91282.9707031 1044.60644531 c 2
 90802.9707031 -255.393554688 l 2
 90802.9707031 -260.569335938 90800.015625 -266.1640625 90800.015625 -272 c 0
90848.0107422 -272.000976562 m 1
 91328.0107422 1027.99902344 l 1025
5008.015625 96 m 2
 4981.5234375 96 4960.015625 74.4921875 4960.015625 48 c 0
 4960.015625 21.5078125 4981.5234375 0 5008.015625 0 c 2
 5568.015625 0 l 2
 5594.5078125 0 5616.015625 21.5078125 5616.015625 48 c 0
 5616.015625 74.4921875 5594.5078125 96 5568.015625 96 c 2
 5008.015625 96 l 2
5240.015625 48 m 2
 5240.015625 21.5078125 5261.5234375 0 5288.015625 0 c 0
 5314.5078125 0 5336.015625 21.5078125 5336.015625 48 c 2
 5336.015625 1008 l 2
 5336.015625 1034.4921875 5314.5078125 1056 5288.015625 1056 c 0
 5270.2421875 1056 5254.71289062 1046.31933594 5246.41601562 1031.94824219 c 0
 5203.30566406 957.278320312 5115.67871094 866.547851562 4995.578125 834.370117188 c 0
 4975.10742188 828.885742188 4960.015625 810.19140625 4960.015625 788 c 0
 4960.015625 756.420898438 4990.08105469 733.4921875 5020.453125 741.629882812 c 0
 5110.68847656 765.805664062 5184.15332031 814.478515625 5240.015625 869.217773438 c 1
 5240.015625 48 l 2
862.065429688 81.9345703125 m 2
 831.926757812 51.794921875 853.50390625 0 896 0 c 0
 909.24609375 0 921.24609375 5.376953125 929.934570312 14.0654296875 c 2
 1649.91894531 734.065429688 l 2
 1680.05761719 764.205078125 1658.48046875 816 1615.984375 816 c 0
 1602.73828125 816 1590.73828125 810.623046875 1582.04980469 801.934570312 c 2
 862.065429688 81.9345703125 l 2
68790.015625 78.015625 m 1
 68793.1425781 78.015625 68794.015625 79.142578125 68794.015625 78.015625 c 0
 68790.8759766 76.015625 68790.015625 78.015625 68790.015625 78.015625 c 1
68694.015625 78.015625 m 0
 68694.015625 23.9052734375 68737.9365234 -19.984375 68792.015625 -19.984375 c 0
 68846.0947266 -19.984375 68890.015625 23.9052734375 68890.015625 78.015625 c 0
 68890.015625 132.107421875 68846.1074219 176.015625 68792.015625 176.015625 c 0
 68737.9238281 176.015625 68694.015625 132.107421875 68694.015625 78.015625 c 0
68742.015625 78.0087890625 m 0
 68742.015625 105.623046875 68764.4013672 128.008789062 68792.015625 128.008789062 c 0
 68819.6298828 128.008789062 68842.015625 105.623046875 68842.015625 78.0087890625 c 0
 68842.015625 50.39453125 68819.6298828 28.0087890625 68792.015625 28.0087890625 c 0
 68764.4013672 28.0087890625 68742.015625 50.39453125 68742.015625 78.0087890625 c 0
82902.015625 78.015625 m 1
 82902.015625 78.015625 82906.015625 79.142578125 82906.015625 78.015625 c 0
 82902.8759766 76.015625 82902.015625 78.015625 82902.015625 78.015625 c 1
82806.015625 78.015625 m 0
 82806.015625 23.9052734375 82849.9365234 -19.984375 82904.015625 -19.984375 c 0
 82958.0947266 -19.984375 83002.015625 23.9052734375 83002.015625 78.015625 c 0
 83002.015625 132.107421875 82958.1074219 176.015625 82904.015625 176.015625 c 0
 82849.9238281 176.015625 82806.015625 132.107421875 82806.015625 78.015625 c 0
82854.015625 78.009765625 m 0
 82854.015625 105.624023438 82876.4013672 128.009765625 82904.015625 128.009765625 c 0
 82931.6298828 128.009765625 82954.015625 105.624023438 82954.015625 78.009765625 c 0
 82954.015625 50.3955078125 82931.6298828 28.009765625 82904.015625 28.009765625 c 0
 82876.4013672 28.009765625 82854.015625 50.3955078125 82854.015625 78.009765625 c 0
44602.015625 78 m 0
 44602.015625 -0.5244140625 44496.3974609 -89.560546875 44462.8691406 -112.418945312 c 0
 44424.1757812 -139.020507812 44443.2597656 -200 44490.015625 -200 c 0
 44500.0878906 -200 44509.4394531 -196.891601562 44517.1621094 -191.581054688 c 0
 44530.6201172 -182.329101562 44698.015625 -64.3828125 44698.015625 78 c 0
 44698.015625 104.4921875 44676.5078125 126 44650.015625 126 c 0
 44623.5234375 126 44602.015625 104.4921875 44602.015625 78 c 0
34522.015625 78 m 0
 34522.015625 -0.5244140625 34416.3974609 -89.560546875 34382.8691406 -112.418945312 c 0
 34344.1757812 -139.020507812 34363.2597656 -200 34410.015625 -200 c 0
 34420.0878906 -200 34429.4394531 -196.891601562 34437.1621094 -191.581054688 c 0
 34450.6201172 -182.329101562 34618.015625 -64.3828125 34618.015625 78 c 0
 34618.015625 104.4921875 34596.5078125 126 34570.015625 126 c 0
 34543.5234375 126 34522.015625 104.4921875 34522.015625 78 c 0
34518.015625 678 m 2
 34520.4394531 683.55078125 34524.3613281 676 34520.015625 676 c 0
 34518.8759766 676 34518.015625 678 34518.015625 678 c 2
34422.015625 678 m 0
 34422.015625 623.889648438 34465.9365234 580 34520.015625 580 c 0
 34574.0947266 580 34618.015625 623.889648438 34618.015625 678 c 0
 34618.015625 732.091796875 34574.1074219 776 34520.015625 776 c 0
 34465.9238281 776 34422.015625 732.091796875 34422.015625 678 c 0
34470.015625 677.997070312 m 0
 34470.015625 705.611328125 34492.4013672 727.997070312 34520.015625 727.997070312 c 0
 34547.6298828 727.997070312 34570.015625 705.611328125 34570.015625 677.997070312 c 0
 34570.015625 650.3828125 34547.6298828 627.997070312 34520.015625 627.997070312 c 0
 34492.4013672 627.997070312 34470.015625 650.3828125 34470.015625 677.997070312 c 0
34518.015625 78 m 2
 34520.4394531 83.55078125 34524.3613281 76 34520.015625 76 c 0
 34518.8759766 76 34518.015625 78 34518.015625 78 c 2
34422.015625 78 m 0
 34422.015625 23.8896484375 34465.9365234 -20 34520.015625 -20 c 0
 34574.0947266 -20 34618.015625 23.8896484375 34618.015625 78 c 0
 34618.015625 132.091796875 34574.1074219 176 34520.015625 176 c 0
 34465.9238281 176 34422.015625 132.091796875 34422.015625 78 c 0
34470.015625 77.9970703125 m 0
 34470.015625 105.611328125 34492.4013672 127.997070312 34520.015625 127.997070312 c 0
 34547.6298828 127.997070312 34570.015625 105.611328125 34570.015625 77.9970703125 c 0
 34570.015625 50.3828125 34547.6298828 27.9970703125 34520.015625 27.9970703125 c 0
 34492.4013672 27.9970703125 34470.015625 50.3828125 34470.015625 77.9970703125 c 0
59552.015625 1168 m 0
 59552.015625 1135.203125 59584.2851562 1112.15039062 59615.1865234 1122.45117188 c 2
 59855.1865234 1202.45117188 l 2
 59874.2529297 1208.80664062 59888.015625 1226.80859375 59888.015625 1248 c 0
 59888.015625 1280.796875 59855.7460938 1303.84960938 59824.8447266 1293.54882812 c 2
 59584.8447266 1213.54882812 l 2
 59565.7783203 1207.19335938 59552.015625 1189.19140625 59552.015625 1168 c 0
61504.015625 1208 m 1
 61496.015625 1200 l 1
 61488.015625 1208 l 1
 61496.015625 1216 l 1
 61504.015625 1208 l 1
61408.015625 1208 m 0
 61408.015625 1159.42871094 61447.4443359 1120 61496.015625 1120 c 0
 61544.5869141 1120 61584.015625 1159.42871094 61584.015625 1208 c 0
 61584.015625 1256.57128906 61544.5869141 1296 61496.015625 1296 c 0
 61447.4443359 1296 61408.015625 1256.57128906 61408.015625 1208 c 0
61456.015625 1208 m 0
 61456.015625 1230.09179688 61473.9238281 1248 61496.015625 1248 c 0
 61518.1074219 1248 61536.015625 1230.09179688 61536.015625 1208 c 0
 61536.015625 1185.90820312 61518.1074219 1168 61496.015625 1168 c 0
 61473.9238281 1168 61456.015625 1185.90820312 61456.015625 1208 c 0
61984.015625 1208 m 1
 61976.015625 1200 l 1
 61968.015625 1208 l 1
 61976.015625 1216 l 1
 61984.015625 1208 l 1
61888.015625 1208 m 0
 61888.015625 1159.42871094 61927.4443359 1120 61976.015625 1120 c 0
 62024.5869141 1120 62064.015625 1159.42871094 62064.015625 1208 c 0
 62064.015625 1256.57128906 62024.5869141 1296 61976.015625 1296 c 0
 61927.4443359 1296 61888.015625 1256.57128906 61888.015625 1208 c 0
61936.015625 1208 m 0
 61936.015625 1230.09179688 61953.9238281 1248 61976.015625 1248 c 0
 61998.1074219 1248 62016.015625 1230.09179688 62016.015625 1208 c 0
 62016.015625 1185.90820312 61998.1074219 1168 61976.015625 1168 c 0
 61953.9238281 1168 61936.015625 1185.90820312 61936.015625 1208 c 0
6264.015625 1208 m 0
 6264.015625 1225.70996094 6278.30566406 1240 6296.015625 1240 c 0
 6313.72558594 1240 6328.015625 1225.70996094 6328.015625 1208 c 0
 6328.015625 1190.29003906 6313.72558594 1176 6296.015625 1176 c 0
 6278.30566406 1176 6264.015625 1190.29003906 6264.015625 1208 c 0
6168.015625 1208 m 0
 6168.015625 1137.33496094 6225.35058594 1080 6296.015625 1080 c 0
 6366.68066406 1080 6424.015625 1137.33496094 6424.015625 1208 c 0
 6424.015625 1278.66503906 6366.68066406 1336 6296.015625 1336 c 0
 6225.35058594 1336 6168.015625 1278.66503906 6168.015625 1208 c 0
39683.4980469 -244.681640625 m 0
 39723.6035156 -195.552734375 39728.1230469 -85.462890625 39593.1357422 -53.1005859375 c 1
 39622.9765625 6.580078125 l 2
 39638.8154297 38.259765625 39615.6904297 76 39580.015625 76 c 0
 39561.21875 76 39544.9316406 65.1728515625 39537.0546875 49.419921875 c 2
 39477.0546875 -70.580078125 l 2
 39461.2158203 -102.259765625 39484.3408203 -140 39520.015625 -140 c 0
 39546.8847656 -140.126953125 39598.7910156 -149.095703125 39610.3427734 -165.844726562 c 0
 39613.2529297 -170.065429688 39612.5273438 -179.836914062 39609.0986328 -184.037109375 c 0
 39606.9550781 -186.663085938 39596.6064453 -193.975585938 39572.8652344 -198.3359375 c 0
 39544.3369141 -203.575195312 39503.1640625 -204 39460.015625 -204 c 0
 39433.5234375 -204 39412.015625 -225.5078125 39412.015625 -252 c 0
 39412.015625 -278.4921875 39433.5234375 -300 39460.015625 -300 c 0
 39551.6982422 -300 39638.3398438 -300 39683.4980469 -244.681640625 c 0
14193.9501953 1041.93457031 m 2
 14163.8105469 1072.07324219 14112.015625 1050.49609375 14112.015625 1008 c 0
 14112.015625 994.75390625 14117.3925781 982.75390625 14126.0810547 974.065429688 c 2
 14526.0810547 574.065429688 l 2
 14556.2207031 543.926757812 14608.015625 565.50390625 14608.015625 608 c 0
 14608.015625 621.24609375 14602.6386719 633.24609375 14593.9501953 641.934570312 c 2
 14193.9501953 1041.93457031 l 2
42924.015625 -173.328125 m 0
 42830.3613281 -173.328125 42772.015625 -113.97265625 42772.015625 -61.328125 c 2
 42772.015625 189.34375 l 2
 42772.015625 249.297851562 42732.6455078 282.185546875 42712.7832031 297.088867188 c 2
 42552.7753906 417.094726562 l 2
 42521.2949219 440.705078125 42476.015625 418.075195312 42476.015625 378.671875 c 0
 42476.015625 362.963867188 42483.5771484 349.0078125 42495.2558594 340.249023438 c 2
 42655.2480469 220.254882812 l 2
 42663.7304688 213.890625 42668.7880859 208.590820312 42671.4941406 204.686523438 c 0
 42674.7333984 200.014648438 42676.015625 196.848632812 42676.015625 189.34375 c 2
 42676.015625 -61.328125 l 2
 42676.015625 -168.256835938 42777.4804688 -269.328125 42924.015625 -269.328125 c 0
 42950.5078125 -269.328125 42972.015625 -247.8203125 42972.015625 -221.328125 c 0
 42972.015625 -194.8359375 42950.5078125 -173.328125 42924.015625 -173.328125 c 0
60584.8115234 1207.54199219 m 2
 60546.1855469 1180.90332031 60565.2949219 1120 60612.015625 1120 c 0
 60622.1123047 1120 60631.4863281 1123.12402344 60639.2197266 1128.45800781 c 2
 60728.9023438 1190.30761719 l 1
 60826.0429688 1127.63574219 l 2
 60857.7832031 1107.15917969 60900.015625 1130.078125 60900.015625 1168 c 0
 60900.015625 1184.92480469 60891.2363281 1199.81640625 60877.9882812 1208.36425781 c 2
 60753.9882812 1288.36425781 l 2
 60737.7900391 1298.81347656 60716.7753906 1298.55175781 60700.8115234 1287.54199219 c 2
 60584.8115234 1207.54199219 l 2
28113.140625 549.203125 m 2
 28086.6484375 549.203125 28065.140625 527.6953125 28065.140625 501.203125 c 0
 28065.140625 474.7109375 28086.6484375 453.203125 28113.140625 453.203125 c 2
 28548.890625 453.203125 l 2
 28575.3828125 453.203125 28596.890625 474.7109375 28596.890625 501.203125 c 0
 28596.890625 527.6953125 28575.3828125 549.203125 28548.890625 549.203125 c 2
 28113.140625 549.203125 l 2
29513.703125 673.3125 m 0
 29562.5644531 673.3125 29605.1708984 620.734375 29605.1708984 575.23046875 c 0
 29605.1708984 574.671875 29601.84375 547.500976562 29601.84375 547.21875 c 0
 29601.84375 520.7265625 29623.3515625 499.21875 29649.84375 499.21875 c 0
 29672.3974609 499.21875 29691.3398438 514.807617188 29696.4726562 535.790039062 c 0
 29723.7246094 647.192382812 29629.5283203 769.3125 29513.703125 769.3125 c 0
 29357.4208984 769.3125 29231.1875 550.4140625 29231.1875 327.125 c 0
 29231.1875 177.280273438 29310.0576172 82.046875 29408.921875 82.046875 c 0
 29445.9169922 82.046875 29582.5957031 88.0703125 29642.1464844 293.819335938 c 0
 29650.9912109 324.379882812 29628.0166016 355.171875 29596.03125 355.171875 c 0
 29574.171875 355.171875 29555.7060547 340.528320312 29549.9160156 320.524414062 c 0
 29537.2988281 276.930664062 29512.7861328 219.201171875 29467.7666016 193.060546875 c 0
 29451.5332031 183.634765625 29432.8359375 178.046875 29408.921875 178.046875 c 0
 29359.3515625 178.046875 29327.1875 246.508789062 29327.1875 327.125 c 0
 29327.1875 510.90234375 29428.1621094 673.3125 29513.703125 673.3125 c 0
65116.390625 592.5625 m 2
 65116.390625 701.41796875 65053.1591797 776 64958.375 776 c 0
 64854.09375 776 64785.1943359 698.572265625 64720.1308594 601.62109375 c 0
 64698.8583984 569.923828125 64721.7167969 526.921875 64760.015625 526.921875 c 0
 64776.6289062 526.921875 64791.2822266 535.380859375 64799.9003906 548.22265625 c 0
 64864.1494141 643.958984375 64909.25 680 64958.375 680 c 0
 64974.078125 680 64998.4345703 677.049804688 65012.1386719 641.688476562 c 0
 65017.3535156 628.232421875 65020.390625 610.970703125 65020.390625 592.5625 c 2
 65020.390625 48 l 2
 65020.390625 21.5078125 65041.8984375 0 65068.390625 0 c 0
 65094.8828125 0 65116.390625 21.5078125 65116.390625 48 c 2
 65116.390625 592.5625 l 2
65004.390625 96 m 2
 64977.8984375 96 64956.390625 74.4921875 64956.390625 48 c 0
 64956.390625 21.5078125 64977.8984375 0 65004.390625 0 c 2
 65132.390625 0 l 2
 65158.8828125 0 65180.390625 21.5078125 65180.390625 48 c 0
 65180.390625 74.4921875 65158.8828125 96 65132.390625 96 c 2
 65004.390625 96 l 2
64387.625 96 m 2
 64361.1328125 96 64339.625 74.4921875 64339.625 48 c 0
 64339.625 21.5078125 64361.1328125 0 64387.625 0 c 2
 64515.625 0 l 2
 64542.1171875 0 64563.625 21.5078125 64563.625 48 c 0
 64563.625 74.4921875 64542.1171875 96 64515.625 96 c 2
 64387.625 96 l 2
EndSplineSet
EndChar

StartChar: parenleft
Encoding: 40 40 1
Width: 1008
VWidth: 4000
Flags: HW
LayerCount: 2
Fore
SplineSet
636.431640625 1049.59082031 m 2
 653.233398438 1081.32617188 630.12890625 1120 593.98046875 1120 c 0
 575.580078125 1120 559.583984375 1109.62402344 551.529296875 1094.40917969 c 0
 548.129882812 1087.98828125 365.98046875 742.27734375 365.98046875 392 c 0
 365.98046875 233.330078125 402.896484375 77.951171875 443.391601562 -46.34765625 c 0
 494.013671875 -201.729492188 550.666015625 -308.778320312 551.529296875 -310.409179688 c 0
 559.583984375 -325.624023438 575.580078125 -336 593.98046875 -336 c 0
 630.12890625 -336 653.233398438 -297.326171875 636.431640625 -265.590820312 c 2
 636.431640625 -265.590820312 461.98046875 65.7880859375 461.98046875 392 c 0
 461.98046875 718.211914062 636.431640625 1049.59082031 636.431640625 1049.59082031 c 2
EndSplineSet
EndChar

StartChar: zero
Encoding: 48 48 2
Width: 1008
VWidth: 4000
Flags: HW
LayerCount: 2
Fore
SplineSet
504 76 m 4
 357.80859375 76 232 278.004882812 232 528 c 4
 232 777.991210938 357.806640625 980 504 980 c 4
 650.19140625 980 776 777.995117188 776 528 c 4
 776 278.008789062 650.193359375 76 504 76 c 4
504 1076 m 4
 298.434570312 1076 136 831.864257812 136 528 c 4
 136 224.15625 298.420898438 -20 504 -20 c 4
 709.565429688 -20 872 224.135742188 872 528 c 4
 872 831.84375 709.579101562 1076 504 1076 c 4
182.5078125 72.134765625 m 6
 163.970703125 40.35546875 187.006835938 0 224 0 c 4
 241.696289062 0 257.168945312 9.5966796875 265.4921875 23.865234375 c 6
 825.4921875 983.865234375 l 6
 844.029296875 1015.64453125 820.993164062 1056 784 1056 c 4
 766.303710938 1056 750.831054688 1046.40332031 742.5078125 1032.13476562 c 6
 182.5078125 72.134765625 l 6
EndSplineSet
EndChar

StartChar: eight
Encoding: 56 56 3
Width: 1008
VWidth: 4000
Flags: HW
LayerCount: 2
Fore
SplineSet
504 76 m 4
 335.203125 76 192 171.233398438 192 288 c 4
 192 404.754882812 335.185546875 500 504 500 c 4
 672.796875 500 816 404.766601562 816 288 c 4
 816 171.245117188 672.814453125 76 504 76 c 4
504 596 m 4
 274.146484375 596 96 456.850585938 96 288 c 4
 96 119.157226562 274.135742188 -20 504 -20 c 4
 733.853515625 -20 912 119.149414062 912 288 c 4
 912 456.842773438 733.864257812 596 504 596 c 4
504 596 m 4
 356.854492188 596 232 682.016601562 232 788 c 4
 232 893.98046875 356.850585938 980 504 980 c 4
 651.145507812 980 776 893.983398438 776 788 c 4
 776 682.01953125 651.149414062 596 504 596 c 4
504 1076 m 4
 296.928710938 1076 136 945.788085938 136 788 c 4
 136 630.21875 296.919921875 500 504 500 c 4
 711.071289062 500 872 630.211914062 872 788 c 4
 872 945.78125 711.080078125 1076 504 1076 c 4
EndSplineSet
EndChar

StartChar: at
Encoding: 64 64 4
Width: 1008
VWidth: 4000
Flags: HW
LayerCount: 2
Fore
SplineSet
634 -124 m 0
 626.899414062 -124 599.140625 -128.65234375 557.850585938 -128.65234375 c 0
 383.997070312 -128.65234375 302.114257812 -42.7412109375 257.864257812 35.890625 c 0
 208.583007812 123.461914062 182 249.125976562 182 408 c 0
 182 644.006835938 225.060546875 866.252929688 369.88671875 946.327148438 c 0
 409.345703125 968.143554688 456.58203125 980 514 980 c 0
 650.912109375 980 724.327148438 911.578125 766.8125 829.463867188 c 0
 806.538085938 752.682617188 826 647.885742188 826 530.015625 c 0
 826 413.069335938 816.2734375 337.153320312 802.596679688 293.0703125 c 0
 791.5 257.302734375 779.40625 245.844726562 773.248046875 242.076171875 c 0
 744.9375 224.751953125 702 267.4609375 702 303.828125 c 0
 702 330.3203125 680.4921875 351.828125 654 351.828125 c 0
 627.5078125 351.828125 606 330.3203125 606 303.828125 c 0
 606 254.021484375 630.290039062 211.33203125 661.739257812 182.4140625 c 0
 686.85546875 159.319335938 719.174804688 142.0625 756.25 142.0625 c 0
 809.477539062 142.0625 864.700195312 169.197265625 894.305664062 264.625 c 0
 912.88671875 324.516601562 922 407.998046875 922 530.015625 c 0
 922 608.708984375 918.82421875 915.208007812 700.90234375 1032.31054688 c 0
 647.662109375 1060.91992188 585.0390625 1076 514 1076 c 0
 390.53125 1076 248.536132812 1030.16601562 163.509765625 851.762695312 c 0
 109.647460938 738.748046875 86 589.911132812 86 408 c 0
 86 272.381835938 100.084960938 -60.6416015625 351.44140625 -181.419921875 c 0
 424.497070312 -216.522460938 518.631835938 -233.908203125 639.658203125 -219.668945312 c 0
 663.487304688 -216.866210938 682 -196.578125 682 -172 c 0
 682 -145.5078125 660.4921875 -124 634 -124 c 0
654 255.828125 m 0
 680.4921875 255.828125 702 277.3359375 702 303.828125 c 2
 701.3125 633.211914062 l 2
 701.256835938 659.65625 679.770507812 681.109375 653.3125 681.109375 c 0
 626.8203125 681.109375 605.3125 659.6015625 605.3125 633.109375 c 2
 606 303.725585938 l 2
 606 277.28125 627.541992188 255.828125 654 255.828125 c 0
514 816 m 0
 398.606445312 816 326 747.474609375 326 648 c 0
 326 621.5078125 347.5078125 600 374 600 c 0
 400.4921875 600 422 621.5078125 422 648 c 0
 422 683.603515625 438.916015625 697.547851562 448.935546875 704.10546875 c 0
 463.094726562 713.374023438 485.458984375 720 514 720 c 0
 547.91796875 720 605.3125 708.783203125 605.3125 632.859375 c 0
 605.3125 581.3515625 561.45703125 548.943359375 476.734375 523.536132812 c 0
 427.096679688 508.662109375 306 466.336914062 306 328 c 0
 306 212.216796875 373.633789062 128.3125 474 128.3125 c 0
 580.262695312 128.3125 702 220.95703125 702 348 c 0
 702 374.4921875 680.4921875 396 654 396 c 0
 627.5078125 396 606 374.4921875 606 348 c 0
 606 275.69140625 528.265625 224.3125 474 224.3125 c 0
 405.388671875 224.3125 402 310.895507812 402 328 c 0
 402 365.458007812 414.44140625 404.6328125 504.296875 431.557617188 c 0
 590.57421875 457.431640625 701.3125 509.3359375 701.3125 632.859375 c 0
 701.3125 739.986328125 627.387695312 816 514 816 c 0
EndSplineSet
EndChar

StartChar: H
Encoding: 72 72 5
Width: 1008
VWidth: 4000
Flags: HW
LayerCount: 2
Fore
SplineSet
132 1056 m 2
 105.5078125 1056 84 1034.4921875 84 1008 c 0
 84 981.5078125 105.5078125 960 132 960 c 2
 316 960 l 2
 342.4921875 960 364 981.5078125 364 1008 c 0
 364 1034.4921875 342.4921875 1056 316 1056 c 2
 132 1056 l 2
132 96 m 2
 105.5078125 96 84 74.4921875 84 48 c 0
 84 21.5078125 105.5078125 0 132 0 c 2
 316 0 l 2
 342.4921875 0 364 21.5078125 364 48 c 0
 364 74.4921875 342.4921875 96 316 96 c 2
 132 96 l 2
176 68 m 2
 176 41.5078125 197.5078125 20 224 20 c 0
 250.4921875 20 272 41.5078125 272 68 c 2
 272 1008 l 2
 272 1034.4921875 250.4921875 1056 224 1056 c 0
 197.5078125 1056 176 1034.4921875 176 1008 c 2
 176 68 l 2
692 1056 m 2
 665.5078125 1056 644 1034.4921875 644 1008 c 0
 644 981.5078125 665.5078125 960 692 960 c 2
 876 960 l 2
 902.4921875 960 924 981.5078125 924 1008 c 0
 924 1034.4921875 902.4921875 1056 876 1056 c 2
 692 1056 l 2
692 96 m 2
 665.5078125 96 644 74.4921875 644 48 c 0
 644 21.5078125 665.5078125 0 692 0 c 2
 876 0 l 2
 902.4921875 0 924 21.5078125 924 48 c 0
 924 74.4921875 902.4921875 96 876 96 c 2
 692 96 l 2
736 68 m 2
 736 41.5078125 757.5078125 20 784 20 c 0
 810.4921875 20 832 41.5078125 832 68 c 2
 832 1008 l 2
 832 1034.4921875 810.4921875 1056 784 1056 c 0
 757.5078125 1056 736 1034.4921875 736 1008 c 2
 736 68 l 2
244 596 m 2
 217.5078125 596 196 574.4921875 196 548 c 0
 196 521.5078125 217.5078125 500 244 500 c 2
 764 500 l 2
 790.4921875 500 812 521.5078125 812 548 c 0
 812 574.4921875 790.4921875 596 764 596 c 2
 244 596 l 2
EndSplineSet
EndChar

StartChar: O
Encoding: 79 79 6
Width: 1008
VWidth: 4000
Flags: HW
LayerCount: 2
Fore
SplineSet
504 76 m 0
 357.80859375 76 232 278.004882812 232 528 c 0
 232 777.991210938 357.806640625 980 504 980 c 0
 650.19140625 980 776 777.995117188 776 528 c 0
 776 278.008789062 650.193359375 76 504 76 c 0
504 1076 m 0
 298.434570312 1076 136 831.864257812 136 528 c 0
 136 224.15625 298.420898438 -20 504 -20 c 0
 709.565429688 -20 872 224.135742188 872 528 c 0
 872 831.84375 709.579101562 1076 504 1076 c 0
EndSplineSet
EndChar

StartChar: X
Encoding: 88 88 7
Width: 1008
VWidth: 4000
Flags: HW
LayerCount: 2
Fore
SplineSet
244 1056 m 4
 207.330078125 1056 184.262695312 1016.29003906 202.133789062 984.518554688 c 6
 742.133789062 24.5185546875 l 6
 750.362304688 9.890625 766.03515625 0 784 0 c 4
 820.669921875 0 843.737304688 39.7099609375 825.866210938 71.4814453125 c 6
 285.866210938 1031.48144531 l 6
 277.637695312 1046.109375 261.96484375 1056 244 1056 c 4
805.866210938 984.518554688 m 6
 823.737304688 1016.29003906 800.670898438 1056 764 1056 c 4
 746.03515625 1056 730.362304688 1046.109375 722.133789062 1031.48144531 c 6
 182.133789062 71.4814453125 l 6
 164.262695312 39.7099609375 187.329101562 0 224 0 c 4
 241.96484375 0 257.637695312 9.890625 265.866210938 24.5185546875 c 6
 805.866210938 984.518554688 l 6
644 96 m 6
 617.5078125 96 596 74.4921875 596 48 c 4
 596 21.5078125 617.5078125 0 644 0 c 6
 904 0 l 6
 930.4921875 0 952 21.5078125 952 48 c 4
 952 74.4921875 930.4921875 96 904 96 c 6
 644 96 l 6
104 96 m 6
 77.5078125 96 56 74.4921875 56 48 c 4
 56 21.5078125 77.5078125 0 104 0 c 6
 364 0 l 6
 390.4921875 0 412 21.5078125 412 48 c 4
 412 74.4921875 390.4921875 96 364 96 c 6
 104 96 l 6
624 1056 m 6
 597.5078125 1056 576 1034.4921875 576 1008 c 4
 576 981.5078125 597.5078125 960 624 960 c 6
 864 960 l 6
 890.4921875 960 912 981.5078125 912 1008 c 4
 912 1034.4921875 890.4921875 1056 864 1056 c 6
 624 1056 l 6
144 1056 m 6
 117.5078125 1056 96 1034.4921875 96 1008 c 4
 96 981.5078125 117.5078125 960 144 960 c 6
 384 960 l 6
 410.4921875 960 432 981.5078125 432 1008 c 4
 432 1034.4921875 410.4921875 1056 384 1056 c 6
 144 1056 l 6
EndSplineSet
EndChar

StartChar: x
Encoding: 120 120 8
Width: 1008
VWidth: 4000
Flags: HW
LayerCount: 2
Fore
SplineSet
132 96 m 2
 105.5078125 96 84 74.4921875 84 48 c 0
 84 21.5078125 105.5078125 0 132 0 c 2
 356 0 l 2
 382.4921875 0 404 21.5078125 404 48 c 0
 404 74.4921875 382.4921875 96 356 96 c 2
 132 96 l 2
652 96 m 2
 625.5078125 96 604 74.4921875 604 48 c 0
 604 21.5078125 625.5078125 0 652 0 c 2
 876 0 l 2
 902.4921875 0 924 21.5078125 924 48 c 0
 924 74.4921875 902.4921875 96 876 96 c 2
 652 96 l 2
172 756 m 2
 145.5078125 756 124 734.4921875 124 708 c 0
 124 681.5078125 145.5078125 660 172 660 c 2
 376 660 l 2
 402.4921875 660 424 681.5078125 424 708 c 0
 424 734.4921875 402.4921875 756 376 756 c 2
 172 756 l 2
632 756 m 2
 605.5078125 756 584 734.4921875 584 708 c 0
 584 681.5078125 605.5078125 660 632 660 c 2
 836 660 l 2
 862.4921875 660 884 681.5078125 884 708 c 0
 884 734.4921875 862.4921875 756 836 756 c 2
 632 756 l 2
280.61328125 739.02734375 m 2
 251.791992188 772.995117188 196 752.359375 196 708 c 0
 196 696.174804688 200.28515625 685.341796875 207.38671875 676.97265625 c 2
 767.38671875 16.97265625 l 2
 796.208007812 -16.9951171875 852 3.640625 852 48 c 0
 852 59.8251953125 847.71484375 70.658203125 840.61328125 79.02734375 c 2
 280.61328125 739.02734375 l 2
800.61328125 676.97265625 m 2
 826.959960938 708.024414062 804.693359375 756 764 756 c 0
 749.333984375 756 736.194335938 749.408203125 727.38671875 739.02734375 c 2
 167.38671875 79.02734375 l 2
 141.040039062 47.9755859375 163.306640625 0 204 0 c 0
 218.666015625 0 231.805664062 6.591796875 240.61328125 16.97265625 c 2
 800.61328125 676.97265625 l 2
EndSplineSet
EndChar

StartChar: one
Encoding: 49 49 9
Width: 1008
VWidth: 4000
Flags: HW
LayerCount: 2
Fore
SplineSet
224 96 m 6
 197.5078125 96 176 74.4921875 176 48 c 4
 176 21.5078125 197.5078125 0 224 0 c 6
 784 0 l 6
 810.4921875 0 832 21.5078125 832 48 c 4
 832 74.4921875 810.4921875 96 784 96 c 6
 224 96 l 6
456 48 m 6
 456 21.5078125 477.5078125 0 504 0 c 4
 530.4921875 0 552 21.5078125 552 48 c 6
 552 1008 l 6
 552 1034.4921875 530.4921875 1056 504 1056 c 6
 268 1056 l 6
 241.5078125 1056 220 1034.4921875 220 1008 c 4
 220 981.5078125 241.5078125 960 268 960 c 6
 456 960 l 5
 456 48 l 6
EndSplineSet
EndChar

StartChar: l
Encoding: 108 108 10
Width: 1008
VWidth: 4000
Flags: HW
LayerCount: 2
Fore
SplineSet
224 96 m 6
 197.5078125 96 176 74.4921875 176 48 c 4
 176 21.5078125 197.5078125 0 224 0 c 6
 784 0 l 6
 810.4921875 0 832 21.5078125 832 48 c 4
 832 74.4921875 810.4921875 96 784 96 c 6
 224 96 l 6
456 48 m 6
 456 21.5078125 477.5078125 0 504 0 c 4
 530.4921875 0 552 21.5078125 552 48 c 6
 552 1008 l 6
 552 1034.4921875 530.4921875 1056 504 1056 c 6
 268 1056 l 6
 241.5078125 1056 220 1034.4921875 220 1008 c 4
 220 981.5078125 241.5078125 960 268 960 c 6
 456 960 l 5
 456 48 l 6
EndSplineSet
EndChar

StartChar: I
Encoding: 73 73 11
Width: 1008
VWidth: 4000
Flags: HW
LayerCount: 2
Fore
SplineSet
224 96 m 2
 197.5078125 96 176 74.4921875 176 48 c 0
 176 21.5078125 197.5078125 0 224 0 c 2
 784 0 l 2
 810.4921875 0 832 21.5078125 832 48 c 0
 832 74.4921875 810.4921875 96 784 96 c 2
 224 96 l 2
224 1056 m 2
 197.5078125 1056 176 1034.4921875 176 1008 c 0
 176 981.5078125 197.5078125 960 224 960 c 2
 784 960 l 2
 810.4921875 960 832 981.5078125 832 1008 c 0
 832 1034.4921875 810.4921875 1056 784 1056 c 2
 224 1056 l 2
552 1008 m 2
 552 1034.4921875 530.4921875 1056 504 1056 c 0
 477.5078125 1056 456 1034.4921875 456 1008 c 2
 456 48 l 2
 456 21.5078125 477.5078125 0 504 0 c 0
 530.4921875 0 552 21.5078125 552 48 c 2
 552 1008 l 2
EndSplineSet
EndChar

StartChar: Y
Encoding: 89 89 12
Width: 1008
VWidth: 4000
Flags: HW
LayerCount: 2
Fore
SplineSet
344 96 m 2
 317.5078125 96 296 74.4921875 296 48 c 0
 296 21.5078125 317.5078125 0 344 0 c 2
 664 0 l 2
 690.4921875 0 712 21.5078125 712 48 c 0
 712 74.4921875 690.4921875 96 664 96 c 2
 344 96 l 2
456 48 m 2
 456 21.5078125 477.5078125 0 504 0 c 0
 530.4921875 0 552 21.5078125 552 48 c 2
 552 448 l 2
 552 474.4921875 530.4921875 496 504 496 c 0
 477.5078125 496 456 474.4921875 456 448 c 2
 456 48 l 2
204 1056 m 0
 167.750976562 1056 144.653320312 1017.12792969 161.659179688 985.3828125 c 2
 461.659179688 425.3828125 l 2
 479.731445312 391.647460938 528.267578125 391.647460938 546.340820312 425.3828125 c 2
 846.340820312 985.3828125 l 2
 863.346679688 1017.12792969 840.249023438 1056 804 1056 c 0
 785.68359375 1056 769.749023438 1045.71875 761.659179688 1030.6171875 c 2
 504 549.65234375 l 1
 246.340820312 1030.6171875 l 2
 238.250976562 1045.71875 222.31640625 1056 204 1056 c 0
104 1056 m 2
 77.5078125 1056 56 1034.4921875 56 1008 c 0
 56 981.5078125 77.5078125 960 104 960 c 2
 344 960 l 2
 370.4921875 960 392 981.5078125 392 1008 c 0
 392 1034.4921875 370.4921875 1056 344 1056 c 2
 104 1056 l 2
664 1056 m 2
 637.5078125 1056 616 1034.4921875 616 1008 c 0
 616 981.5078125 637.5078125 960 664 960 c 2
 904 960 l 2
 930.4921875 960 952 981.5078125 952 1008 c 0
 952 1034.4921875 930.4921875 1056 904 1056 c 2
 664 1056 l 2
EndSplineSet
EndChar

StartChar: quotedbl
Encoding: 34 34 13
Width: 1008
VWidth: 4000
Flags: HW
LayerCount: 2
Fore
SplineSet
704 560 m 0
 728.86328125 560 749.336914062 578.9453125 751.759765625 603.174804688 c 0
 792 1005.57421875 792 1005.57421875 792 1008 c 0
 792 1034.4921875 770.4921875 1056 744 1056 c 0
 664 1056 664 1056 664 1056 c 2
 637.5078125 1056 616 1034.4921875 616 1008 c 0
 616 1005.57421875 616 1005.57421875 656.240234375 603.174804688 c 0
 658.663085938 578.9453125 679.13671875 560 704 560 c 0
664 1007.99902344 m 1
 744 1007.99902344 l 1
 704 607.999023438 l 1
 664 1007.99902344 l 1
304 560 m 0
 328.86328125 560 349.336914062 578.9453125 351.759765625 603.174804688 c 0
 392 1005.57421875 392 1005.57421875 392 1008 c 0
 392 1034.4921875 370.4921875 1056 344 1056 c 0
 264 1056 264 1056 264 1056 c 2
 237.5078125 1056 216 1034.4921875 216 1008 c 0
 216 1005.57421875 216 1005.57421875 256.240234375 603.174804688 c 0
 258.663085938 578.9453125 279.13671875 560 304 560 c 0
264 1007.99902344 m 1
 344 1007.99902344 l 1
 304 607.999023438 l 1
 264 1007.99902344 l 1
EndSplineSet
EndChar

StartChar: asterisk
Encoding: 42 42 14
Width: 1008
VWidth: 4000
Flags: HW
LayerCount: 2
Fore
SplineSet
204 776 m 2
 177.5078125 776 156 754.4921875 156 728 c 0
 156 701.5078125 177.5078125 680 204 680 c 2
 804 680 l 2
 830.4921875 680 852 701.5078125 852 728 c 0
 852 754.4921875 830.4921875 776 804 776 c 2
 204 776 l 2
354 1035.8125 m 0
 317.099609375 1035.8125 294.053710938 995.641601562 312.400390625 963.864257812 c 2
 612.400390625 444.239257812 l 2
 620.697265625 429.868164062 636.2265625 420.1875 654 420.1875 c 0
 690.900390625 420.1875 713.946289062 460.358398438 695.599609375 492.135742188 c 2
 395.599609375 1011.76074219 l 2
 387.302734375 1026.13183594 371.7734375 1035.8125 354 1035.8125 c 0
695.599609375 963.864257812 m 2
 713.946289062 995.642578125 690.900390625 1035.8125 654 1035.8125 c 0
 636.2265625 1035.8125 620.697265625 1026.13183594 612.400390625 1011.76074219 c 2
 312.400390625 492.135742188 l 2
 294.053710938 460.357421875 317.099609375 420.1875 354 420.1875 c 0
 371.7734375 420.1875 387.302734375 429.868164062 395.599609375 444.239257812 c 2
 695.599609375 963.864257812 l 2
EndSplineSet
EndChar

StartChar: colon
Encoding: 58 58 15
Width: 1008
VWidth: 4000
Flags: HW
LayerCount: 2
Fore
SplineSet
504 676 m 0
 501.34375 676 501.377929688 680 504 680 c 0
 506.622070312 680 506.65625 676 504 676 c 0
406 678 m 0
 406 623.889648438 449.920898438 580 504 580 c 0
 558.079101562 580 602 623.889648438 602 678 c 0
 602 732.091796875 558.091796875 776 504 776 c 0
 449.908203125 776 406 732.091796875 406 678 c 0
454 677.997070312 m 0
 454 705.611328125 476.385742188 727.997070312 504 727.997070312 c 0
 531.614257812 727.997070312 554 705.611328125 554 677.997070312 c 0
 554 650.3828125 531.614257812 627.997070312 504 627.997070312 c 0
 476.385742188 627.997070312 454 650.3828125 454 677.997070312 c 0
504 76 m 0
 501.34375 76 501.377929688 80 504 80 c 0
 506.622070312 80 506.65625 76 504 76 c 0
406 78 m 0
 406 23.8896484375 449.920898438 -20 504 -20 c 0
 558.079101562 -20 602 23.8896484375 602 78 c 0
 602 132.091796875 558.091796875 176 504 176 c 0
 449.908203125 176 406 132.091796875 406 78 c 0
454 77.9970703125 m 0
 454 105.611328125 476.385742188 127.997070312 504 127.997070312 c 0
 531.614257812 127.997070312 554 105.611328125 554 77.9970703125 c 0
 554 50.3828125 531.614257812 27.9970703125 504 27.9970703125 c 0
 476.385742188 27.9970703125 454 50.3828125 454 77.9970703125 c 0
EndSplineSet
EndChar

StartChar: i
Encoding: 105 105 16
Width: 1008
VWidth: 4000
Flags: HW
LayerCount: 2
Fore
SplineSet
244 96 m 2
 217.5078125 96 196 74.4921875 196 48 c 0
 196 21.5078125 217.5078125 0 244 0 c 2
 764 0 l 2
 790.4921875 0 812 21.5078125 812 48 c 0
 812 74.4921875 790.4921875 96 764 96 c 2
 244 96 l 2
456 68 m 2
 456 41.5078125 477.5078125 20 504 20 c 0
 530.4921875 20 552 41.5078125 552 68 c 2
 552 708 l 2
 552 734.4921875 530.4921875 756 504 756 c 2
 284 756 l 2
 257.5078125 756 236 734.4921875 236 708 c 0
 236 681.5078125 257.5078125 660 284 660 c 2
 456 660 l 1
 456 68 l 2
491.984375 988 m 1
 473.984375 970 l 1
 455.984375 988 l 1
 473.984375 1006 l 1
 491.984375 988 l 1
395.984375 988 m 0
 395.984375 944.951171875 430.935546875 910 473.984375 910 c 0
 517.052734375 910 551.984375 944.973632812 551.984375 988 c 0
 551.984375 1031.02636719 517.052734375 1066 473.984375 1066 c 0
 430.935546875 1066 395.984375 1031.04882812 395.984375 988 c 0
443.990234375 988 m 0
 443.990234375 1004.56835938 457.421875 1018 473.990234375 1018 c 0
 490.55859375 1018 503.990234375 1004.56835938 503.990234375 988 c 0
 503.990234375 971.430664062 490.55859375 958 473.990234375 958 c 0
 457.421875 958 443.990234375 971.430664062 443.990234375 988 c 0
EndSplineSet
EndChar

StartChar: A
Encoding: 65 65 17
Width: 1008
VWidth: 4000
Flags: HW
LayerCount: 2
Fore
SplineSet
296 48 m 0
 296 21.5078125 317.5078125 0 344 0 c 0
 370.4921875 0 392 21.5078125 392 48 c 0
 392 74.4921875 370.4921875 96 344 96 c 0
 317.5078125 96 296 74.4921875 296 48 c 0
324 0 m 2
 350.4921875 0 372 21.5078125 372 48 c 0
 372 74.4921875 350.4921875 96 324 96 c 2
 124 96 l 2
 97.5078125 96 76 74.4921875 76 48 c 0
 76 21.5078125 97.5078125 0 124 0 c 2
 324 0 l 2
884 0 m 2
 910.4921875 0 932 21.5078125 932 48 c 0
 932 74.4921875 910.4921875 96 884 96 c 2
 684 96 l 2
 657.5078125 96 636 74.4921875 636 48 c 0
 636 21.5078125 657.5078125 0 684 0 c 2
 884 0 l 2
157.663085938 60.5615234375 m 2
 149.430664062 30.1640625 172.366210938 0 204 0 c 0
 226.146484375 0 244.809570312 15.0302734375 250.336914062 35.4384765625 c 2
 500.739257812 960 l 1
 507.260742188 960 l 1
 757.663085938 35.4384765625 l 2
 763.190429688 15.0302734375 781.853515625 0 804 0 c 0
 835.634765625 0 858.569335938 30.1650390625 850.336914062 60.5615234375 c 2
 590.336914062 1020.56152344 l 2
 584.809570312 1040.96972656 566.146484375 1056 544 1056 c 2
 464 1056 l 2
 441.853515625 1056 423.190429688 1040.96972656 417.663085938 1020.56152344 c 2
 157.663085938 60.5615234375 l 2
304 408 m 2
 277.5078125 408 256 386.4921875 256 360 c 0
 256 333.5078125 277.5078125 312 304 312 c 2
 704 312 l 2
 730.4921875 312 752 333.5078125 752 360 c 0
 752 386.4921875 730.4921875 408 704 408 c 2
 304 408 l 2
EndSplineSet
EndChar

StartChar: parenright
Encoding: 41 41 18
Width: 1008
VWidth: 4000
Flags: HW
LayerCount: 2
Fore
SplineSet
371.568359375 -265.590820312 m 2
 354.766601562 -297.326171875 377.87109375 -336 414.01953125 -336 c 0
 432.419921875 -336 448.416015625 -325.624023438 456.470703125 -310.409179688 c 0
 459.870117188 -303.98828125 642.01953125 41.72265625 642.01953125 392 c 0
 642.01953125 550.669921875 605.103515625 706.048828125 564.608398438 830.34765625 c 0
 513.986328125 985.729492188 457.333984375 1092.77832031 456.470703125 1094.40917969 c 0
 448.416015625 1109.62402344 432.419921875 1120 414.01953125 1120 c 0
 377.87109375 1120 354.766601562 1081.32617188 371.568359375 1049.59082031 c 2
 371.568359375 1049.59082031 546.01953125 718.211914062 546.01953125 392 c 0
 546.01953125 65.7880859375 371.568359375 -265.590820312 371.568359375 -265.590820312 c 2
EndSplineSet
EndChar

StartChar: exclam
Encoding: 33 33 19
Width: 1008
VWidth: 4000
Flags: HW
LayerCount: 2
Fore
SplineSet
504 76 m 0
 501.365234375 76 501.365234375 80 504 80 c 0
 506.634765625 80 506.634765625 76 504 76 c 0
406 78 m 0
 406 23.908203125 449.908203125 -20 504 -20 c 0
 558.091796875 -20 602 23.908203125 602 78 c 0
 602 132.091796875 558.091796875 176 504 176 c 0
 449.908203125 176 406 132.091796875 406 78 c 0
453.999023438 78 m 0
 453.999023438 105.614257812 476.384765625 128 503.999023438 128 c 0
 531.61328125 128 553.999023438 105.614257812 553.999023438 78 c 0
 553.999023438 50.3857421875 531.61328125 28 503.999023438 28 c 0
 476.384765625 28 453.999023438 50.3857421875 453.999023438 78 c 0
504 280 m 0
 529.532226562 280 550.435546875 299.978515625 551.916015625 325.142578125 c 0
 592 1006.56738281 592 1006.56738281 592 1008 c 0
 592 1034.4921875 570.4921875 1056 544 1056 c 2
 464 1056 l 2
 437.5078125 1056 416 1034.4921875 416 1008 c 0
 416 1006.56738281 416 1006.56738281 456.083984375 325.142578125 c 0
 457.564453125 299.978515625 478.467773438 280 504 280 c 0
463.999023438 1008 m 1
 543.999023438 1008 l 1
 503.999023438 328 l 1
 463.999023438 1008 l 1
EndSplineSet
EndChar

StartChar: P
Encoding: 80 80 20
Width: 1008
VWidth: 4000
Flags: HW
LayerCount: 2
Fore
SplineSet
610 1056 m 0
 583.5078125 1056 562 1034.4921875 562 1008 c 0
 562 981.5078125 583.5078125 960 610 960 c 0
 710.4453125 960 792 878.4453125 792 778 c 0
 792 677.5546875 710.4453125 596 610 596 c 0
 583.5078125 596 562 574.4921875 562 548 c 0
 562 521.5078125 583.5078125 500 610 500 c 0
 763.4296875 500 888 624.5703125 888 778 c 0
 888 931.4296875 763.4296875 1056 610 1056 c 0
610 960 m 2
 636.4921875 960 658 981.5078125 658 1008 c 0
 658 1034.4921875 636.4921875 1056 610 1056 c 2
 168 1056 l 2
 141.5078125 1056 120 1034.4921875 120 1008 c 0
 120 981.5078125 141.5078125 960 168 960 c 2
 610 960 l 2
610 500 m 2
 636.4921875 500 658 521.5078125 658 548 c 0
 658 574.4921875 636.4921875 596 610 596 c 2
 300 596 l 2
 273.5078125 596 252 574.4921875 252 548 c 0
 252 521.5078125 273.5078125 500 300 500 c 2
 610 500 l 2
328 988 m 2
 328 1014.4921875 306.4921875 1036 280 1036 c 0
 253.5078125 1036 232 1014.4921875 232 988 c 2
 232 68 l 2
 232 41.5078125 253.5078125 20 280 20 c 0
 306.4921875 20 328 41.5078125 328 68 c 2
 328 988 l 2
168 96 m 2
 141.5078125 96 120 74.4921875 120 48 c 0
 120 21.5078125 141.5078125 0 168 0 c 2
 392 0 l 2
 418.4921875 0 440 21.5078125 440 48 c 0
 440 74.4921875 418.4921875 96 392 96 c 2
 168 96 l 2
EndSplineSet
EndChar

StartChar: grave
Encoding: 96 96 21
Width: 1008
VWidth: 4000
Flags: HW
LayerCount: 2
Fore
SplineSet
648.319335938 575.91015625 m 2
 677.659179688 543.310546875 732.00390625 564.313476562 732.00390625 608 c 0
 732.00390625 617.0078125 729.517578125 625.438476562 725.194335938 632.64453125 c 2
 485.194335938 1032.64453125 l 2
 476.801757812 1046.63085938 461.48828125 1056 444.00390625 1056 c 2
 324.00390625 1056 l 2
 282.672851562 1056 260.625976562 1006.68066406 288.319335938 975.91015625 c 2
 648.319335938 575.91015625 l 2
324.002929688 1008 m 1
 444.002929688 1008 l 1
 684.002929688 608 l 1
 324.002929688 1008 l 1
EndSplineSet
EndChar

StartChar: h
Encoding: 104 104 22
Width: 1008
VWidth: 4000
Flags: HW
LayerCount: 2
Fore
SplineSet
164 96 m 6
 137.5078125 96 116 74.4921875 116 48 c 4
 116 21.5078125 137.5078125 0 164 0 c 6
 364 0 l 6
 390.4921875 0 412 21.5078125 412 48 c 4
 412 74.4921875 390.4921875 96 364 96 c 6
 164 96 l 6
644 96 m 6
 617.5078125 96 596 74.4921875 596 48 c 4
 596 21.5078125 617.5078125 0 644 0 c 6
 844 0 l 6
 870.4921875 0 892 21.5078125 892 48 c 4
 892 74.4921875 870.4921875 96 844 96 c 6
 644 96 l 6
216 68 m 6
 216 41.5078125 237.5078125 20 264 20 c 4
 290.4921875 20 312 41.5078125 312 68 c 6
 312 1008 l 6
 312 1034.4921875 290.4921875 1056 264 1056 c 6
 164 1056 l 6
 137.5078125 1056 116 1034.4921875 116 1008 c 4
 116 981.5078125 137.5078125 960 164 960 c 6
 216 960 l 5
 216 68 l 6
792 522.046875 m 6
 792 672.053710938 709.213867188 780.859375 572.75 780.859375 c 4
 427.109375 780.859375 335.784179688 701.3671875 228.295898438 581.787109375 c 4
 200.629882812 551.008789062 222.682617188 501.71875 264 501.71875 c 4
 278.169921875 501.71875 290.915039062 507.872070312 299.704101562 517.650390625 c 4
 414.633789062 645.508789062 479.166992188 684.859375 572.75 684.859375 c 4
 597.896484375 684.859375 653.248046875 680.706054688 681.361328125 608.16015625 c 4
 690.903320312 583.537109375 696 553.540039062 696 522.046875 c 6
 696 48 l 6
 696 21.5078125 717.5078125 0 744 0 c 4
 770.4921875 0 792 21.5078125 792 48 c 6
 792 522.046875 l 6
EndSplineSet
EndChar

StartChar: p
Encoding: 112 112 23
Width: 1008
VWidth: 4000
Flags: HW
LayerCount: 2
Fore
SplineSet
291.9921875 378 m 4
 291.9921875 549.810546875 414.225585938 680 553.9921875 680 c 4
 693.774414062 680 815.9921875 549.8125 815.9921875 378 c 4
 815.9921875 206.1875 693.774414062 76 553.9921875 76 c 4
 414.225585938 76 291.9921875 206.189453125 291.9921875 378 c 4
195.9921875 378 m 4
 195.9921875 163.216796875 351.352539062 -20 553.9921875 -20 c 4
 756.647460938 -20 911.9921875 163.21875 911.9921875 378 c 4
 911.9921875 592.78125 756.647460938 776 553.9921875 776 c 4
 351.352539062 776 195.9921875 592.783203125 195.9921875 378 c 4
196.0078125 -252 m 6
 196.0078125 -278.4921875 217.515625 -300 244.0078125 -300 c 4
 270.5 -300 292.0078125 -278.4921875 292.0078125 -252 c 6
 292.0078125 708 l 6
 292.0078125 734.4921875 270.5 756 244.0078125 756 c 6
 144.0078125 756 l 6
 117.515625 756 96.0078125 734.4921875 96.0078125 708 c 4
 96.0078125 681.5078125 117.515625 660 144.0078125 660 c 6
 196.0078125 660 l 5
 196.0078125 -252 l 6
144.0078125 -204 m 6
 117.515625 -204 96.0078125 -225.5078125 96.0078125 -252 c 4
 96.0078125 -278.4921875 117.515625 -300 144.0078125 -300 c 6
 384.0078125 -300 l 6
 410.5 -300 432.0078125 -278.4921875 432.0078125 -252 c 4
 432.0078125 -225.5078125 410.5 -204 384.0078125 -204 c 6
 144.0078125 -204 l 6
EndSplineSet
EndChar

StartChar: Q
Encoding: 81 81 24
Width: 1008
VWidth: 4000
Flags: HW
LayerCount: 2
Fore
SplineSet
504 76 m 0
 357.80859375 76 232 278.004882812 232 528 c 0
 232 777.991210938 357.806640625 980 504 980 c 0
 650.19140625 980 776 777.995117188 776 528 c 0
 776 278.008789062 650.193359375 76 504 76 c 0
504 1076 m 0
 298.434570312 1076 136 831.864257812 136 528 c 0
 136 224.15625 298.420898438 -20 504 -20 c 0
 709.565429688 -20 872 224.135742188 872 528 c 0
 872 831.84375 709.579101562 1076 504 1076 c 0
795.03125 -209.234375 m 0
 905.977539062 -209.234375 952 -76.556640625 952 -52 c 0
 952 -25.5078125 930.4921875 -4 904 -4 c 0
 881.766601562 -4 863.04296875 -19.1494140625 857.598632812 -39.6796875 c 0
 857.357421875 -40.615234375 836.029296875 -113.234375 795.03125 -113.234375 c 0
 784.579101562 -113.234375 770.165039062 -113.234375 751.158203125 -77.82421875 c 0
 738.017578125 -53.341796875 725.040039062 -15.017578125 710.0078125 30.998046875 c 0
 680.090820312 122.578125 665.267578125 165.658203125 643.083984375 205.346679688 c 0
 619.01953125 248.400390625 574.43359375 305.875 484 305.875 c 0
 420.122070312 305.875 372.44921875 269.759765625 341.208007812 236.63671875 c 0
 301.470703125 194.5078125 281.556640625 150.592773438 280.400390625 148.08984375 c 0
 265.814453125 116.517578125 288.953125 80 324 80 c 0
 343.321289062 80 359.991210938 91.4404296875 367.599609375 107.91015625 c 0
 378.034179688 130.978515625 426.263671875 209.875 484 209.875 c 0
 547.540039062 209.875 567.384765625 158.375976562 618.73046875 1.19921875 c 0
 650.494140625 -96.0341796875 676.677734375 -176.185546875 749.85546875 -201.833984375 c 0
 764.10546875 -206.827148438 779.359375 -209.234375 795.03125 -209.234375 c 0
EndSplineSet
EndChar

StartChar: a
Encoding: 97 97 25
Width: 1008
VWidth: 4000
Flags: HW
LayerCount: 2
Fore
SplineSet
212 588 m 1
 194 570 l 1
 176 588 l 1
 194 606 l 1
 212 588 l 1
116 588 m 0
 116 544.951171875 150.951171875 510 194 510 c 0
 237.048828125 510 272 544.951171875 272 588 c 0
 272 631.048828125 237.048828125 666 194 666 c 0
 150.951171875 666 116 631.048828125 116 588 c 0
163.998046875 588 m 0
 163.998046875 604.568359375 177.4296875 618 193.998046875 618 c 0
 210.567382812 618 223.998046875 604.568359375 223.998046875 588 c 0
 223.998046875 571.431640625 210.567382812 558 193.998046875 558 c 0
 177.4296875 558 163.998046875 571.431640625 163.998046875 588 c 0
774.296875 -20 m 0
 848.852539062 -20 912 39.8798828125 912 128 c 0
 912 154.4921875 890.4921875 176 864 176 c 0
 837.5078125 176 816 154.4921875 816 128 c 0
 816 98.5107421875 800.612304688 76 774.296875 76 c 0
 757.471679688 76 712 82.0966796875 712 148 c 2
 712 508 l 2
 712 599.001953125 674.39453125 674.401367188 609.834960938 721.228515625 c 0
 558.799804688 758.24609375 494.313476562 776 424 776 c 0
 345.224609375 776 240.001953125 759.951171875 174.2578125 705.80859375 c 0
 140.772460938 678.232421875 116 637.622070312 116 588 c 0
 116 561.5078125 137.5078125 540 164 540 c 0
 190.4921875 540 212 561.5078125 212 588 c 0
 212 605.044921875 218.338867188 617.767578125 235.223632812 631.672851562 c 0
 250.423828125 644.190429688 274.579101562 655.9921875 303.807617188 664.375976562 c 0
 340.241210938 674.826171875 383.552734375 680 424 680 c 0
 478.130859375 680 522.287109375 666.1484375 553.555664062 643.46875 c 0
 591.876953125 615.672851562 616 572.553710938 616 508 c 2
 616 148 l 2
 616 36.7001953125 694.364257812 -20 774.296875 -20 c 0
96 188 m 0
 96 77.576171875 195.504882812 -20 344 -20 c 0
 515.783203125 -20 579.896484375 48.6982421875 654.504882812 128.642578125 c 0
 668.365234375 143.494140625 682.524414062 158.655273438 697.934570312 174.065429688 c 0
 728.073242188 204.205078125 706.49609375 256 664 256 c 0
 650.75390625 256 638.75390625 250.623046875 630.065429688 241.934570312 c 0
 613.182617188 225.051757812 598.176757812 208.961914062 584.317382812 194.111328125 c 0
 513.65625 118.396484375 472.829101562 76 344 76 c 0
 253.294921875 76 192 127.614257812 192 188 c 0
 192 242.536132812 211.155273438 287.272460938 249.645507812 321.241210938 c 0
 280.76953125 348.708984375 327.012695312 370.633789062 391.364257812 380.5625 c 0
 506.239257812 398.282226562 580.5625 401.717773438 620.842773438 401.717773438 c 0
 649 401.717773438 663.568359375 400 664 400 c 0
 690.4921875 400 712 421.5078125 712 448 c 0
 712 472.450195312 693.6796875 492.654296875 670.030273438 495.624023438 c 0
 667.112304688 495.990234375 580.053710938 506.814453125 376.635742188 475.4375 c 0
 298.403320312 463.366210938 233.990234375 435.439453125 186.16796875 393.236328125 c 0
 125.9765625 340.116210938 96 266.796875 96 188 c 0
EndSplineSet
EndChar

StartChar: q
Encoding: 113 113 26
Width: 1008
VWidth: 4000
Flags: HW
LayerCount: 2
Fore
SplineSet
171.9921875 378 m 0
 171.9921875 549.810546875 294.225585938 680 433.9921875 680 c 0
 573.774414062 680 695.9921875 549.8125 695.9921875 378 c 0
 695.9921875 206.1875 573.774414062 76 433.9921875 76 c 0
 294.225585938 76 171.9921875 206.189453125 171.9921875 378 c 0
75.9921875 378 m 0
 75.9921875 163.216796875 231.352539062 -20 433.9921875 -20 c 0
 636.647460938 -20 791.9921875 163.21875 791.9921875 378 c 0
 791.9921875 592.78125 636.647460938 776 433.9921875 776 c 0
 231.352539062 776 75.9921875 592.783203125 75.9921875 378 c 0
792.0078125 708 m 2
 792.0078125 734.4921875 770.5 756 744.0078125 756 c 0
 717.515625 756 696.0078125 734.4921875 696.0078125 708 c 2
 696.0078125 -252 l 2
 696.0078125 -278.4921875 717.515625 -300 744.0078125 -300 c 0
 770.5 -300 792.0078125 -278.4921875 792.0078125 -252 c 2
 792.0078125 708 l 2
604.0078125 -204 m 2
 577.515625 -204 556.0078125 -225.5078125 556.0078125 -252 c 0
 556.0078125 -278.4921875 577.515625 -300 604.0078125 -300 c 2
 884.0078125 -300 l 2
 910.5 -300 932.0078125 -278.4921875 932.0078125 -252 c 0
 932.0078125 -225.5078125 910.5 -204 884.0078125 -204 c 2
 604.0078125 -204 l 2
EndSplineSet
EndChar

StartChar: y
Encoding: 121 121 27
Width: 1008
VWidth: 4000
Flags: HW
LayerCount: 2
Fore
SplineSet
191.9921875 -132 m 1
 173.9921875 -150 l 1
 155.9921875 -132 l 1
 173.9921875 -114 l 1
 191.9921875 -132 l 1
95.9921875 -132 m 0
 95.9921875 -175.048828125 130.943359375 -210 173.9921875 -210 c 0
 217.060546875 -210 251.9921875 -175.026367188 251.9921875 -132 c 0
 251.9921875 -88.9736328125 217.060546875 -54 173.9921875 -54 c 0
 130.943359375 -54 95.9921875 -88.951171875 95.9921875 -132 c 0
143.997070312 -132 m 0
 143.997070312 -115.431640625 157.427734375 -102 173.997070312 -102 c 0
 190.565429688 -102 203.997070312 -115.431640625 203.997070312 -132 c 0
 203.997070312 -148.568359375 190.565429688 -162 173.997070312 -162 c 0
 157.427734375 -162 143.997070312 -148.568359375 143.997070312 -132 c 0
164.0078125 756 m 2
 137.515625 756 116.0078125 734.4921875 116.0078125 708 c 0
 116.0078125 681.5078125 137.515625 660 164.0078125 660 c 2
 364.0078125 660 l 2
 390.5 660 412.0078125 681.5078125 412.0078125 708 c 0
 412.0078125 734.4921875 390.5 756 364.0078125 756 c 2
 164.0078125 756 l 2
644.0078125 756 m 2
 617.515625 756 596.0078125 734.4921875 596.0078125 708 c 0
 596.0078125 681.5078125 617.515625 660 644.0078125 660 c 2
 844.0078125 660 l 2
 870.5 660 892.0078125 681.5078125 892.0078125 708 c 0
 892.0078125 734.4921875 870.5 756 844.0078125 756 c 2
 644.0078125 756 l 2
96.0078125 -132 m 0
 96.0078125 -249.987304688 181.029296875 -320 299.8828125 -320 c 0
 364.370117188 -320 483.678710938 -299.147460938 539.94140625 -155.372070312 c 2
 829.446289062 692.5 l 2
 840.016601562 723.458007812 816.952148438 756 784.0078125 756 c 0
 762.938476562 756 745.021484375 742.395507812 738.569335938 723.5 c 2
 450.094726562 -121.35546875 l 2
 414.6953125 -210.724609375 347.53125 -224 299.8828125 -224 c 0
 273.850585938 -224 219.948242188 -218.552734375 200.309570312 -175.514648438 c 0
 195.397460938 -164.75 192.0078125 -150.711914062 192.0078125 -132 c 0
 192.0078125 -105.5078125 170.5 -84 144.0078125 -84 c 0
 117.515625 -84 96.0078125 -105.5078125 96.0078125 -132 c 0
244.0078125 756 m 0
 209.900390625 756 186.772460938 721.28125 199.52734375 689.9375 c 2
 493.15234375 -31.625 l 2
 500.294921875 -49.17578125 517.528320312 -61.5625 537.6328125 -61.5625 c 0
 571.740234375 -61.5625 594.868164062 -26.84375 582.11328125 4.5 c 2
 288.48828125 726.0625 l 2
 281.345703125 743.61328125 264.112304688 756 244.0078125 756 c 0
EndSplineSet
EndChar

StartChar: two
Encoding: 50 50 28
Width: 1008
VWidth: 4000
Flags: HW
LayerCount: 2
Fore
SplineSet
501.595703125 980 m 0
 653.596679688 980 769.751953125 890.844726562 769.751953125 777.359375 c 0
 769.751953125 669.493164062 701.444335938 635.106445312 500.958984375 534.5078125 c 0
 316.641601562 442 155.634765625 306.138671875 114.240234375 55.8779296875 c 0
 114.240234375 53.314453125 113.595703125 50.6826171875 113.595703125 48 c 0
 113.595703125 21.5078125 135.103515625 0 161.595703125 0 c 0
 185.404296875 0 205.188476562 17.3720703125 208.951171875 40.1220703125 c 0
 238.549804688 219.065429688 338.286132812 345.44140625 543.919921875 448.6484375 c 0
 670.376953125 512.1015625 743.92578125 549.006835938 796.006835938 601.498046875 c 0
 849.861328125 655.778320312 865.751953125 715.8984375 865.751953125 777.359375 c 0
 865.751953125 944.038085938 709.713867188 1076 501.595703125 1076 c 0
 292.84375 1076 146.611328125 944.311523438 146.611328125 798.375 c 0
 146.611328125 771.8828125 168.119140625 750.375 194.611328125 750.375 c 0
 221.103515625 750.375 242.611328125 771.8828125 242.611328125 798.375 c 0
 242.611328125 891.553710938 349.913085938 980 501.595703125 980 c 0
661.548828125 77.71875 m 0
 570.185546875 77.71875 491.737304688 197.375 359.830078125 197.375 c 0
 295.764648438 197.375 242.40234375 172.75390625 203.486328125 147.30078125 c 0
 154.625976562 115.342773438 126.32421875 80.6796875 124.42578125 78.359375 c 0
 98.904296875 47.158203125 121.291015625 0 161.595703125 0 c 0
 176.57421875 0 189.959960938 6.8759765625 198.765625 17.640625 c 2
 198.765625 17.640625 217.95703125 42.060546875 255.935546875 66.9013671875 c 0
 285.0546875 85.9462890625 321.395507812 101.375 359.830078125 101.375 c 0
 455.295898438 101.375 532.504882812 -18.28125 661.548828125 -18.28125 c 0
 799.118164062 -18.28125 862.120117188 96.587890625 885.009765625 136.541992188 c 0
 890.435546875 146.013671875 894.423828125 152.974609375 894.423828125 165.734375 c 0
 894.423828125 192.2265625 872.916015625 213.734375 846.423828125 213.734375 c 0
 828.671875 213.734375 813.157226562 204.076171875 804.852539062 189.732421875 c 0
 777.778320312 142.96875 740.002929688 77.71875 661.548828125 77.71875 c 0
242.611328125 798.359375 m 1
 224.611328125 780.359375 l 1
 206.611328125 798.359375 l 1
 224.611328125 816.359375 l 1
 242.611328125 798.359375 l 1
146.611328125 798.359375 m 0
 146.611328125 755.310546875 181.5625 720.359375 224.611328125 720.359375 c 0
 267.6796875 720.359375 302.611328125 755.333007812 302.611328125 798.359375 c 0
 302.611328125 841.40625 267.658203125 876.359375 224.611328125 876.359375 c 0
 181.584960938 876.359375 146.611328125 841.427734375 146.611328125 798.359375 c 0
194.615234375 798.365234375 m 0
 194.615234375 814.93359375 208.045898438 828.365234375 224.615234375 828.365234375 c 0
 241.18359375 828.365234375 254.615234375 814.93359375 254.615234375 798.365234375 c 0
 254.615234375 781.796875 241.18359375 768.365234375 224.615234375 768.365234375 c 0
 208.045898438 768.365234375 194.615234375 781.796875 194.615234375 798.365234375 c 0
EndSplineSet
EndChar

StartChar: B
Encoding: 66 66 29
Width: 1008
VWidth: 4000
Flags: HW
LayerCount: 2
Fore
SplineSet
274 616 m 2
 247.5078125 616 226 594.4921875 226 568 c 0
 226 541.5078125 247.5078125 520 274 520 c 2
 594.28125 520 l 2
 620.7734375 520 642.28125 541.5078125 642.28125 568 c 0
 642.28125 594.4921875 620.7734375 616 594.28125 616 c 2
 274 616 l 2
154 96 m 2
 127.5078125 96 106 74.4921875 106 48 c 0
 106 21.5078125 127.5078125 0 154 0 c 2
 594 0 l 2
 620.4921875 0 642 21.5078125 642 48 c 0
 642 74.4921875 620.4921875 96 594 96 c 2
 154 96 l 2
466 1008 m 0
 466 981.5078125 487.5078125 960 514 960 c 0
 540.4921875 960 562 981.5078125 562 1008 c 0
 562 1034.4921875 540.4921875 1056 514 1056 c 0
 487.5078125 1056 466 1034.4921875 466 1008 c 0
574 960 m 2
 600.4921875 960 622 981.5078125 622 1008 c 0
 622 1034.4921875 600.4921875 1056 574 1056 c 2
 154 1056 l 2
 127.5078125 1056 106 1034.4921875 106 1008 c 0
 106 981.5078125 127.5078125 960 154 960 c 2
 574 960 l 2
574 1056 m 0
 547.5078125 1056 526 1034.4921875 526 1008 c 0
 526 981.5078125 547.5078125 960 574 960 c 0
 668.9296875 960 746 882.9296875 746 788 c 0
 746 693.0703125 668.9296875 616 574 616 c 0
 547.5078125 616 526 594.4921875 526 568 c 0
 526 541.5078125 547.5078125 520 574 520 c 0
 721.9140625 520 842 640.0859375 842 788 c 0
 842 935.9140625 721.9140625 1056 574 1056 c 0
594 616 m 0
 567.5078125 616 546 594.4921875 546 568 c 0
 546 541.5078125 567.5078125 520 594 520 c 0
 711.008789062 520 806 425.008789062 806 308 c 0
 806 190.991210938 711.008789062 96 594 96 c 0
 567.5078125 96 546 74.4921875 546 48 c 0
 546 21.5078125 567.5078125 0 594 0 c 0
 763.991210938 0 902 138.008789062 902 308 c 0
 902 477.991210938 763.991210938 616 594 616 c 0
206 68 m 2
 206 41.5078125 227.5078125 20 254 20 c 0
 280.4921875 20 302 41.5078125 302 68 c 2
 302 988 l 2
 302 1014.4921875 280.4921875 1036 254 1036 c 0
 227.5078125 1036 206 1014.4921875 206 988 c 2
 206 68 l 2
EndSplineSet
EndChar

StartChar: J
Encoding: 74 74 30
Width: 1008
VWidth: 4000
Flags: HW
LayerCount: 2
Fore
SplineSet
554 1056 m 6
 527.5078125 1056 506 1034.4921875 506 1008 c 4
 506 981.5078125 527.5078125 960 554 960 c 6
 854 960 l 6
 880.4921875 960 902 981.5078125 902 1008 c 4
 902 1034.4921875 880.4921875 1056 854 1056 c 6
 554 1056 l 6
106 288 m 6
 106 86.48828125 260.7265625 -20 434 -20 c 4
 602.265625 -20 762 124.140625 762 348 c 6
 762 988 l 6
 762 1014.4921875 740.4921875 1036 714 1036 c 4
 687.5078125 1036 666 1014.4921875 666 988 c 6
 666 348 l 6
 666 171.859375 545.734375 76 434 76 c 4
 340.7421875 76 202 120.715820312 202 288 c 6
 202 328 l 6
 202 354.4921875 180.4921875 376 154 376 c 4
 127.5078125 376 106 354.4921875 106 328 c 6
 106 288 l 6
202 328 m 5
 184 310 l 5
 166 328 l 5
 184 346 l 5
 202 328 l 5
106 328 m 4
 106 284.931640625 140.973632812 250 184 250 c 4
 227.026367188 250 262 284.931640625 262 328 c 4
 262 371.048828125 227.048828125 406 184 406 c 4
 140.951171875 406 106 371.048828125 106 328 c 4
154 327.99609375 m 4
 154 344.564453125 167.431640625 357.99609375 184 357.99609375 c 4
 200.568359375 357.99609375 214 344.564453125 214 327.99609375 c 4
 214 311.427734375 200.568359375 297.99609375 184 297.99609375 c 4
 167.431640625 297.99609375 154 311.427734375 154 327.99609375 c 4
EndSplineSet
EndChar

StartChar: R
Encoding: 82 82 31
Width: 1008
VWidth: 4000
Flags: HW
LayerCount: 2
Fore
SplineSet
105.1484375 96 m 6
 78.65625 96 57.1484375 74.4921875 57.1484375 48 c 4
 57.1484375 21.5078125 78.65625 0 105.1484375 0 c 6
 345.1484375 0 l 6
 371.640625 0 393.1484375 21.5078125 393.1484375 48 c 4
 393.1484375 74.4921875 371.640625 96 345.1484375 96 c 6
 105.1484375 96 l 6
177.1484375 48 m 6
 177.1484375 21.5078125 198.65625 0 225.1484375 0 c 4
 251.640625 0 273.1484375 21.5078125 273.1484375 48 c 6
 273.1484375 1008 l 6
 273.1484375 1034.4921875 251.640625 1056 225.1484375 1056 c 4
 198.65625 1056 177.1484375 1034.4921875 177.1484375 1008 c 6
 177.1484375 48 l 6
105.1484375 1056 m 6
 78.65625 1056 57.1484375 1034.4921875 57.1484375 1008 c 4
 57.1484375 981.5078125 78.65625 960 105.1484375 960 c 6
 585.1484375 960 l 6
 611.640625 960 633.1484375 981.5078125 633.1484375 1008 c 4
 633.1484375 1034.4921875 611.640625 1056 585.1484375 1056 c 6
 105.1484375 1056 l 6
233.7109375 644.5625 m 6
 207.21875 644.5625 185.7109375 623.0546875 185.7109375 596.5625 c 4
 185.7109375 570.0703125 207.21875 548.5625 233.7109375 548.5625 c 6
 585.1484375 548.5625 l 6
 611.640625 548.5625 633.1484375 570.0703125 633.1484375 596.5625 c 4
 633.1484375 623.0546875 611.640625 644.5625 585.1484375 644.5625 c 6
 233.7109375 644.5625 l 6
585.1484375 1056 m 4
 558.65625 1056 537.1484375 1034.4921875 537.1484375 1008 c 4
 537.1484375 981.5078125 558.65625 960 585.1484375 960 c 4
 684.948242188 960 760.0078125 886.043945312 760.0078125 802.28125 c 4
 760.0078125 718.518554688 684.948242188 644.5625 585.1484375 644.5625 c 4
 558.65625 644.5625 537.1484375 623.0546875 537.1484375 596.5625 c 4
 537.1484375 570.0703125 558.65625 548.5625 585.1484375 548.5625 c 4
 731.348632812 548.5625 856.0078125 658.981445312 856.0078125 802.28125 c 4
 856.0078125 945.581054688 731.348632812 1056 585.1484375 1056 c 4
829.751953125 96 m 5
 786.358398438 289.341796875 671.241210938 644.5625 259.4296875 644.5625 c 4
 232.9375 644.5625 211.4296875 623.0546875 211.4296875 596.5625 c 4
 211.4296875 570.0703125 232.9375 548.5625 259.4296875 548.5625 c 4
 533.388671875 548.5625 677.916992188 367.923828125 743.783203125 38.55078125 c 4
 748.177734375 16.5771484375 767.59375 0 790.8515625 0 c 6
 902.8515625 0 l 6
 929.34375 0 950.8515625 21.5078125 950.8515625 48 c 4
 950.8515625 74.4921875 929.34375 96 902.8515625 96 c 6
 829.751953125 96 l 5
EndSplineSet
EndChar

StartChar: Z
Encoding: 90 90 32
Width: 1008
VWidth: 4000
Flags: HWO
LayerCount: 2
Fore
SplineSet
912.015625 288 m 6
 912.015625 314.4921875 890.5078125 336 864.015625 336 c 4
 837.5234375 336 816.015625 314.4921875 816.015625 288 c 6
 816.015625 96 l 5
 236.83203125 96 l 5
 863.2109375 980.299804688 l 6
 885.6015625 1011.91015625 862.84375 1056 824.015625 1056 c 6
 164.015625 1056 l 6
 137.5234375 1056 116.015625 1034.4921875 116.015625 1008 c 6
 116.015625 828 l 6
 116.015625 801.5078125 137.5234375 780 164.015625 780 c 4
 190.5078125 780 212.015625 801.5078125 212.015625 828 c 6
 212.015625 960 l 5
 731.19921875 960 l 5
 104.8203125 75.7001953125 l 6
 82.4296875 44.08984375 105.1875 0 144.015625 0 c 6
 864.015625 0 l 6
 890.5078125 0 912.015625 21.5078125 912.015625 48 c 6
 912.015625 288 l 6
EndSplineSet
EndChar
